<svg width="38" height="45" viewBox="0 0 38 45" fill="none" xmlns="http://www.w3.org/2000/svg">
<path fill-rule="evenodd" clip-rule="evenodd" d="M12.4407 41.6842V4.11673C11.4957 4.39289 10.5163 4.53353 9.53182 4.53443C9.45 4.53443 9.36818 4.53443 9.28636 4.53443H9.24545C5.41938 4.52151 2.039 2.81194 0 0.189453V32.4581C0 32.4581 0.0990429 35.3756 2.32751 36.6674C3.81531 37.5287 8.08708 39.4966 12.4471 41.6842" fill="#E3000F"/>
<path fill-rule="evenodd" clip-rule="evenodd" d="M12.4404 4.11675V41.6842C14.6129 42.7715 16.7897 43.9234 18.6608 45C20.5318 43.9127 22.7172 42.7715 24.8811 41.6842V4.11675H24.8574C22.4456 3.49216 20.307 2.08988 18.7727 0.127033L18.6608 0C18.6091 0.0602871 18.5553 0.118421 18.5014 0.178708C16.9844 2.09265 14.8894 3.46494 12.5287 4.09091L12.4404 4.11675Z" fill="#2E2784"/>
<path fill-rule="evenodd" clip-rule="evenodd" d="M24.8818 4.11673V41.6842C29.2354 39.4966 33.5072 37.5309 35.0015 36.6675C37.2299 35.3756 37.329 32.4581 37.329 32.4581V0.180847C35.2835 2.80979 31.8988 4.52152 28.0684 4.52152H28.0361C27.9543 4.52152 27.8725 4.52152 27.7907 4.52152C26.8062 4.52061 25.8268 4.37998 24.8818 4.10381" fill="#009EE3"/>
<path fill-rule="evenodd" clip-rule="evenodd" d="M24.733 18.1615V20.0541H24.6254C24.5799 19.6401 24.4253 19.2455 24.1775 18.9108C24.0927 18.7936 23.9823 18.6972 23.8547 18.6289C23.7272 18.5606 23.5857 18.5223 23.4411 18.5168C23.3188 18.518 23.1981 18.5449 23.0869 18.5957C22.9756 18.6465 22.8763 18.7201 22.7952 18.8117C22.5886 19.0272 22.4404 19.2917 22.3646 19.5804C22.2455 20.0211 22.1876 20.4761 22.1923 20.9326C22.1888 21.3814 22.2314 21.8295 22.3194 22.2696C22.3721 22.6008 22.5076 22.9134 22.7134 23.1782C22.799 23.2782 22.9059 23.3577 23.0263 23.4109C23.1466 23.4642 23.2773 23.4899 23.4088 23.4861C23.6422 23.4889 23.8697 23.413 24.0548 23.2708C24.3048 23.0511 24.5127 22.7877 24.6684 22.4936V22.9629C24.505 23.238 24.2848 23.4751 24.0225 23.6584C23.785 23.8057 23.5096 23.8806 23.2301 23.8737C22.8493 23.879 22.4777 23.7561 22.1751 23.5249C21.8469 23.2638 21.5991 22.9152 21.4603 22.5194C21.2915 22.0738 21.2068 21.6007 21.2105 21.1242C21.2114 20.6126 21.3108 20.106 21.5033 19.6321C21.658 19.215 21.9167 18.8445 22.2548 18.5555C22.5339 18.3123 22.8901 18.1758 23.2603 18.1701C23.5522 18.1773 23.8371 18.2604 24.0871 18.4113C24.1844 18.4783 24.2931 18.5272 24.4079 18.5555C24.4394 18.5542 24.47 18.5448 24.4968 18.5282C24.5236 18.5116 24.5456 18.4884 24.5608 18.4608C24.6119 18.3691 24.64 18.2664 24.6426 18.1615H24.733ZM20.6722 18.1615V20.0541H20.5667C20.5199 19.64 20.3647 19.2457 20.1167 18.9108C20.0319 18.7936 19.9216 18.6972 19.794 18.6289C19.6664 18.5606 19.525 18.5223 19.3804 18.5168C19.2581 18.518 19.1374 18.5449 19.0261 18.5957C18.9148 18.6465 18.8155 18.7201 18.7344 18.8117C18.5279 19.0272 18.3797 19.2917 18.3038 19.5804C18.1848 20.0211 18.1268 20.4761 18.1316 20.9326C18.1281 21.3814 18.1706 21.8295 18.2586 22.2696C18.3114 22.6008 18.4469 22.9134 18.6526 23.1782C18.7383 23.2782 18.8452 23.3577 18.9655 23.4109C19.0858 23.4642 19.2165 23.4899 19.3481 23.4861C19.5815 23.4889 19.809 23.413 19.994 23.2708C20.244 23.0511 20.452 22.7877 20.6077 22.4936V22.9629C20.4442 23.238 20.224 23.4751 19.9617 23.6584C19.7249 23.8055 19.4503 23.8803 19.1715 23.8737C18.79 23.8793 18.4176 23.7565 18.1144 23.5249C17.7892 23.2591 17.5459 22.9068 17.4124 22.5086C17.2436 22.063 17.159 21.5899 17.1627 21.1134C17.1601 20.6065 17.2544 20.1037 17.4404 19.6321C17.5951 19.215 17.8537 18.8445 18.1919 18.5555C18.471 18.3123 18.8272 18.1758 19.1974 18.1701C19.49 18.1799 19.775 18.266 20.0242 18.4199C20.1215 18.4869 20.2302 18.5358 20.345 18.5641C20.3765 18.5628 20.4071 18.5534 20.4338 18.5368C20.4606 18.5202 20.4827 18.497 20.4978 18.4694C20.5488 18.3775 20.5775 18.2751 20.5818 18.1701L20.6722 18.1615ZM14.2581 18.2842L16.0947 21.6646V19.322C16.1122 19.0944 16.0791 18.8657 15.9978 18.6524C15.954 18.5754 15.8888 18.5129 15.81 18.4723C15.7313 18.4318 15.6424 18.4151 15.5543 18.4242V18.2842H16.7859V18.4242C16.6726 18.4371 16.5641 18.4769 16.4694 18.5404C16.4062 18.6038 16.3622 18.6836 16.3423 18.7708C16.3052 18.9521 16.29 19.1371 16.2971 19.322V23.8629H16.2045L13.6962 19.3156V22.7928C13.6709 23.0188 13.7233 23.2466 13.8447 23.4388C13.8855 23.4895 13.9369 23.5307 13.9953 23.5593C14.0537 23.588 14.1177 23.6034 14.1828 23.6046H14.2711V23.7445H12.9426V23.6046C13.0244 23.6124 13.1068 23.5993 13.1821 23.5666C13.2574 23.5338 13.3232 23.4824 13.3732 23.4172C13.4688 23.2253 13.5105 23.0109 13.4938 22.7971V18.9474L13.4163 18.8053C13.365 18.6948 13.2917 18.5958 13.201 18.5146C13.1242 18.4622 13.0334 18.4344 12.9404 18.4349V18.295L14.2581 18.2842Z" fill="#FFCC00"/>
<path fill-rule="evenodd" clip-rule="evenodd" d="M17.6279 28.4211C17.7762 28.4114 17.924 28.4446 18.0539 28.5168C18.1837 28.5889 18.29 28.697 18.36 28.828C18.7045 29.4007 18.5882 29.5041 18.5882 29.9864C18.5898 30.034 18.6085 30.0794 18.6409 30.1143C18.6732 30.1492 18.7171 30.1713 18.7644 30.1766C18.8118 30.1818 18.8594 30.1698 18.8986 30.1428C18.9378 30.1158 18.966 30.0755 18.9779 30.0294C19.0684 29.7065 18.9155 29.1983 18.7798 28.9077C18.8719 28.6708 19.0196 28.4596 19.2105 28.2919C19.402 28.459 19.5498 28.6704 19.6411 28.9077C19.5076 29.1983 19.3526 29.7065 19.4452 30.0294C19.4571 30.0755 19.4853 30.1158 19.5245 30.1428C19.5637 30.1698 19.6113 30.1818 19.6586 30.1766C19.706 30.1713 19.7498 30.1492 19.7822 30.1143C19.8146 30.0794 19.8333 30.034 19.8349 29.9864C19.8349 29.5041 19.7186 29.4007 20.0631 28.828C20.1331 28.697 20.2394 28.5889 20.3692 28.5168C20.4991 28.4446 20.6469 28.4114 20.7952 28.4211C20.1815 28.6536 20.7693 30.9919 19.26 31.0371C17.7507 31.0823 18.2502 28.6514 17.6279 28.4211Z" fill="#FFCC00"/>
<path fill-rule="evenodd" clip-rule="evenodd" d="M17.4121 30.8583C18.8978 31.5516 20.2564 32.7725 20.9023 34.3033L21.2511 34.088C20.6607 33.3628 20.0341 32.6679 19.3736 32.006C18.5554 31.2244 17.5521 30.6021 17.5521 30.3201L17.4121 30.8583Z" fill="#FFCC00"/>
<path fill-rule="evenodd" clip-rule="evenodd" d="M14.1828 31.0285C14.2446 30.877 14.3487 30.7467 14.4828 30.6531C14.6169 30.5595 14.7752 30.5067 14.9386 30.5009C15.6706 30.4363 15.718 30.6021 16.1938 30.8347C16.2177 30.8499 16.2444 30.8604 16.2723 30.8653C16.3002 30.8703 16.3288 30.8697 16.3565 30.8636C16.3842 30.8575 16.4104 30.846 16.4337 30.8298C16.4569 30.8135 16.4768 30.7929 16.492 30.769C16.5073 30.7451 16.5177 30.7184 16.5227 30.6905C16.5276 30.6626 16.5271 30.634 16.521 30.6063C16.5149 30.5786 16.5034 30.5524 16.4871 30.5291C16.4709 30.5059 16.4503 30.4861 16.4264 30.4708C16.1486 30.221 15.5651 30.1285 15.2185 30.1198C15.0274 29.9185 14.8878 29.674 14.8115 29.4072C15.0696 29.3039 15.3486 29.2633 15.6254 29.2887C15.8407 29.5643 16.2713 29.9627 16.6417 30.0273C16.6956 30.0464 16.755 30.0433 16.8067 30.0187C16.8584 29.994 16.8981 29.9499 16.9173 29.8959C16.9364 29.842 16.9333 29.7826 16.9087 29.7309C16.884 29.6792 16.8399 29.6395 16.7859 29.6203C16.3101 29.3856 16.14 29.4502 15.7503 28.8344C15.6558 28.7011 15.6012 28.5437 15.5928 28.3805C15.5844 28.2174 15.6226 28.0552 15.7029 27.9129C15.634 28.6342 18.235 29.1832 17.5481 30.6969C16.8613 32.2105 14.7189 30.5203 14.1807 31.0285" fill="#FFCC00"/>
<path fill-rule="evenodd" clip-rule="evenodd" d="M11.2656 28.8086C11.3497 28.6686 11.4719 28.5554 11.6179 28.4822C11.7639 28.409 11.9278 28.3788 12.0903 28.3952C12.8245 28.4361 12.846 28.6105 13.2852 28.9055C13.3086 28.9218 13.3351 28.9333 13.3629 28.9393C13.3908 28.9453 13.4196 28.9457 13.4477 28.9405C13.4757 28.9353 13.5024 28.9246 13.5263 28.909C13.5502 28.8933 13.5707 28.8731 13.5867 28.8495C13.6152 28.8089 13.6288 28.7598 13.6252 28.7104C13.6217 28.661 13.6013 28.6143 13.5673 28.5782C13.3305 28.2918 12.7728 28.1174 12.424 28.0593C12.2648 27.832 12.1622 27.5699 12.1247 27.2949C12.3943 27.2301 12.6754 27.2301 12.9451 27.2949C13.1281 27.5985 13.4941 28.055 13.8451 28.1713C13.8959 28.1981 13.9553 28.2037 14.0102 28.1867C14.0651 28.1697 14.111 28.1317 14.1379 28.0808C14.1647 28.03 14.1703 27.9706 14.1533 27.9157C14.1363 27.8608 14.0983 27.8148 14.0474 27.788C13.6168 27.4909 13.4424 27.5318 13.1345 26.8622C13.0587 26.7173 13.0265 26.5536 13.0418 26.3908C13.0571 26.228 13.1192 26.0732 13.2206 25.9449C13.0484 26.6469 15.5439 27.5641 14.646 28.9593C13.7482 30.3545 11.8706 28.3801 11.2656 28.8043" fill="#FFCC00"/>
<path fill-rule="evenodd" clip-rule="evenodd" d="M9.24121 25.4067C9.36374 25.2988 9.51441 25.228 9.67566 25.2024C9.83691 25.1769 10.0021 25.1977 10.152 25.2625C10.8388 25.5251 10.7979 25.6931 11.1359 26.1237C11.1662 26.1725 11.2146 26.2073 11.2706 26.2204C11.3265 26.2336 11.3853 26.2239 11.4342 26.1937C11.483 26.1634 11.5178 26.115 11.5309 26.0591C11.544 26.0031 11.5344 25.9443 11.5041 25.8955C11.3642 25.551 10.884 25.2151 10.5697 25.0536C10.4874 24.7882 10.4689 24.5071 10.5159 24.2333C10.7931 24.2538 11.0616 24.3394 11.2996 24.483C11.3814 24.8275 11.5903 25.3723 11.8917 25.5919C11.9319 25.633 11.9869 25.6564 12.0444 25.657C12.102 25.6576 12.1574 25.6354 12.1985 25.5951C12.2396 25.5549 12.2631 25.4999 12.2637 25.4424C12.2643 25.3848 12.242 25.3294 12.2017 25.2883C11.8745 24.8706 11.7022 24.8577 11.6118 24.1299C11.5826 23.967 11.601 23.7991 11.6648 23.6464C11.7286 23.4936 11.835 23.3625 11.9714 23.2687C11.5946 23.8888 13.6938 25.5187 12.4149 26.5802C11.1359 27.6416 9.94743 25.1914 9.24121 25.4067Z" fill="#FFCC00"/>
<path fill-rule="evenodd" clip-rule="evenodd" d="M8.36914 21.5569C8.52409 21.5034 8.69109 21.4953 8.85052 21.5334C9.00994 21.5716 9.15517 21.6544 9.26914 21.7722C9.80742 22.2718 9.71483 22.4182 9.86125 22.9285C9.87095 22.9856 9.90295 23.0365 9.95019 23.07C9.99743 23.1035 10.0561 23.1169 10.1132 23.1072C10.1703 23.0975 10.2212 23.0655 10.2547 23.0182C10.2882 22.971 10.3016 22.9123 10.2919 22.8552C10.2919 22.4849 9.97321 21.994 9.74283 21.727C9.76471 21.4505 9.85257 21.1832 9.99904 20.9476C10.2485 21.0695 10.4654 21.2488 10.6321 21.4708C10.5782 21.8218 10.5675 22.4052 10.7656 22.7196C10.7889 22.7636 10.8267 22.7982 10.8726 22.8174C10.9186 22.8366 10.9698 22.8394 11.0175 22.8251C11.045 22.8174 11.0708 22.8043 11.0933 22.7866C11.1157 22.7688 11.1344 22.7468 11.1483 22.7217C11.1621 22.6967 11.1708 22.6691 11.1738 22.6406C11.1769 22.6122 11.1742 22.5834 11.166 22.556C11.0196 22.0457 10.8646 21.9703 11.0562 21.2641C11.0908 21.1059 11.17 20.961 11.2845 20.8465C11.399 20.732 11.544 20.6527 11.7022 20.6182C11.123 21.0488 12.4557 23.3483 10.8732 23.8478C9.29067 24.3474 9.09904 21.6172 8.36914 21.5569Z" fill="#FFCC00"/>
<path fill-rule="evenodd" clip-rule="evenodd" d="M8.78418 17.6555C8.94685 17.668 9.10262 17.7264 9.23336 17.824C9.3641 17.9216 9.46444 18.0543 9.5227 18.2067C9.81552 18.8806 9.67341 18.9775 9.60451 19.4986C9.60058 19.5267 9.60225 19.5554 9.60944 19.5829C9.61664 19.6104 9.6292 19.6362 9.64642 19.6588C9.66363 19.6814 9.68515 19.7004 9.70974 19.7147C9.73433 19.7289 9.7615 19.7382 9.78968 19.7419C9.83895 19.7493 9.88928 19.7394 9.93207 19.7139C9.97487 19.6884 10.0075 19.6488 10.0244 19.6019C10.1729 19.2617 10.0782 18.6847 9.9727 18.3467C10.1046 18.1016 10.2928 17.8913 10.5217 17.733C10.7011 17.945 10.8273 18.1967 10.8899 18.4672C10.7026 18.7665 10.4593 19.2983 10.5131 19.6644C10.5172 19.7135 10.538 19.7598 10.5721 19.7955C10.6062 19.8312 10.6515 19.8541 10.7004 19.8603C10.7289 19.8655 10.7582 19.8649 10.7864 19.8586C10.8147 19.8523 10.8413 19.8403 10.8649 19.8234C10.8884 19.8065 10.9082 19.7851 10.9233 19.7603C10.9383 19.7356 10.9482 19.7081 10.9524 19.6794C11.0213 19.1519 10.9093 19.0206 11.3679 18.4479C11.4644 18.3154 11.5967 18.2133 11.7493 18.1534C11.9018 18.0935 12.0683 18.0784 12.2292 18.1098C11.5251 18.2735 11.8265 20.9089 10.1729 20.7409C8.51935 20.573 9.44518 18.0022 8.78418 17.6555Z" fill="#FFCC00"/>
<path fill-rule="evenodd" clip-rule="evenodd" d="M10.9915 14.0835C11.1351 14.1617 11.2534 14.2791 11.3327 14.4221C11.412 14.5651 11.449 14.7277 11.4393 14.8909C11.4264 15.6251 11.2563 15.6553 10.9764 16.1053C10.9519 16.1504 10.9443 16.2028 10.955 16.253C10.9657 16.3032 10.994 16.348 11.0348 16.3791C11.0756 16.4103 11.1262 16.4259 11.1775 16.4231C11.2288 16.4202 11.2773 16.3991 11.3144 16.3636C11.59 16.116 11.7451 15.5519 11.7881 15.1988C12.0084 15.0301 12.2662 14.9171 12.5396 14.8694C12.6151 15.1364 12.6262 15.4176 12.5719 15.6897C12.2769 15.8835 11.8355 16.2689 11.7321 16.6242C11.7118 16.6711 11.7089 16.7238 11.7239 16.7727C11.7389 16.8216 11.7708 16.8636 11.814 16.8912C11.8381 16.9069 11.8652 16.9176 11.8936 16.9226C11.922 16.9277 11.9511 16.9269 11.9793 16.9205C12.0074 16.9141 12.0339 16.9021 12.0573 16.8852C12.0807 16.8683 12.1004 16.8469 12.1154 16.8223C12.3953 16.3723 12.3479 16.2065 13.0025 15.8727C13.1448 15.7924 13.3069 15.7542 13.4701 15.7626C13.6333 15.771 13.7907 15.8256 13.924 15.9201C13.2135 15.778 12.3996 18.3079 10.9635 17.4682C9.52736 16.6285 11.4329 14.6691 10.9829 14.0835" fill="#FFCC00"/>
<path fill-rule="evenodd" clip-rule="evenodd" d="M14.2433 11.5557C14.3433 11.688 14.403 11.8463 14.4152 12.0117C14.4274 12.1771 14.3917 12.3425 14.3122 12.488C13.9957 13.149 13.8277 13.106 13.3842 13.3988C13.3378 13.4273 13.304 13.4723 13.2895 13.5248C13.2749 13.5772 13.2808 13.6332 13.3059 13.6815C13.331 13.7298 13.3735 13.7668 13.4247 13.785C13.476 13.8033 13.5323 13.8014 13.5823 13.7799C13.9375 13.6679 14.31 13.2179 14.4973 12.9186C14.768 12.8582 15.0491 12.8627 15.3177 12.9316C15.2764 13.2064 15.1693 13.4672 15.0055 13.6916C14.6567 13.7454 14.0947 13.9069 13.8536 14.1911C13.8186 14.2264 13.797 14.2727 13.7923 14.3222C13.7875 14.3716 13.8001 14.4212 13.8277 14.4624C13.8432 14.4866 13.8633 14.5074 13.887 14.5236C13.9106 14.5399 13.9372 14.5512 13.9653 14.557C13.9934 14.5629 14.0223 14.563 14.0505 14.5575C14.0786 14.552 14.1054 14.5409 14.1292 14.5249C14.5727 14.232 14.5985 14.0619 15.3327 14.0318C15.4958 14.0172 15.6596 14.0501 15.8044 14.1265C15.9492 14.2029 16.0688 14.3196 16.1488 14.4624C15.5631 14.0318 13.7674 15.9954 12.8136 14.6325C11.8598 13.2696 14.3983 12.2727 14.2433 11.5557Z" fill="#FFCC00"/>
<path fill-rule="evenodd" clip-rule="evenodd" d="M17.7765 10.3931C17.8368 10.545 17.8525 10.7108 17.822 10.8713C17.7915 11.0318 17.716 11.1803 17.6043 11.2995C17.1241 11.8572 16.9756 11.7711 16.4718 11.9455C16.4189 11.9637 16.3752 12.0017 16.3499 12.0515C16.3246 12.1013 16.3197 12.1591 16.3361 12.2125C16.3511 12.257 16.3802 12.2955 16.4191 12.3219C16.458 12.3483 16.5045 12.3613 16.5514 12.3589C16.9218 12.3438 17.3997 12.0079 17.6603 11.7668C17.9372 11.7786 18.2073 11.8561 18.4483 11.9928C18.3353 12.2447 18.1641 12.466 17.9488 12.6388C17.5957 12.6 17.0122 12.6129 16.7043 12.8196C16.652 12.8433 16.6113 12.8868 16.5912 12.9405C16.571 12.9942 16.5729 13.0538 16.5966 13.106C16.6203 13.1583 16.6638 13.1989 16.7175 13.2191C16.7712 13.2393 16.8307 13.2374 16.883 13.2137C17.3868 13.0479 17.4579 12.8885 18.1749 13.0522C18.336 13.0803 18.4855 13.1545 18.6054 13.2656C18.7254 13.3768 18.8106 13.5202 18.8509 13.6787C18.3966 13.1146 16.1509 14.54 15.5868 12.9747C15.0227 11.4094 17.7399 11.1251 17.7658 10.3909" fill="#FFCC00"/>
<path fill-rule="evenodd" clip-rule="evenodd" d="M20.9826 30.8583C19.4991 31.5516 18.1404 32.7725 17.4945 34.3033L17.1436 34.088C17.3589 33.8533 18.1232 32.865 19.0211 32.006C19.8392 31.2244 20.8448 30.6021 20.8448 30.3201L20.9826 30.8583Z" fill="#FFCC00"/>
<path fill-rule="evenodd" clip-rule="evenodd" d="M24.2186 31.0285C24.1569 30.877 24.0527 30.7467 23.9186 30.6531C23.7846 30.5595 23.6263 30.5067 23.4629 30.5009C22.7287 30.4363 22.6813 30.6021 22.2055 30.8347C22.1572 30.8652 22.0988 30.8754 22.0431 30.8628C21.9874 30.8503 21.9389 30.8162 21.9083 30.7679C21.8778 30.7197 21.8677 30.6613 21.8802 30.6055C21.8927 30.5498 21.9268 30.5013 21.9751 30.4708C22.2507 30.221 22.8363 30.1285 23.183 30.1198C23.3724 29.9177 23.5111 29.6734 23.5878 29.4072C23.3304 29.304 23.0522 29.2634 22.776 29.2887C22.5607 29.5643 22.1301 29.9627 21.7576 30.0273C21.7037 30.0467 21.6442 30.0439 21.5923 30.0194C21.5404 29.995 21.5004 29.951 21.4809 29.897C21.4615 29.843 21.4643 29.7836 21.4888 29.7317C21.5132 29.6798 21.5572 29.6397 21.6112 29.6203C22.087 29.3856 22.2571 29.4502 22.6468 28.8344C22.7413 28.7011 22.796 28.5437 22.8044 28.3805C22.8128 28.2174 22.7745 28.0552 22.6942 27.9129C22.7631 28.6342 20.1622 29.1832 20.849 30.6969C21.5358 32.2105 23.6803 30.5203 24.2186 31.0285Z" fill="#FFCC00"/>
<path fill-rule="evenodd" clip-rule="evenodd" d="M27.125 28.8086C27.0411 28.6689 26.9192 28.556 26.7736 28.4828C26.628 28.4096 26.4647 28.3792 26.3025 28.3952C25.5683 28.4361 25.5446 28.6105 25.1054 28.9055C25.062 28.9426 25.0056 28.9609 24.9487 28.9565C24.8918 28.9521 24.8389 28.9252 24.8018 28.8818C24.7647 28.8384 24.7463 28.782 24.7508 28.7251C24.7552 28.6682 24.7821 28.6153 24.8255 28.5782C25.0623 28.2918 25.62 28.1174 25.9709 28.0593C26.1283 27.831 26.2307 27.5694 26.2702 27.2949C25.9999 27.2301 25.7181 27.2301 25.4477 27.2949C25.2647 27.5985 24.9008 28.055 24.5477 28.1713C24.4969 28.1998 24.4368 28.207 24.3807 28.1913C24.3246 28.1755 24.277 28.1381 24.2485 28.0873C24.2199 28.0365 24.2127 27.9764 24.2285 27.9203C24.2442 27.8641 24.2816 27.8166 24.3324 27.788C24.7631 27.4909 24.9396 27.5318 25.2453 26.8622C25.3212 26.7174 25.3536 26.5539 25.3387 26.3912C25.3238 26.2285 25.2622 26.0735 25.1614 25.9449C25.3315 26.6469 22.8382 27.5641 23.7339 28.9593C24.6296 30.3545 26.5092 28.3801 27.1142 28.8043" fill="#FFCC00"/>
<path fill-rule="evenodd" clip-rule="evenodd" d="M29.1489 25.4067C29.0274 25.2978 28.877 25.2263 28.7159 25.2007C28.5547 25.1751 28.3896 25.1966 28.2403 25.2625C27.5535 25.5251 27.5815 25.6931 27.2542 26.1237C27.2392 26.1477 27.2196 26.1686 27.1966 26.1851C27.1735 26.2015 27.1475 26.2133 27.1199 26.2197C27.0923 26.2261 27.0637 26.227 27.0358 26.2223C27.0078 26.2177 26.9811 26.2076 26.9571 26.1926C26.933 26.1776 26.9122 26.158 26.8957 26.135C26.8792 26.112 26.8675 26.0859 26.8611 26.0583C26.8547 26.0307 26.8538 26.0021 26.8584 25.9742C26.8631 25.9463 26.8732 25.9195 26.8882 25.8955C27.0281 25.551 27.5083 25.2151 27.8226 25.0536C27.9049 24.7882 27.9234 24.5071 27.8764 24.2333C27.5998 24.2534 27.3319 24.339 27.0949 24.483C27.013 24.8275 26.802 25.3723 26.5028 25.5919C26.4625 25.6327 26.4077 25.6559 26.3503 25.6563C26.293 25.6567 26.2378 25.6343 26.197 25.594C26.1562 25.5538 26.133 25.4989 26.1326 25.4416C26.1322 25.3843 26.1546 25.3291 26.1949 25.2883C26.5221 24.8706 26.6922 24.8577 26.7827 24.1299C26.8118 23.967 26.7934 23.7991 26.7296 23.6464C26.6659 23.4936 26.5594 23.3625 26.4231 23.2687C26.7999 23.8888 24.7006 25.5187 25.9795 26.5802C27.2585 27.6416 28.4449 25.1914 29.1489 25.4067Z" fill="#FFCC00"/>
<path fill-rule="evenodd" clip-rule="evenodd" d="M30.0295 21.5569C29.8748 21.5039 29.7083 21.496 29.5493 21.5341C29.3903 21.5722 29.2454 21.6548 29.1316 21.7722C28.5934 22.2718 28.6838 22.4182 28.5374 22.9285C28.5297 22.956 28.5166 22.9818 28.4989 23.0043C28.4811 23.0267 28.4591 23.0454 28.434 23.0592C28.4089 23.0731 28.3814 23.0818 28.3529 23.0848C28.3244 23.0879 28.2957 23.0852 28.2682 23.077C28.2217 23.064 28.1808 23.0357 28.1523 22.9966C28.1238 22.9576 28.1093 22.91 28.1111 22.8617C28.1111 22.4914 28.4319 22.0005 28.6623 21.7335C28.6395 21.4568 28.5509 21.1896 28.4039 20.9541C28.155 21.0759 27.9388 21.2552 27.773 21.4773C27.8247 21.8282 27.8355 22.4117 27.6395 22.7261C27.6178 22.7792 27.5759 22.8215 27.523 22.8437C27.4701 22.8659 27.4106 22.8662 27.3575 22.8445C27.3044 22.8228 27.2621 22.7809 27.2398 22.728C27.2176 22.6751 27.2173 22.6155 27.239 22.5624C27.3855 22.0521 27.5405 21.9768 27.351 21.2706C27.3148 21.1132 27.235 20.9691 27.1207 20.8549C27.0065 20.7407 26.8625 20.6609 26.7051 20.6246C27.2864 21.0553 25.9515 23.3548 27.5362 23.8543C29.1209 24.3538 29.2996 21.6366 30.0381 21.5763" fill="#FFCC00"/>
<path fill-rule="evenodd" clip-rule="evenodd" d="M29.6073 17.6555C29.4442 17.6676 29.288 17.7259 29.1568 17.8235C29.0257 17.9211 28.925 18.054 28.8666 18.2067C28.5738 18.8806 28.7159 18.9775 28.787 19.4986C28.8007 19.5557 28.7911 19.6159 28.7604 19.666C28.7297 19.716 28.6804 19.7519 28.6233 19.7656C28.5662 19.7793 28.506 19.7697 28.4559 19.739C28.4059 19.7083 28.37 19.659 28.3563 19.6019C28.2078 19.2617 28.3047 18.6847 28.408 18.3467C28.2758 18.1023 28.0877 17.8928 27.859 17.7352C27.6805 17.9477 27.5544 18.1992 27.4908 18.4694C27.6803 18.7687 27.9214 19.3005 27.8697 19.6665C27.8712 19.7236 27.8498 19.7789 27.8105 19.8203C27.7711 19.8617 27.7169 19.8858 27.6598 19.8872C27.6027 19.8886 27.5474 19.8673 27.506 19.8279C27.4646 19.7886 27.4405 19.7344 27.4391 19.6773C27.3681 19.1498 27.48 19.0184 27.0214 18.4457C26.9249 18.3132 26.7926 18.2111 26.64 18.1512C26.4875 18.0913 26.321 18.0762 26.1602 18.1077C26.8664 18.2713 26.5649 20.9067 28.2164 20.7388C29.8678 20.5708 28.9463 18 29.5987 17.649" fill="#FFCC00"/>
<path fill-rule="evenodd" clip-rule="evenodd" d="M27.3982 14.0835C27.2539 14.1608 27.1351 14.2781 27.056 14.4213C26.9769 14.5646 26.941 14.7277 26.9525 14.8909C26.9525 15.6251 27.1333 15.6553 27.4154 16.1053C27.4416 16.1507 27.4503 16.204 27.4399 16.2554C27.4296 16.3068 27.4008 16.3526 27.3591 16.3843C27.3174 16.416 27.2655 16.4314 27.2133 16.4276C27.161 16.4238 27.1119 16.401 27.0752 16.3636C26.7996 16.116 26.6446 15.5519 26.6037 15.1988C26.3828 15.0312 26.1252 14.9183 25.8522 14.8694C25.7722 15.1376 25.7575 15.4211 25.8092 15.6962C26.1063 15.89 26.5455 16.2754 26.6489 16.6306C26.6737 16.6823 26.677 16.7417 26.6581 16.7958C26.6391 16.8499 26.5994 16.8943 26.5477 16.9191C26.496 16.944 26.4366 16.9473 26.3825 16.9283C26.3284 16.9093 26.284 16.8696 26.2592 16.8179C25.9857 16.3636 26.0245 16.2065 25.3786 15.8727C25.2363 15.7924 25.0741 15.7542 24.9109 15.7626C24.7477 15.771 24.5903 15.8256 24.457 15.9201C25.1676 15.778 25.9836 18.3079 27.4176 17.4682C28.8515 16.6285 26.9503 14.6691 27.3982 14.0835Z" fill="#FFCC00"/>
<path fill-rule="evenodd" clip-rule="evenodd" d="M24.1498 11.5557C24.0508 11.6886 23.9923 11.8473 23.9812 12.0127C23.9701 12.178 24.007 12.3431 24.0874 12.488C24.406 13.149 24.5718 13.106 25.0154 13.3988C25.0645 13.4257 25.1011 13.4708 25.1176 13.5243C25.134 13.5778 25.1289 13.6357 25.1034 13.6855C25.078 13.7354 25.034 13.7734 24.981 13.7914C24.928 13.8094 24.87 13.806 24.8194 13.782C24.4663 13.6701 24.0938 13.2201 23.9044 12.9208C23.6337 12.8604 23.3526 12.8648 23.084 12.9337C23.1274 13.2079 23.2343 13.4682 23.3962 13.6938C23.7472 13.7476 24.307 13.9091 24.5503 14.1933C24.5946 14.2298 24.6225 14.2825 24.6279 14.3396C24.6334 14.3967 24.6159 14.4537 24.5794 14.498C24.5428 14.5422 24.4902 14.5701 24.4331 14.5756C24.3759 14.581 24.319 14.5636 24.2747 14.527C23.8312 14.2342 23.8053 14.0641 23.0711 14.034C22.9079 14.0205 22.7442 14.0539 22.5993 14.1302C22.4544 14.2064 22.3343 14.3224 22.2529 14.4646C22.8386 14.034 24.6343 15.9976 25.5881 14.6347C26.5419 13.2718 23.9862 12.2727 24.1498 11.5557Z" fill="#FFCC00"/>
<path fill-rule="evenodd" clip-rule="evenodd" d="M20.6139 10.3931C20.5537 10.545 20.5379 10.7108 20.5684 10.8713C20.5989 11.0318 20.6744 11.1803 20.7861 11.2995C21.2663 11.8572 21.417 11.7711 21.9208 11.9455C21.9779 11.9575 22.0279 11.9917 22.0598 12.0405C22.0917 12.0894 22.1029 12.1489 22.0909 12.206C22.0789 12.2631 22.0447 12.3131 21.9959 12.345C21.947 12.3769 21.8875 12.3881 21.8304 12.3761C21.4601 12.361 20.9821 12.0251 20.7237 11.784C20.4467 11.7896 20.1751 11.8612 19.9314 11.9928C20.0445 12.244 20.2148 12.4652 20.4287 12.6388C20.7818 12.6 21.3653 12.6129 21.6732 12.8196C21.7255 12.8433 21.7662 12.8868 21.7864 12.9405C21.8065 12.9942 21.8046 13.0538 21.7809 13.106C21.7572 13.1583 21.7137 13.1989 21.66 13.2191C21.6063 13.2393 21.5468 13.2374 21.4945 13.2137C20.9907 13.0479 20.9218 12.8885 20.2026 13.0522C20.0418 13.0815 19.8926 13.1559 19.7725 13.2669C19.6524 13.3778 19.5663 13.5207 19.5244 13.6787C19.9787 13.1146 22.2244 14.54 22.7907 12.9747C23.357 11.4094 20.6376 11.1251 20.6096 10.3909" fill="#FFCC00"/>
<path fill-rule="evenodd" clip-rule="evenodd" d="M19.1517 10.6385C19.2314 10.6385 19.3093 10.6622 19.3756 10.7065C19.4418 10.7508 19.4934 10.8139 19.5238 10.8875C19.5543 10.9612 19.5621 11.0423 19.5464 11.1205C19.5307 11.1986 19.4921 11.2704 19.4356 11.3266C19.3791 11.3828 19.3071 11.421 19.2289 11.4363C19.1506 11.4516 19.0696 11.4433 18.9961 11.4125C18.9226 11.3817 18.8598 11.3297 18.8158 11.2632C18.7719 11.1968 18.7486 11.1187 18.749 11.039C18.749 10.9862 18.7595 10.9339 18.7797 10.8852C18.8 10.8365 18.8297 10.7922 18.8671 10.755C18.9045 10.7178 18.9489 10.6884 18.9977 10.6684C19.0466 10.6484 19.0989 10.6382 19.1517 10.6385Z" fill="#FFCC00"/>
<path fill-rule="evenodd" clip-rule="evenodd" d="M19.1517 12.4277C19.2314 12.4277 19.3093 12.4514 19.3756 12.4957C19.4418 12.5401 19.4934 12.6031 19.5238 12.6768C19.5543 12.7505 19.5621 12.8316 19.5464 12.9097C19.5307 12.9879 19.4921 13.0596 19.4356 13.1158C19.3791 13.1721 19.3071 13.2102 19.2289 13.2255C19.1506 13.2408 19.0696 13.2325 18.9961 13.2017C18.9226 13.1709 18.8598 13.119 18.8158 13.0525C18.7719 12.986 18.7486 12.9079 18.749 12.8282C18.749 12.7754 18.7595 12.7232 18.7797 12.6745C18.8 12.6257 18.8297 12.5815 18.8671 12.5443C18.9045 12.5071 18.9489 12.4776 18.9977 12.4576C19.0466 12.4376 19.0989 12.4275 19.1517 12.4277Z" fill="#FFCC00"/>
</svg>
