<svg width="45" height="45" viewBox="0 0 45 45" fill="none" xmlns="http://www.w3.org/2000/svg">
<g clip-path="url(#clip0_374_272)">
<path fill-rule="evenodd" clip-rule="evenodd" d="M22.504 -1.27414e-05C26.9438 0.00124272 31.2841 1.31607 34.9782 3.77891C38.6723 6.24175 41.5552 9.7425 43.2639 13.8404C44.9726 17.9383 45.4306 22.4501 44.5803 26.8078C43.7301 31.1655 41.6096 35.1742 38.4858 38.3292C35.362 41.4842 31.3745 43.6444 27.0255 44.5379C22.6765 45.4314 18.1604 45.0183 14.0457 43.3504C9.93103 41.6826 6.4018 38.8346 3.90237 35.1651C1.40294 31.4956 0.045045 27.1687 -0.000332793 22.7291C-0.036079 19.7533 0.519949 16.8 1.63544 14.041C2.75093 11.2819 4.40364 8.77205 6.49753 6.65725C8.59141 4.54245 11.0847 2.86488 13.8326 1.72202C16.5804 0.579165 19.528 -0.00618407 22.504 -1.27414e-05Z" fill="#37316F"/>
<path fill-rule="evenodd" clip-rule="evenodd" d="M10.5555 10.979C10.6798 10.7556 10.7663 10.5131 10.8113 10.2615C10.8304 10.1387 10.8286 10.0142 10.8355 9.89664C10.6248 9.85103 10.4075 9.84342 10.1941 9.87416C10.1941 9.93813 10.1941 10.009 10.1941 10.0782C10.1937 10.2506 10.1565 10.4209 10.0849 10.5777C10.0133 10.7346 9.90909 10.8743 9.77914 10.9876C9.5198 11.2055 9.24316 11.3818 8.87835 11.3334C8.75017 11.3202 8.63016 11.2642 8.53764 11.1746C8.44512 11.0849 8.38548 10.9666 8.3683 10.8389C8.35229 10.7459 8.35851 10.6504 8.38645 10.5603C8.4144 10.4701 8.46328 10.3879 8.5291 10.3202C8.83512 9.99346 9.13769 9.66668 9.44199 9.33818C9.47311 9.3036 9.50251 9.26556 9.54227 9.21888L8.55503 8.30079C8.72793 8.10542 8.90082 7.92561 9.07372 7.74925C9.10137 7.72417 9.1329 7.70374 9.16709 7.68874C9.24795 7.64446 9.32644 7.59599 9.40223 7.5435C9.53017 7.4536 9.64947 7.35505 9.78087 7.25477C9.82582 7.31009 9.86559 7.35505 9.9019 7.40173C10.4275 8.07257 10.9537 8.74168 11.4805 9.40907C11.5012 9.44027 11.5288 9.46631 11.5612 9.48519C11.5935 9.50407 11.6298 9.51529 11.6672 9.51799C11.8038 9.52837 11.9369 9.5543 12.0718 9.57159L12.4694 9.61309L12.4884 9.58023L10.3203 6.83117C10.5918 6.62369 10.839 6.41621 11.1139 6.2243C11.2678 6.11364 11.4407 6.02719 11.6032 5.92691C11.6265 5.90651 11.6544 5.89195 11.6844 5.88444C11.7145 5.87692 11.7459 5.87667 11.7761 5.88369C11.8968 5.92413 12.0127 5.97746 12.1219 6.04275C12.1986 6.09666 12.2554 6.17419 12.2839 6.2635C12.3123 6.3528 12.3107 6.44895 12.2792 6.53724C12.255 6.62144 12.2128 6.69936 12.1554 6.76564C12.0981 6.83191 12.0271 6.88494 11.9473 6.92107L11.8141 6.98332C11.9162 7.06631 11.987 7.14411 12.0839 7.2029C12.4714 7.46469 12.9407 7.5771 13.4048 7.5193C13.6246 7.50151 13.836 7.42659 14.018 7.30194C14.2 7.1773 14.3462 7.00726 14.4422 6.80869C14.456 6.78103 14.4716 6.75336 14.4958 6.71014C14.5926 6.91762 14.6894 7.10607 14.7724 7.30145C14.7897 7.34322 14.8163 7.3805 14.8501 7.41046C14.884 7.44042 14.9242 7.46227 14.9678 7.47434C15.1805 7.5435 15.3897 7.61958 15.6023 7.69047C15.6431 7.70124 15.6848 7.70819 15.7268 7.71121L14.2295 4.51434C14.4526 4.38121 14.6981 4.30859 14.9332 4.15471L14.5874 4.03714C14.4624 3.97457 14.3281 3.93253 14.1898 3.91266C14.051 3.9457 13.9197 4.00433 13.8025 4.08556C13.2611 4.32298 12.7329 4.58963 12.2205 4.88434C11.6585 5.23878 11.088 5.57593 10.5261 5.93556C10.3995 6.02656 10.2777 6.1241 10.1612 6.22775L9.64255 6.63406C9.40395 6.53205 9.18956 6.4214 8.96307 6.34878C8.73587 6.28218 8.50494 6.22906 8.27148 6.18972C7.97551 6.12789 7.66711 6.17908 7.40699 6.33322C7.30066 6.38556 7.21004 6.46506 7.14432 6.56369C7.0786 6.66231 7.04011 6.77654 7.03274 6.89483C7.02537 7.01311 7.04938 7.13124 7.10235 7.23726C7.15532 7.34328 7.23536 7.43342 7.33437 7.49855C7.55241 7.66322 7.80783 7.77133 8.07783 7.81322C8.11144 7.81324 8.14479 7.80739 8.17638 7.79593C8.1756 7.785 8.1756 7.77402 8.17638 7.76308C8.13203 7.73711 8.08982 7.70762 8.05017 7.67491C7.94054 7.58542 7.84188 7.48327 7.75624 7.37061C7.69768 7.30001 7.65889 7.21515 7.64382 7.12468C7.62875 7.0342 7.63794 6.94135 7.67046 6.85559C7.70297 6.76982 7.75764 6.69421 7.8289 6.63646C7.90016 6.57872 7.98546 6.5409 8.0761 6.52687C8.1022 6.5189 8.12876 6.51255 8.15564 6.50785C8.60454 6.46698 9.05508 6.56603 9.44545 6.7914L9.07718 7.08533C8.89218 7.23575 8.71582 7.39827 8.52045 7.53659C8.33157 7.69272 8.15789 7.8664 8.00176 8.05528C7.71821 8.34748 7.44676 8.6535 7.16666 8.95089C6.72405 9.42463 6.27797 9.89491 5.83535 10.3686C5.80017 10.4096 5.77633 10.4591 5.76619 10.5122C5.7377 10.6503 5.68185 10.7814 5.60194 10.8977C5.36507 11.2435 5.13166 11.6049 4.89652 11.9576C4.87231 11.9939 4.8533 12.0458 4.81872 12.063C4.65965 12.1408 4.62853 12.3051 4.55764 12.4417C4.48675 12.5783 4.43143 12.7304 4.36573 12.8808C4.15825 13.2889 3.94559 13.6935 3.73119 14.0911C3.69661 14.1568 3.63783 14.2087 3.60152 14.264C3.56781 14.324 3.54167 14.3878 3.52372 14.4542C3.50297 14.5268 3.5047 14.6046 3.47876 14.6738C3.24189 15.2997 3.00157 15.9256 2.76297 16.5497C2.74222 16.6016 2.72666 16.6552 2.69727 16.7451C2.89091 16.6604 3.04306 16.5826 3.19867 16.5273C3.27291 16.5039 3.34006 16.4622 3.39387 16.406C3.44767 16.3498 3.48639 16.2809 3.50643 16.2057C3.5946 15.9377 3.70526 15.687 3.80727 15.4138C3.89193 15.4094 3.97676 15.4094 4.06143 15.4138C4.23617 15.426 4.40531 15.4806 4.55418 15.5729C4.66088 15.6355 4.74282 15.7329 4.78626 15.8487C4.8297 15.9645 4.832 16.0918 4.79278 16.2091C4.72535 16.2091 4.65446 16.2091 4.58531 16.2212C4.55225 16.2209 4.51948 16.2274 4.48905 16.2404C4.45863 16.2533 4.4312 16.2724 4.40848 16.2964C4.38576 16.3204 4.36824 16.3489 4.35702 16.3799C4.34579 16.411 4.34111 16.4441 4.34325 16.4771C4.33759 16.5083 4.33855 16.5404 4.34607 16.5712C4.35358 16.602 4.36749 16.6309 4.38689 16.656C4.40628 16.6811 4.43074 16.7019 4.45866 16.7169C4.48659 16.732 4.51736 16.741 4.549 16.7434C4.6056 16.7567 4.66382 16.7619 4.72189 16.7589C4.88991 16.7486 5.05727 16.7296 5.2233 16.7019C5.79881 16.5854 6.36122 16.4117 6.90213 16.1832C7.11479 16.0967 7.32227 16.0103 7.52975 15.9066C7.57989 15.8841 7.6404 15.8633 7.65423 15.77C7.5211 15.7994 7.40007 15.8218 7.28078 15.8512C6.84162 15.9601 6.40419 16.0725 5.96503 16.1763C5.82386 16.2241 5.67349 16.2383 5.52587 16.2178C5.52397 16.1849 5.52397 16.152 5.52587 16.1192C5.57066 15.9199 5.53544 15.7109 5.42777 15.5373C5.3201 15.3637 5.14859 15.2392 4.95012 15.1908C4.70822 15.1241 4.45533 15.107 4.20666 15.1406C4.11157 15.151 4.0182 15.1648 3.90236 15.1804L4.07526 14.7343C4.12367 14.6064 4.17554 14.4819 4.22222 14.3539C4.26367 14.2249 4.33337 14.1068 4.42624 14.0081C4.47062 13.9513 4.50779 13.8891 4.53689 13.8231C4.57493 13.8387 4.60605 13.8491 4.63372 13.8629L5.3011 14.2087C5.86129 14.5009 6.42148 14.7914 6.97993 15.087C7.01896 15.111 7.06305 15.1255 7.10867 15.1294C7.1543 15.1333 7.20021 15.1265 7.24274 15.1095C7.45194 15.0351 7.66634 14.9712 7.87727 14.902C7.91932 14.8849 7.96031 14.8652 8.00003 14.8432L4.86194 13.2042C5.0028 12.85 5.19696 12.5194 5.43769 12.2238C5.62096 12.3449 5.81461 12.4607 5.99096 12.5938C6.12701 12.6949 6.28401 12.7642 6.45039 12.7965C6.61677 12.8288 6.78828 12.8234 6.95227 12.7806C7.24992 12.7279 7.52214 12.5792 7.72728 12.3572C7.93243 12.1352 8.0592 11.8521 8.08821 11.5513C8.09404 11.5284 8.10276 11.5063 8.11414 11.4856C8.41576 11.6815 8.76764 11.786 9.12732 11.7864C9.43941 11.8172 9.75168 11.7296 10.0022 11.5409C10.1855 11.3953 10.3535 11.2313 10.5036 11.0516C10.409 11.3747 10.3402 11.7048 10.2978 12.0388L10.718 12.0734C10.756 11.84 10.7906 11.6256 10.8269 11.4112C10.8563 11.2383 10.8563 11.2383 11.0448 11.2245L11.9421 11.1743C12.0631 11.1743 12.0631 11.1657 12.0821 11.0239C12.0525 11.0136 12.0217 11.0066 11.9905 11.0032L10.6194 10.9651C10.5977 10.9679 10.5763 10.9725 10.5555 10.979Z" fill="black"/>
<path fill-rule="evenodd" clip-rule="evenodd" d="M36.9548 22.8743C36.9697 21.8776 36.8933 20.8815 36.7266 19.8987C36.4886 18.5686 36.0655 17.2783 35.4696 16.0656C35.2172 15.5469 34.925 15.0611 34.6242 14.5735C34.3233 14.0859 33.9326 13.6554 33.6317 13.1592C33.518 12.9787 33.3693 12.8229 33.1943 12.701C33.0063 12.5617 32.8326 12.4042 32.6756 12.2307C32.5286 12.0699 32.3765 11.9057 32.214 11.757C30.1492 9.87202 27.5781 8.63216 24.8174 8.19012C24.3938 8.12442 23.965 8.08292 23.538 8.03451C23.3985 7.9958 23.2554 7.97204 23.1109 7.96362C22.8481 7.98956 22.5801 7.9861 22.3156 7.9982C21.9784 8.01549 21.6413 8.03105 21.3041 8.05353C20.6472 8.10065 19.995 8.2001 19.3539 8.35091C16.0181 9.09192 13.0539 10.9936 10.9899 13.717C8.92583 16.4403 7.89615 19.8082 8.08441 23.2201C8.25016 26.2911 9.39333 29.2287 11.347 31.6039C11.5977 31.9099 11.8864 32.1848 12.1475 32.4839C12.2582 32.6101 12.3913 32.7104 12.4933 32.8297C12.661 33.013 12.8394 33.1862 13.0275 33.3484C14.3999 34.5368 15.9835 35.4565 17.6958 36.0594C18.7271 36.428 19.7985 36.6729 20.8875 36.7891C21.1468 36.8167 21.4062 36.8323 21.669 36.8548C21.9318 36.8773 22.1548 36.9066 22.3986 36.9136C22.696 36.9239 22.9968 36.9136 23.2959 36.9136C23.3448 36.9171 23.3937 36.9076 23.4377 36.8859C23.5323 36.831 23.6418 36.8074 23.7506 36.8185C23.8321 36.8231 23.9138 36.8191 23.9944 36.8064C24.5373 36.7216 25.0854 36.6594 25.6214 36.5384C28.6879 35.8819 31.4506 34.2282 33.4778 31.8356C35.7791 29.1384 36.9081 25.9916 36.9548 22.8743Z" fill="black"/>
<path fill-rule="evenodd" clip-rule="evenodd" d="M41.354 16.1676H41.3886C41.4785 15.9481 41.5615 15.7302 41.6531 15.5072C41.6627 15.4655 41.6584 15.4218 41.641 15.3827C41.3557 14.7464 41.1482 14.0773 40.7955 13.4705C40.5483 13.0469 40.327 12.606 40.0918 12.1789C40.0348 12.0752 39.9708 11.9749 39.9068 11.8763C39.5749 11.3767 39.2464 10.877 38.9109 10.3825C38.8036 10.2317 38.6881 10.0869 38.5651 9.94853C38.4925 9.86208 38.4009 9.79119 38.3283 9.70475C38.1087 9.44886 37.8943 9.18605 37.6782 8.92671C37.5787 8.79846 37.4725 8.67553 37.36 8.55843C37.0298 8.24203 36.6944 7.93082 36.359 7.62133C35.9267 7.2254 35.536 6.77932 35.019 6.4854C34.9679 6.45562 34.9261 6.41218 34.8983 6.35995C34.8705 6.30772 34.8578 6.24878 34.8617 6.18974C34.8409 5.84395 34.8202 5.49815 34.7891 5.15236C34.7704 4.83615 34.6936 4.5261 34.5626 4.23773C34.4575 4.01348 34.2804 3.83087 34.0594 3.71904C34.0219 3.70487 33.9831 3.69445 33.9436 3.68792C33.9436 3.88156 33.9436 4.05965 33.9436 4.23773C33.946 4.25573 33.9523 4.27298 33.9622 4.28823C33.9721 4.30348 33.9852 4.31635 34.0007 4.32591C34.1772 4.43691 34.3116 4.60362 34.3828 4.79965C34.5608 5.2339 34.649 5.69971 34.6421 6.16899C34.6421 6.16899 34.6283 6.1811 34.6144 6.19147L34.4848 6.09811C34.1874 5.88544 33.8986 5.6624 33.5943 5.46184C33.3748 5.31488 33.1362 5.19385 32.9028 5.06591C32.4796 4.80029 32.0434 4.5562 31.5956 4.33455C30.9559 4.05965 30.3231 3.76745 29.6938 3.48217C29.6575 3.46661 29.6177 3.45796 29.5503 3.43549C29.6384 3.67754 29.7111 3.89194 29.7941 4.10287C29.8191 4.14404 29.8567 4.17615 29.9013 4.19451C30.0009 4.25046 30.1057 4.29678 30.2142 4.33282C30.2932 4.35474 30.3629 4.40194 30.4125 4.4672C30.4622 4.53246 30.4891 4.61218 30.4891 4.69418C30.4955 4.7371 30.4984 4.78047 30.4977 4.82385C30.5015 4.94452 30.4575 5.06178 30.3752 5.15017C30.293 5.23855 30.1792 5.29091 30.0586 5.29586C29.9708 5.30565 29.882 5.29736 29.7975 5.27149C29.7131 5.24562 29.6348 5.20272 29.5676 5.14544C29.5537 5.18521 29.5399 5.20941 29.5347 5.23362C29.5276 5.27131 29.523 5.30943 29.5209 5.34773C29.4857 5.82019 29.6281 6.28878 29.9203 6.66175C30.0612 6.87068 30.261 7.03312 30.4943 7.12853C30.7275 7.22393 30.9839 7.24802 31.2308 7.19773C31.2412 7.19773 31.2516 7.19773 31.2706 7.20811C31.2537 7.24715 31.2346 7.28525 31.2135 7.32222C31.1236 7.47783 31.0406 7.63343 30.9369 7.78558C30.9167 7.81409 30.9035 7.84686 30.8981 7.88135C30.8927 7.91584 30.8953 7.95112 30.9058 7.98442C30.9698 8.2161 31.0285 8.44778 31.0925 8.67601C31.1068 8.71225 31.1236 8.74749 31.1427 8.78147C31.753 7.75619 32.3529 6.7482 32.9512 5.73675C33.3298 5.95979 33.7033 6.14652 34.0007 6.45427C33.9713 6.49577 33.9471 6.53208 33.9211 6.56666C33.4082 7.26516 32.8947 7.96252 32.3806 8.65872C32.349 8.69552 32.3268 8.73946 32.316 8.78675C32.3051 8.83404 32.3059 8.88326 32.3184 8.93016C32.346 9.0339 32.3529 9.14456 32.3702 9.25175C32.3944 9.39353 32.4204 9.53358 32.4463 9.67362H32.4809C33.1811 8.73306 33.8641 7.78213 34.5695 6.83984L34.9291 7.10437C35.039 7.16293 35.1413 7.23495 35.2334 7.31876C35.357 7.45337 35.4887 7.58039 35.6276 7.69914C35.9838 8.04493 36.3503 8.36479 36.6961 8.71231C36.952 8.96993 37.2805 9.16358 37.4378 9.51456C37.4754 9.57668 37.5195 9.63464 37.5693 9.68746C37.3341 9.8811 37.1128 10.0747 36.8777 10.2459C36.8911 10.1523 36.9137 10.0602 36.9451 9.97101C36.9571 9.94342 36.9595 9.9126 36.952 9.88347C36.9445 9.85433 36.9275 9.82854 36.9036 9.81021C36.5215 9.45232 36.1428 9.09269 35.7607 8.73652C35.725 8.71182 35.6867 8.69096 35.6466 8.67428C35.6553 8.73825 35.6587 8.77283 35.6639 8.80741C35.6818 8.89236 35.694 8.97843 35.7002 9.06502C35.701 9.19683 35.6596 9.32544 35.5822 9.4321C35.5047 9.53877 35.3953 9.61793 35.2697 9.65806C35.1451 9.69414 35.0119 9.68615 34.8926 9.63544C34.7732 9.58473 34.675 9.4944 34.6144 9.3797C34.5499 9.28558 34.5041 9.17992 34.4796 9.06848C34.4528 8.88062 34.4389 8.69114 34.4381 8.50138C34.4381 8.4132 34.4294 8.33886 34.3119 8.31811C34.1735 8.78703 34.1942 9.28856 34.3707 9.74451C34.4518 9.93619 34.5862 10.1006 34.7579 10.2183C34.849 10.2868 34.9548 10.3331 35.0669 10.3534C35.179 10.3738 35.2943 10.3677 35.4036 10.3357C35.5129 10.3036 35.6133 10.2464 35.6966 10.1687C35.7799 10.091 35.8439 9.99486 35.8835 9.88802C35.9043 9.8396 35.9215 9.78946 35.9492 9.71512L36.6909 10.4067L36.5647 10.5156C36.1964 10.8217 35.8282 11.1294 35.4582 11.4337C35.424 11.4598 35.3961 11.4932 35.3767 11.5315C35.3572 11.5698 35.3466 11.6121 35.3458 11.655C35.3337 11.8884 35.3095 12.1219 35.2922 12.3466C35.2936 12.3797 35.2977 12.4127 35.3043 12.4452L38.0257 10.1802C38.1433 10.3652 38.3317 10.4845 38.3836 10.7076C38.4002 10.7468 38.4256 10.7817 38.4579 10.8096C38.5522 10.8983 38.6401 10.9936 38.7208 11.0948C39.0251 11.5409 39.3138 11.9956 39.6233 12.4383C39.7342 12.6277 39.8329 12.8241 39.9189 13.0261C39.5731 13.199 39.2515 13.3978 38.8988 13.5448L39.0199 13.3442C38.8988 13.1713 38.7813 12.9881 38.6637 12.8117C38.4251 12.4555 38.1865 12.0959 37.9462 11.7397C37.8269 11.5668 37.7231 11.5496 37.5537 11.6792C37.4331 11.7637 37.3433 11.885 37.2978 12.025C37.2412 12.2285 37.1967 12.4352 37.1647 12.644C37.1581 12.7362 37.1754 12.8285 37.2148 12.912C37.2271 12.9447 37.2467 12.9741 37.272 12.9982C37.2973 13.0222 37.3277 13.0402 37.361 13.0509C37.3942 13.0615 37.4295 13.0645 37.464 13.0596C37.4986 13.0547 37.5316 13.0421 37.5606 13.0226C37.6574 12.9725 37.7473 12.9155 37.8528 12.8497C38.0655 13.1644 38.2729 13.4739 38.4839 13.7903L38.3265 13.8802C38.0482 14.0306 37.7715 14.1845 37.4932 14.3298C37.4573 14.3461 37.4255 14.37 37.3998 14.3998C37.3741 14.4297 37.3552 14.4648 37.3445 14.5026C37.2874 14.717 37.2217 14.9314 37.1629 15.1458C37.1529 15.1937 37.1466 15.2422 37.1439 15.2911L40.2561 13.6019C40.3875 13.8508 40.5189 14.0825 40.6313 14.3228C40.6933 14.4729 40.7464 14.6264 40.7903 14.7827L40.0192 15.151C39.4365 15.3913 38.8522 15.6351 38.2678 15.8703C38.217 15.8878 38.1711 15.917 38.1336 15.9554C38.0961 15.9938 38.068 16.0404 38.0516 16.0916C37.9807 16.2921 37.8943 16.4875 37.8165 16.6846C37.8043 16.7267 37.7944 16.7694 37.7871 16.8126L41.0601 15.4605C41.1638 15.7112 41.2589 15.9394 41.354 16.1676Z" fill="black"/>
<path fill-rule="evenodd" clip-rule="evenodd" d="M19.6027 6.49575L19.6286 6.46809L19.5041 6.34361C19.1964 6.05141 18.8869 5.75921 18.5826 5.46356C18.4688 5.35464 18.3689 5.23211 18.2852 5.09874C18.3317 5.08448 18.3764 5.06475 18.4183 5.03996C18.4646 5.00796 18.5182 4.98831 18.5742 4.98286C18.6302 4.97742 18.6866 4.98636 18.7382 5.00884C18.9705 5.07188 19.2147 5.07743 19.4496 5.02502C19.6846 4.97261 19.9033 4.8638 20.0868 4.70799L20.1663 4.64921C20.2009 4.995 20.2372 5.30449 20.2649 5.62262C20.2654 5.67121 20.2772 5.719 20.2994 5.76221C20.3216 5.80543 20.3536 5.84288 20.3928 5.87159C20.5657 6.00473 20.7386 6.14823 20.9201 6.28482C20.9478 6.30557 20.9807 6.32113 21.036 6.35398C20.9115 5.16444 20.7887 4.0043 20.666 2.83725C20.7007 2.8272 20.7359 2.81912 20.7714 2.81304C21.1545 2.76522 21.5405 2.74499 21.9264 2.75253C22.5021 2.75253 23.0796 2.76636 23.6554 2.7629C23.849 2.7629 24.0236 2.82514 24.2242 2.84416C24.1793 3.2643 24.1343 3.66715 24.0928 4.05444L23.4496 4.43136C23.281 4.53231 23.0931 4.59707 22.8981 4.62155C22.7414 4.64961 22.5801 4.63468 22.4313 4.57832C22.3815 4.56212 22.3387 4.52954 22.3098 4.4859C22.2809 4.44226 22.2677 4.39013 22.2722 4.33799C22.2771 4.17325 22.3423 4.01604 22.4554 3.8962C22.5686 3.77636 22.7218 3.70223 22.886 3.6879C23.0875 3.68876 23.287 3.72808 23.4738 3.80374C23.5205 3.82103 23.5655 3.86253 23.6467 3.80374L23.2058 3.3594C23.1969 3.35307 23.187 3.34839 23.1764 3.34556C22.9581 3.2315 22.7138 3.17609 22.4676 3.18477C22.3643 3.18769 22.2632 3.21546 22.1729 3.26572C22.0826 3.31598 22.0058 3.38725 21.9489 3.47351C21.776 3.74841 21.8192 4.24117 22.0284 4.41926C22.1183 4.49533 22.184 4.59215 22.2687 4.68552C22.3972 4.82328 22.552 4.93389 22.7239 5.0108C22.8959 5.08772 23.0815 5.12938 23.2698 5.13332C23.5294 5.14959 23.7871 5.07969 24.0029 4.93449C24.0029 5.01921 23.9891 5.078 23.9822 5.13678C23.9666 5.2872 23.9528 5.43935 23.932 5.58977C23.9255 5.6299 23.9281 5.67099 23.9398 5.70993C23.9515 5.74887 23.9719 5.78464 23.9994 5.81454C24.136 5.97015 24.264 6.13267 24.3954 6.29346C24.43 6.33323 24.4663 6.37127 24.5302 6.44043C24.6599 5.24398 24.7809 4.08557 24.9089 2.90986C25.33 2.93098 25.7472 3.00119 26.152 3.11907C26.152 3.15883 26.152 3.1865 26.152 3.21243C26.0621 3.64468 25.9705 4.07692 25.8806 4.50743C25.7907 4.93795 25.7077 5.37192 25.6091 5.80071C25.5962 5.84728 25.5944 5.89621 25.6037 5.94362C25.613 5.99104 25.6332 6.03564 25.6627 6.07388C25.7907 6.24678 25.9065 6.43524 26.0293 6.61505C26.0581 6.64887 26.0887 6.68119 26.1209 6.71188C26.3647 5.54482 26.6033 4.4037 26.8436 3.25393L27.5836 3.39743C27.484 3.20806 27.3738 3.0245 27.2534 2.84762C27.2297 2.80823 27.1976 2.7746 27.1593 2.74918C27.121 2.72376 27.0775 2.70719 27.0321 2.70066C26.8401 2.66435 26.65 2.61421 26.4563 2.58482C26.031 2.51911 25.6212 2.36005 25.1821 2.36351C24.9649 2.35216 24.7485 2.32966 24.5337 2.29608C24.0028 2.22077 23.4672 2.18321 22.9309 2.18369C22.4122 2.20444 21.8935 2.18369 21.3749 2.18369C21.201 2.19208 21.0278 2.21055 20.8562 2.23902C20.781 2.2621 20.7008 2.26278 20.6252 2.24098C20.5497 2.21917 20.4821 2.17584 20.4308 2.11626C20.3381 2.0097 20.2363 1.91136 20.1265 1.82234C19.862 1.5872 19.6078 1.34341 19.3243 1.13075C19.1706 1.01858 19.001 0.930004 18.8212 0.867945C18.7007 0.821678 18.5721 0.800277 18.4431 0.805031C18.3142 0.809786 18.1875 0.840597 18.0708 0.895608C18.1763 1.00972 18.2765 1.11 18.3664 1.2172C18.4563 1.32439 18.5221 1.37453 18.6569 1.32094C18.7093 1.30459 18.7654 1.30459 18.8177 1.32094C18.95 1.3517 19.0795 1.39334 19.205 1.44542C19.6121 1.64411 19.9759 1.92147 20.2752 2.2615C20.2752 2.2615 20.2752 2.28052 20.2752 2.29608C20.1369 2.31164 19.9951 2.32374 19.8568 2.34276C19.5231 2.38598 19.186 2.41538 18.8575 2.48108C18.2662 2.59865 17.6783 2.74042 17.0887 2.87183L16.5303 3.00323C16.5493 3.03262 16.5545 3.04991 16.5649 3.05683C16.7377 3.1744 16.9106 3.29542 17.0835 3.40262C17.138 3.4261 17.1986 3.43156 17.2564 3.41818C17.3636 3.40262 17.4691 3.36977 17.5746 3.34729L18.0276 3.24874C18.182 3.45998 18.2808 3.70676 18.3146 3.96627C18.3369 4.0857 18.3138 4.20916 18.2498 4.31246C18.1859 4.41576 18.0856 4.49146 17.9688 4.52472C17.9152 4.45038 17.865 4.3743 17.808 4.30169C17.7895 4.2728 17.7639 4.24918 17.7336 4.23313C17.7033 4.21707 17.6694 4.20912 17.6351 4.21005C17.594 4.21242 17.5541 4.22459 17.5187 4.24555C17.4833 4.2665 17.4534 4.29564 17.4316 4.33051C17.4097 4.36539 17.3965 4.40499 17.3932 4.446C17.3898 4.487 17.3962 4.52823 17.412 4.56622C17.4323 4.62808 17.462 4.6864 17.5002 4.73912C17.597 4.8636 17.6973 4.98636 17.8045 5.1022C18.3245 5.61822 18.905 6.06931 19.5335 6.44561C19.5335 6.46463 19.5698 6.47846 19.6027 6.49575Z" fill="black"/>
<path fill-rule="evenodd" clip-rule="evenodd" d="M38.7796 27.5287C38.7156 27.6705 38.6672 27.7967 38.6067 27.9178C38.5971 27.9324 38.5905 27.9487 38.5873 27.9659C38.5841 27.9831 38.5844 28.0007 38.5881 28.0177C38.5918 28.0348 38.5989 28.051 38.6089 28.0653C38.6189 28.0796 38.6317 28.0917 38.6464 28.101C38.8003 28.2394 38.9438 28.388 39.096 28.5281L40.4791 29.7851C40.5081 29.8055 40.5394 29.8224 40.5725 29.8352C40.0988 29.8162 39.6544 29.773 39.2101 29.7366C38.7657 29.7003 38.3231 29.6709 37.8736 29.6381C37.8321 29.7297 37.7958 29.811 37.7612 29.8871C37.7266 29.9631 37.6955 30.0444 37.6592 30.1343L40.4947 31.6057C40.5535 31.4708 40.6019 31.355 40.6572 31.2288L38.3041 30.0444L41.0411 30.2934C41.0895 30.1827 41.131 30.0894 41.1759 29.9839C40.4999 29.3511 39.829 28.7235 39.1409 28.082L41.6237 29.0087L41.7966 28.6215L38.7796 27.5287Z" fill="black"/>
<path fill-rule="evenodd" clip-rule="evenodd" d="M6.25553 25.2759L3.17969 26.0954C3.19163 26.2332 3.23102 26.3673 3.29553 26.4896L5.75067 25.817L4.47988 27.1466C4.23955 27.3991 4.00268 27.6653 3.76581 27.9108C3.72604 27.9541 3.67072 27.9921 3.68973 28.0647C3.72086 28.1771 3.75371 28.2912 3.79002 28.4192C4.30871 28.2808 4.8274 28.1494 5.33226 28.0111C5.83712 27.8728 6.35927 27.75 6.88834 27.5892C6.82264 27.4578 6.8382 27.323 6.7431 27.2089L4.35366 27.8711C4.69946 27.5253 5.04525 27.1535 5.40142 26.7818C5.70053 26.4654 5.99446 26.1438 6.28838 25.8222C6.32642 25.7807 6.3852 25.7462 6.36619 25.6718C6.33334 25.5473 6.29357 25.4228 6.25553 25.2759Z" fill="black"/>
<path fill-rule="evenodd" clip-rule="evenodd" d="M11.048 37.5326C11.0861 37.3476 11.1276 37.1868 11.1535 37.0139C11.214 36.611 11.2676 36.2064 11.3264 35.8036C11.3765 35.4318 11.4284 35.0601 11.4751 34.6884C11.4825 34.636 11.4695 34.5827 11.4388 34.5397C11.3412 34.4476 11.2391 34.3605 11.1327 34.2786L9.09082 36.7338L9.40549 36.9948C9.95877 36.3188 10.5051 35.6549 11.0619 34.9771C11.0204 35.1846 10.9771 35.3696 10.9495 35.5581C10.8803 35.9972 10.8181 36.4398 10.7558 36.8807C10.7109 37.1989 10.6676 37.517 10.6261 37.8351C10.6261 37.9026 10.5864 37.9769 10.6538 38.0357C10.7212 38.0945 10.8267 38.1861 10.9374 38.2691C11.629 37.4461 12.2963 36.6352 12.9793 35.8174L12.6629 35.5529C12.12 36.2185 11.5909 36.8669 11.048 37.5326Z" fill="black"/>
<path fill-rule="evenodd" clip-rule="evenodd" d="M8.76582 35.814C8.85274 35.8079 8.93929 35.7976 9.02517 35.7828C9.31048 35.7185 9.57881 35.5941 9.81225 35.4179C10.0457 35.2417 10.2389 35.0178 10.379 34.761C10.4914 34.5672 10.5543 34.3487 10.5622 34.1248C10.5653 33.9115 10.5207 33.7002 10.4316 33.5064C10.3424 33.3127 10.2111 33.1413 10.0471 33.0048C9.88317 32.8684 9.69078 32.7704 9.48403 32.718C9.27728 32.6655 9.06142 32.66 8.85227 32.7018C8.5417 32.7595 8.25066 32.8945 8.00592 33.0942C7.76118 33.2939 7.57063 33.552 7.4518 33.8447C6.99535 34.8941 7.93245 35.8433 8.76582 35.814Z" fill="black"/>
<path fill-rule="evenodd" clip-rule="evenodd" d="M36.1686 32.3526L37.1818 33.2084C36.855 33.5991 36.5334 33.9795 36.2066 34.3685L35.1866 33.5162C35.0881 33.6211 35.0022 33.7371 34.9307 33.8619L37.3512 35.9004L37.6279 35.5702L36.4919 34.6106L37.4671 33.4504L38.6082 34.4031L38.7465 34.2406L38.8814 34.0677L36.4401 32.0189L36.1686 32.3526Z" fill="black"/>
<path fill-rule="evenodd" clip-rule="evenodd" d="M21.6295 38.9659C21.6139 40.024 21.5983 41.0614 21.5811 42.1022C21.7217 42.1273 21.8657 42.1273 22.0064 42.1022C22.0219 41.6492 22.0064 41.2049 22.0444 40.7623C22.1948 40.7623 22.3297 40.7623 22.4646 40.7623C22.5888 40.765 22.7082 40.8106 22.8027 40.8912C22.8972 40.9719 22.961 41.0827 22.9833 41.2049C22.9971 41.2516 23.0092 41.3 23.0196 41.3467C23.0628 41.5334 23.1026 41.7184 23.1492 41.9034C23.17 41.9847 23.2046 42.0642 23.2322 42.1403H23.6472C23.6447 42.1112 23.6407 42.0824 23.6351 42.0538C23.5746 41.8118 23.5071 41.5697 23.4535 41.3259C23.3896 41.0389 23.2979 40.7726 23.004 40.6118C23.0593 40.5842 23.0991 40.5669 23.1354 40.5461C23.2948 40.4653 23.4243 40.3357 23.5048 40.1761C23.5854 40.0166 23.6128 39.8354 23.5832 39.6592C23.5653 39.4983 23.4975 39.3471 23.3893 39.2268C23.281 39.1065 23.1378 39.0231 22.9798 38.9883C22.8376 38.9517 22.6923 38.928 22.5458 38.9175C22.2395 38.8961 21.9318 38.9123 21.6295 38.9659Z" fill="black"/>
<path fill-rule="evenodd" clip-rule="evenodd" d="M4.99706 31.3186L7.49197 29.0502C7.44874 28.9482 7.41416 28.8617 7.37612 28.777C7.28276 28.5678 7.32426 28.5817 7.07701 28.6041C6.73122 28.6301 6.38542 28.6646 6.03963 28.694L4.23285 28.8358C4.14121 28.8358 4.05131 28.86 3.94238 28.8756C3.98042 28.9689 4.01327 29.0485 4.04785 29.1263C4.11355 29.2767 4.11355 29.2767 4.27953 29.2594L4.79822 29.2075C4.91752 29.1972 5.03509 29.1902 5.15958 29.1816L5.59355 30.1931L4.81551 30.9071C4.8743 31.0403 4.92963 31.163 4.99706 31.3186Z" fill="black"/>
<path fill-rule="evenodd" clip-rule="evenodd" d="M11.3037 38.5492L11.6824 38.774L12.4829 38.0945L13.4321 38.6651C13.356 39.0108 13.2851 39.3566 13.2142 39.6782C13.326 39.7812 13.4605 39.8564 13.6067 39.8978C13.8436 38.8103 14.0804 37.7245 14.319 36.6335L13.8816 36.3724L11.3037 38.5492Z" fill="black"/>
<path fill-rule="evenodd" clip-rule="evenodd" d="M36.5898 31.7837C36.9097 32.024 39.1729 33.4349 39.3009 33.4712C39.6121 32.9784 39.9233 32.4822 40.2466 31.9722L39.9406 31.7837L39.2058 32.9404L38.2548 32.3404C38.4727 31.9947 38.6871 31.6489 38.9084 31.3031L38.6093 31.1163C38.3845 31.4621 38.1701 31.8079 37.9488 32.1537L37.1172 31.635C37.3523 31.2598 37.5788 30.9019 37.8088 30.5302L37.5045 30.34L36.5898 31.7837Z" fill="black"/>
<path fill-rule="evenodd" clip-rule="evenodd" d="M40.6032 27.2158C40.7069 26.8129 40.8089 26.4256 40.9127 26.0262L40.579 25.9363C40.4476 26.3357 40.3732 26.7351 40.247 27.1224C39.922 27.0325 39.609 26.9651 39.3047 26.8648C39.4171 26.4377 39.5226 26.0297 39.6332 25.6113L39.2874 25.5197L38.8379 27.195L41.9258 28.0094L42.3857 26.2683L42.04 26.1767C41.9207 26.6245 41.8048 27.0567 41.6838 27.5045L40.6032 27.2158Z" fill="black"/>
<path fill-rule="evenodd" clip-rule="evenodd" d="M30.7117 36.9827L29.1436 37.7124C29.5965 38.6858 30.0392 39.6402 30.4904 40.6084L32.1243 39.8476L31.9687 39.5243L30.7238 40.0983C30.5648 39.7525 30.4092 39.4189 30.2518 39.0782L31.367 38.5596L31.2183 38.2397L30.0997 38.7584L29.6865 37.868L30.8673 37.3147C30.812 37.1919 30.7653 37.0968 30.7117 36.9827Z" fill="black"/>
<path fill-rule="evenodd" clip-rule="evenodd" d="M21.1301 40.5825C21.1456 40.4545 21.1577 40.3542 21.1715 40.2367L19.9613 40.0638C20.0062 39.7405 20.0494 39.4292 20.0944 39.0956L21.379 39.2685C21.4158 39.1529 21.4264 39.0307 21.4101 38.9106L19.7158 38.665C19.5688 39.7301 19.4253 40.7709 19.2783 41.8273L21.0471 42.0728C21.0957 41.9608 21.1095 41.8367 21.0868 41.7167L19.7642 41.5282C19.786 41.1535 19.8439 40.7818 19.9371 40.4182L21.1301 40.5825Z" fill="black"/>
<path fill-rule="evenodd" clip-rule="evenodd" d="M23.4775 38.9763L24.8901 42.0228L25.3275 41.9709C25.4019 41.8153 26.0848 38.8034 26.0745 38.6703C25.9724 38.6807 25.8722 38.6962 25.7702 38.6997C25.7526 38.6983 25.735 38.7004 25.7183 38.7059C25.7016 38.7115 25.6861 38.7203 25.6729 38.7319C25.6597 38.7435 25.6489 38.7577 25.6413 38.7735C25.6336 38.7894 25.6293 38.8066 25.6284 38.8242C25.4762 39.5642 25.3206 40.3024 25.1667 41.0424C25.1374 41.1877 25.1149 41.3312 25.0855 41.4885L23.9409 38.921L23.4775 38.9763Z" fill="black"/>
<path fill-rule="evenodd" clip-rule="evenodd" d="M5.53799 20.7373C5.3236 20.7477 5.12304 20.8497 4.88963 20.8047C4.84813 20.6768 4.80664 20.5419 4.75823 20.4105C4.72423 20.2653 4.67256 20.1248 4.60435 19.9921C4.50061 20.3518 4.40724 20.6837 4.31215 21.0122L3.30762 21.1142V21.1523L3.99056 21.524C4.00442 21.5854 4.00559 21.6489 3.994 21.7108C3.9824 21.7726 3.95829 21.8314 3.92313 21.8836C3.90227 21.9216 3.8938 21.9651 3.89893 22.0081C3.90516 22.1166 3.88375 22.2249 3.83668 22.3228C3.77444 22.4438 3.8021 22.5545 3.88509 22.5977C3.96809 22.6409 4.05799 22.5821 4.1358 22.4715C4.17774 22.3961 4.2321 22.3283 4.29659 22.2709C4.42281 22.1706 4.56285 22.098 4.69425 22.0029C4.81182 22.0652 4.92939 22.1032 4.94668 22.2502C4.94668 22.2796 5.00374 22.3072 5.03832 22.3314C5.0729 22.3556 5.16281 22.3833 5.19911 22.43C5.23294 22.4686 5.2762 22.4979 5.32468 22.5148C5.37316 22.5318 5.4252 22.5359 5.47575 22.5268C5.50828 22.5319 5.54157 22.5257 5.57016 22.5094C5.59875 22.4931 5.62094 22.4675 5.63309 22.4369C5.65902 22.3625 5.60715 22.3262 5.55701 22.2761C5.48291 22.192 5.41529 22.1024 5.35472 22.0081C5.39968 21.8733 5.28556 21.8162 5.22159 21.7349C5.20027 21.6984 5.18734 21.6575 5.18376 21.6154C5.18017 21.5732 5.186 21.5308 5.20084 21.4911C5.28954 21.3503 5.40115 21.2252 5.53108 21.1211C5.63088 21.0544 5.72565 20.9804 5.81463 20.8998C5.8459 20.8699 5.87534 20.8382 5.90281 20.8047H5.56393L5.53799 20.7373Z" fill="black"/>
<path fill-rule="evenodd" clip-rule="evenodd" d="M41.9999 20.9552L41.9826 20.9137H41.7077C41.6472 20.803 41.5573 20.8739 41.483 20.8825C41.3329 20.9244 41.1768 20.9407 41.0213 20.9309C40.9764 20.8013 40.9314 20.6681 40.8865 20.535C40.8524 20.388 40.7977 20.2465 40.7239 20.1149C40.6219 20.4728 40.5268 20.8065 40.4352 21.1246C40.0894 21.1765 39.7574 21.1799 39.4307 21.2352C39.4307 21.2473 39.4307 21.2594 39.4307 21.2716L40.1223 21.6433C40.1102 21.7678 40.1516 21.8905 40.0496 21.9891C40.0314 22.0159 40.0234 22.0485 40.0272 22.0807C40.0381 22.2114 40.0124 22.3425 39.9528 22.4594C39.9395 22.4802 39.9306 22.5035 39.9267 22.5278C39.9227 22.5522 39.9237 22.5771 39.9297 22.6011C39.9357 22.625 39.9465 22.6475 39.9615 22.6671C39.9765 22.6868 39.9953 22.7031 40.0168 22.7152C40.0622 22.7255 40.1098 22.7201 40.1518 22.7001C40.1938 22.68 40.2279 22.6464 40.2485 22.6046C40.2606 22.5873 40.2658 22.5631 40.2779 22.5475C40.3096 22.4971 40.3473 22.4506 40.3902 22.4092C40.5226 22.2869 40.6769 22.1907 40.845 22.1257C40.9055 22.162 41.0075 22.1896 41.0179 22.2363C41.0507 22.3937 41.1666 22.4473 41.2859 22.5078C41.301 22.5139 41.3141 22.5241 41.3239 22.5372C41.3569 22.5804 41.4018 22.613 41.4531 22.6311C41.5044 22.6492 41.5598 22.652 41.6126 22.6392C41.6818 22.6392 41.7458 22.615 41.7631 22.5389C41.7803 22.4628 41.7267 22.4369 41.6852 22.3919C41.6092 22.3107 41.5124 22.219 41.4916 22.1257C41.4745 22.0202 41.4228 21.9235 41.3446 21.8508C41.3233 21.8112 41.3113 21.7672 41.3095 21.7223C41.3077 21.6773 41.3162 21.6326 41.3343 21.5914C41.4325 21.4307 41.564 21.2927 41.7198 21.1868C41.8115 21.1142 41.9048 21.0295 41.9999 20.9552Z" fill="black"/>
<path fill-rule="evenodd" clip-rule="evenodd" d="M33.0593 35.603C32.7346 35.6469 32.4321 35.7921 32.1948 36.018C32.0703 36.1318 31.9763 36.2751 31.9216 36.4347C31.8802 36.546 31.864 36.665 31.874 36.7833C31.884 36.9016 31.92 37.0162 31.9795 37.119C32.0389 37.2218 32.1204 37.3101 32.218 37.3777C32.3156 37.4453 32.4269 37.4905 32.544 37.5101C32.7661 37.5337 32.9905 37.5161 33.2062 37.4582C33.3611 37.4302 33.5176 37.4117 33.6748 37.4029C33.7461 37.4022 33.8165 37.419 33.8798 37.4519C33.9431 37.4847 33.9974 37.5326 34.0379 37.5913C34.1242 37.6922 34.1676 37.8228 34.1589 37.9553C34.1502 38.0878 34.09 38.2116 33.9912 38.3002C33.7877 38.5013 33.5243 38.6306 33.2408 38.6685L33.1042 38.6979L33.2114 39.0437C33.2635 39.0424 33.3155 39.0377 33.367 39.0299C33.7177 38.9558 34.0367 38.7745 34.2799 38.5112C34.3618 38.4233 34.43 38.3237 34.4822 38.2155C34.5381 38.0943 34.5657 37.9619 34.5629 37.8284C34.5601 37.6949 34.5269 37.5638 34.466 37.445C34.405 37.3263 34.3178 37.2229 34.211 37.1428C34.1041 37.0627 33.9805 37.008 33.8494 36.9828C33.6213 36.9718 33.3927 36.9915 33.1699 37.0415C33.0148 37.0673 32.8584 37.0847 32.7014 37.0934C32.6408 37.0947 32.5808 37.0817 32.5261 37.0556C32.4715 37.0295 32.4237 36.9909 32.3867 36.943C32.3133 36.8606 32.2727 36.7542 32.2727 36.6439C32.2727 36.5336 32.3133 36.4271 32.3867 36.3448C32.5374 36.171 32.7398 36.0498 32.9642 35.999L33.1561 35.9471C33.1215 35.8261 33.0938 35.7258 33.0593 35.603Z" fill="black"/>
<path fill-rule="evenodd" clip-rule="evenodd" d="M19.3871 38.7273C19.375 38.7092 19.3617 38.6919 19.3473 38.6755C19.1937 38.5481 19.0158 38.4534 18.8243 38.3972C18.6329 38.341 18.4319 38.3245 18.2339 38.3487C18.0792 38.3609 17.9314 38.418 17.8085 38.5128C17.6857 38.6077 17.5932 38.7363 17.5423 38.8829C17.483 39.0247 17.4677 39.181 17.4986 39.3315C17.5294 39.482 17.6049 39.6197 17.7152 39.7267C17.837 39.8431 17.9645 39.9533 18.0973 40.0569C18.2112 40.1486 18.3191 40.2473 18.4206 40.3526C18.4852 40.4277 18.5253 40.5208 18.5355 40.6194C18.5457 40.718 18.5255 40.8173 18.4777 40.9041C18.4395 40.9924 18.3754 41.0669 18.2939 41.1179C18.2124 41.1688 18.1173 41.1938 18.0212 41.1894C17.7238 41.1867 17.4368 41.0796 17.2103 40.8868L17.0772 40.7848L16.9043 41.077C16.9181 41.1029 16.9216 41.1133 16.9268 41.122C16.9329 41.1312 16.9404 41.1394 16.9493 41.1462C17.1145 41.2897 17.3065 41.399 17.5142 41.4678C17.722 41.5367 17.9413 41.5637 18.1595 41.5473C18.3285 41.537 18.491 41.4782 18.6274 41.3779C18.7638 41.2776 18.8684 41.1401 18.9286 40.9819C18.9888 40.8237 19.0021 40.6514 18.9669 40.4858C18.9317 40.3202 18.8495 40.1683 18.7301 40.0483C18.6955 40.0137 18.6609 39.9774 18.6229 39.9463C18.5209 39.865 18.4137 39.7906 18.3151 39.7042C18.2116 39.6168 18.1145 39.522 18.0247 39.4206C17.9875 39.3771 17.9606 39.3257 17.9463 39.2703C17.9319 39.2149 17.9303 39.1569 17.9417 39.1008C17.9482 39.04 17.967 38.9811 17.9969 38.9277C18.0268 38.8744 18.0672 38.8276 18.1157 38.7903C18.1642 38.753 18.2197 38.7258 18.2789 38.7106C18.3382 38.6953 18.3999 38.6922 18.4604 38.7014C18.6789 38.7153 18.8889 38.7915 19.0655 38.921L19.2073 39.0178L19.3871 38.7273Z" fill="black"/>
<path fill-rule="evenodd" clip-rule="evenodd" d="M34.9586 33.9484C34.933 33.9504 34.9075 33.9544 34.8825 33.9605C34.8414 33.9751 34.801 33.9919 34.7615 34.0107C34.4066 34.1845 34.1098 34.4579 33.9074 34.7974C33.7833 35.0009 33.7103 35.2314 33.6946 35.4692C33.6789 35.7071 33.7211 35.9452 33.8175 36.1632C33.972 36.5335 34.2379 36.8465 34.5782 37.0589C34.7491 37.1782 34.9454 37.2559 35.1517 37.2859C35.3579 37.316 35.5683 37.2974 35.766 37.2317C36.2532 37.0569 36.6593 36.7093 36.9072 36.2549C36.9173 36.2289 36.9231 36.2015 36.9244 36.1736C36.8778 36.1408 36.8345 36.1079 36.7896 36.0785C36.7446 36.0491 36.6997 36.0249 36.6513 35.9955C36.6202 36.0474 36.6011 36.0854 36.5769 36.1217C36.4032 36.4146 36.1436 36.6469 35.8335 36.7874C35.7063 36.8447 35.5684 36.8743 35.4289 36.8743C35.2894 36.8743 35.1515 36.8447 35.0243 36.7874C34.8346 36.7054 34.6629 36.5869 34.519 36.4386C34.3752 36.2902 34.2619 36.115 34.1858 35.9229C34.1062 35.7416 34.0791 35.5417 34.1075 35.3458C34.1359 35.1498 34.2188 34.9658 34.3466 34.8146C34.5103 34.6019 34.7257 34.4346 34.9724 34.3288C35.0139 34.3098 35.0554 34.2856 35.1056 34.2596C35.0537 34.1403 35.0053 34.0452 34.9586 33.9484Z" fill="black"/>
<path fill-rule="evenodd" clip-rule="evenodd" d="M29.0934 37.8697C29.0714 37.8623 29.0488 37.8565 29.0259 37.8524C28.9879 37.8498 28.9498 37.8498 28.9118 37.8524C28.4953 37.8609 28.0917 37.9986 27.7569 38.2466C27.5965 38.3612 27.4616 38.5078 27.3608 38.6771C27.2599 38.8464 27.1952 39.0348 27.1708 39.2304C27.1023 39.7189 27.2263 40.2148 27.5166 40.6136C27.6412 40.7969 27.8091 40.9466 28.0054 41.0494C28.2018 41.1523 28.4205 41.2051 28.6421 41.2032C29.0974 41.1995 29.54 41.0531 29.9077 40.7847C29.9407 40.764 29.9748 40.7449 30.0097 40.7277C29.9285 40.6032 29.8697 40.515 29.8057 40.4199C29.598 40.5882 29.3561 40.7092 29.0968 40.7744C28.8468 40.8517 28.5773 40.8365 28.3375 40.7314C28.0978 40.6263 27.904 40.4384 27.7915 40.2021C27.636 39.9192 27.5663 39.5972 27.5909 39.2753C27.6041 39.0392 27.701 38.8155 27.8641 38.6443C28.1184 38.3848 28.4624 38.2326 28.8254 38.2189C28.9101 38.2189 28.9983 38.2189 29.0899 38.2189C29.0899 38.1429 29.0899 38.0893 29.0899 38.046C29.0899 38.0028 29.0968 37.9302 29.0934 37.8697Z" fill="black"/>
<path fill-rule="evenodd" clip-rule="evenodd" d="M8.83138 31.533L7.64876 29.4773L7.33409 29.6623L7.80956 30.4991L5.36133 31.9082L5.57918 32.28L8.02568 30.8847L8.51325 31.7198L8.83138 31.533Z" fill="black"/>
<path fill-rule="evenodd" clip-rule="evenodd" d="M15.7923 40.5012L14.5543 39.9496C14.9381 39.0765 15.3151 38.2207 15.6954 37.3562L15.303 37.1833L14.0166 40.1053C14.5733 40.3473 15.1041 40.5911 15.6488 40.8211L15.7923 40.5012Z" fill="black"/>
<path fill-rule="evenodd" clip-rule="evenodd" d="M6.51962 33.7375L9.14421 31.922L8.89523 31.5762L6.2793 33.3847L6.51962 33.7375Z" fill="black"/>
<path fill-rule="evenodd" clip-rule="evenodd" d="M26.123 38.6045C26.3495 39.6591 26.5691 40.6792 26.8008 41.727L27.214 41.6336C26.9893 40.5963 26.768 39.5589 26.5415 38.5215L26.123 38.6045Z" fill="black"/>
<path fill-rule="evenodd" clip-rule="evenodd" d="M36.9552 22.8743C36.9085 25.9865 35.7795 29.1384 33.473 31.8356C31.4491 34.2265 28.691 35.8807 25.6287 36.5401C25.0927 36.6612 24.5446 36.7234 24.0017 36.8081C23.9211 36.8208 23.8394 36.8249 23.7579 36.8202C23.6491 36.8091 23.5396 36.8327 23.445 36.8876C23.401 36.9093 23.3521 36.9189 23.3032 36.9153C23.0041 36.9153 22.7033 36.924 22.4059 36.9153C22.1621 36.9153 21.9183 36.8773 21.6762 36.8565C21.4342 36.8358 21.1576 36.8185 20.8948 36.7908C19.8058 36.6746 18.7344 36.4297 17.7031 36.0612C15.9908 35.4583 14.4071 34.5386 13.0348 33.3502C12.8467 33.188 12.6683 33.0148 12.5006 32.8315C12.3899 32.7104 12.2568 32.6102 12.1548 32.4857C11.8937 32.1866 11.605 31.9117 11.3543 31.6056C9.78816 29.7004 8.7363 27.4257 8.29902 24.9985C7.86174 22.5713 8.05363 20.0726 8.85639 17.7406C9.65914 15.4086 11.046 13.3212 12.8846 11.6774C14.7233 10.0337 16.9524 8.88845 19.3594 8.35094C20.0008 8.20303 20.653 8.10648 21.3097 8.0622C21.6469 8.03972 21.984 8.02416 22.3212 8.00687C22.5857 7.99477 22.8537 7.99822 23.1165 7.97229C23.2609 7.98071 23.4041 8.00447 23.5435 8.04318C23.9706 8.09159 24.408 8.13308 24.823 8.19879C27.5836 8.64082 30.1547 9.88068 32.2195 11.7657C32.3821 11.9144 32.5342 12.0786 32.6812 12.2394C32.8382 12.4128 33.0119 12.5704 33.1999 12.7097C33.3749 12.8316 33.5236 12.9874 33.6373 13.1679C33.9347 13.6641 34.3289 14.0911 34.6297 14.5822C34.9306 15.0732 35.2228 15.559 35.4752 16.0743C36.0711 17.287 36.4942 18.5773 36.7322 19.9074C36.8966 20.8875 36.9712 21.8806 36.9552 22.8743ZM13.2233 31.2183C13.2734 31.1734 13.3132 31.1371 13.3512 31.099L15.4519 29.064C16.4156 28.1304 17.3792 27.1985 18.3428 26.2683C18.3851 26.2314 18.4187 26.1856 18.4411 26.1342C18.4635 26.0828 18.4742 26.027 18.4725 25.9709C18.4729 25.8125 18.5057 25.6558 18.5689 25.5105C18.632 25.3652 18.7243 25.2343 18.8399 25.126C18.9555 25.0176 19.0921 24.9341 19.2412 24.8805C19.3903 24.8269 19.5488 24.8043 19.7069 24.8142C19.7467 24.8189 19.787 24.8142 19.8245 24.8003C19.8621 24.7865 19.8958 24.764 19.9231 24.7347C20.3985 24.2696 20.8775 23.808 21.3547 23.3515C21.3808 23.3207 21.4051 23.2884 21.4273 23.2547C21.3685 23.2547 21.3305 23.2547 21.2941 23.2547C20.6026 23.2547 19.9213 23.2547 19.2349 23.2547C19.187 23.2535 19.1393 23.2626 19.0952 23.2814C19.051 23.3002 19.0114 23.3282 18.979 23.3636C18.871 23.4758 18.7414 23.565 18.5981 23.6259C18.4547 23.6869 18.3006 23.7183 18.1448 23.7183C17.9891 23.7183 17.8349 23.6869 17.6916 23.6259C17.5482 23.565 17.4187 23.4758 17.3106 23.3636C17.2784 23.3282 17.2388 23.3004 17.1945 23.2821C17.1502 23.2639 17.1025 23.2557 17.0547 23.2581C15.6542 23.2581 14.2543 23.2581 12.855 23.2581C11.8678 23.2581 10.8823 23.2478 9.89675 23.2443C9.86462 23.2478 9.83318 23.256 9.80338 23.2685C9.97904 26.2414 11.1888 29.0591 13.2233 31.2339V31.2183ZM9.80165 21.8162C9.83949 21.8216 9.87758 21.8251 9.91577 21.8266C10.367 21.8266 10.82 21.8179 11.273 21.8179H17.053C17.0983 21.8198 17.1436 21.8117 17.1854 21.794C17.2273 21.7764 17.2647 21.7497 17.295 21.7159C17.4037 21.6022 17.5342 21.5118 17.6788 21.45C17.8234 21.3882 17.9789 21.3563 18.1362 21.3563C18.2934 21.3563 18.449 21.3882 18.5936 21.45C18.7381 21.5118 18.8687 21.6022 18.9773 21.7159C19.0117 21.7531 19.0538 21.7823 19.1007 21.8014C19.1476 21.8205 19.1982 21.8291 19.2488 21.8266C19.7951 21.8266 20.3398 21.8266 20.8844 21.8266C20.9259 21.8266 20.9674 21.8266 21.0279 21.8162C21.0125 21.789 20.9951 21.763 20.976 21.7384C20.5178 21.2646 20.0597 20.7892 19.5928 20.3189C19.5488 20.2801 19.4938 20.256 19.4355 20.2497C19.158 20.2277 18.8976 20.1069 18.7015 19.9093C18.5055 19.7116 18.3868 19.4503 18.367 19.1726C18.3602 19.0813 18.3209 18.9954 18.2563 18.9305C17.4333 18.0833 16.6109 17.2344 15.7891 16.3837C14.9938 15.5608 14.2036 14.7343 13.4083 13.9096C13.3564 13.856 13.2959 13.8128 13.2354 13.754C12.0686 14.995 11.1631 16.4578 10.5728 18.0557C10.1222 19.2616 9.86205 20.5303 9.80165 21.8162ZM23.6334 21.1246C23.6784 21.0917 23.7061 21.0779 23.7285 21.0572C24.1746 20.6249 24.6213 20.1933 25.0685 19.7622C25.0908 19.7399 25.1074 19.7125 25.1167 19.6824C25.1261 19.6522 25.1279 19.6203 25.1221 19.5893C25.1085 19.4486 25.1131 19.3068 25.1359 19.1674C25.1954 18.873 25.3675 18.6134 25.6155 18.4438C25.8635 18.2743 26.1678 18.2082 26.4638 18.2597C26.5026 18.2695 26.5434 18.2689 26.5819 18.258C26.6204 18.2471 26.6554 18.2262 26.6834 18.1974C27.0845 17.805 27.4925 17.4194 27.8936 17.0287L31.3792 13.6502C31.445 13.5863 31.5072 13.5206 31.5781 13.448C31.545 13.408 31.5098 13.3699 31.4726 13.3338C31.1545 13.052 30.8467 12.7581 30.5148 12.4936C29.1101 11.3706 27.4821 10.5601 25.7393 10.1162C25.1069 9.94749 24.4615 9.83182 23.8098 9.77042C23.7545 9.77042 23.6957 9.77042 23.6231 9.77042V10.3583C23.6231 12.433 23.6231 14.5078 23.6231 16.5826C23.6197 16.6438 23.63 16.7049 23.653 16.7617C23.676 16.8185 23.7112 16.8695 23.7562 16.9111C23.9706 17.1295 24.0899 17.4238 24.0883 17.7298C24.0867 18.0358 23.9642 18.3288 23.7476 18.545C23.7046 18.5849 23.6711 18.6338 23.6492 18.6882C23.6274 18.7426 23.6179 18.8011 23.6213 18.8596C23.6213 19.5512 23.6213 20.2428 23.6213 20.9344C23.6231 20.9915 23.6231 21.0433 23.6231 21.1177L23.6334 21.1246ZM22.188 20.9102C22.1939 20.8764 22.198 20.8424 22.2001 20.8082C22.2001 20.1322 22.2001 19.4561 22.2001 18.7818C22.2002 18.7441 22.1918 18.7069 22.1757 18.6728C22.1595 18.6387 22.136 18.6086 22.1068 18.5847C21.9911 18.4764 21.8988 18.3457 21.8355 18.2005C21.7721 18.0553 21.739 17.8987 21.7382 17.7403C21.7374 17.5818 21.7689 17.4249 21.8308 17.2791C21.8926 17.1332 21.9836 17.0016 22.0981 16.8921C22.1317 16.8616 22.1583 16.8241 22.1759 16.7823C22.1935 16.7405 22.2018 16.6954 22.2001 16.65C22.2001 15.9584 22.2001 15.2547 22.2001 14.558V9.92603C22.2001 9.86206 22.2001 9.79982 22.2001 9.7151C19.2904 9.79719 16.4959 10.8708 14.2797 12.7581C14.4301 12.9172 14.5684 13.0624 14.7085 13.2059C15.3079 13.8214 15.9084 14.4375 16.5101 15.0542C17.4034 15.9763 18.2967 16.8984 19.19 17.8205C19.2179 17.8529 19.2538 17.8775 19.2942 17.8917C19.3345 17.906 19.3778 17.9095 19.4199 17.9018C19.7042 17.8643 19.992 17.9373 20.2239 18.1058C20.4011 18.226 20.5409 18.3938 20.6271 18.5898C20.7133 18.7858 20.7426 19.0022 20.7115 19.2141C20.7011 19.2583 20.702 19.3044 20.7141 19.3482C20.7262 19.3921 20.749 19.4321 20.7806 19.4648C21.2094 19.8988 21.633 20.3396 22.0583 20.7771C22.0912 20.8186 22.1292 20.8566 22.1846 20.9033L22.188 20.9102ZM22.2001 35.2797V35.0013C22.2001 34.4394 22.2001 33.8775 22.2001 33.3173C22.2001 31.6437 22.2001 29.9718 22.2001 28.3033C22.203 28.2449 22.1932 28.1865 22.1714 28.1322C22.1496 28.0779 22.1164 28.0289 22.0739 27.9886C21.966 27.8803 21.8807 27.7516 21.8228 27.61C21.765 27.4685 21.7358 27.3169 21.7369 27.164C21.738 27.0111 21.7695 26.8599 21.8294 26.7192C21.8893 26.5785 21.9765 26.4511 22.086 26.3444C22.1239 26.3108 22.1537 26.2691 22.1731 26.2224C22.1926 26.1757 22.2012 26.1252 22.1984 26.0746C22.1984 25.6113 22.1984 25.1479 22.1984 24.6915C22.1984 24.6552 22.1984 24.6206 22.1984 24.5618C22.15 24.6016 22.1171 24.6258 22.0877 24.6534C21.6987 25.0286 21.3149 25.4055 20.9241 25.779C20.889 25.8084 20.8612 25.8456 20.8429 25.8876C20.8246 25.9296 20.8163 25.9753 20.8187 26.021C20.8191 26.1728 20.7896 26.3231 20.7317 26.4633C20.6738 26.6035 20.5887 26.7309 20.4813 26.8381C20.374 26.9453 20.2464 27.0302 20.1061 27.0879C19.9658 27.1456 19.8154 27.175 19.6637 27.1743C19.6024 27.1736 19.5416 27.1855 19.4851 27.2093C19.4286 27.2331 19.3776 27.2683 19.3352 27.3126C19.0724 27.5737 18.8062 27.8313 18.5399 28.0889L14.8053 31.6765C14.6324 31.8494 14.4595 32.0361 14.2745 32.2315C16.4946 34.1133 19.2877 35.1855 22.1967 35.2728L22.2001 35.2797ZM24.4599 23.2495C24.5083 23.31 24.5291 23.3394 24.555 23.3653C24.9941 23.8201 25.4333 24.2731 25.8707 24.7295C25.8976 24.7593 25.9308 24.7827 25.9679 24.798C26.005 24.8132 26.0451 24.82 26.0851 24.8177C26.2435 24.8175 26.4003 24.8495 26.546 24.9118C26.6916 24.9741 26.8231 25.0653 26.9324 25.1799C27.0417 25.2946 27.1266 25.4303 27.1819 25.5787C27.2371 25.7272 27.2617 25.8853 27.2539 26.0435C27.251 26.0782 27.2559 26.1131 27.2682 26.1457C27.2804 26.1783 27.2998 26.2078 27.3248 26.232L28.3155 27.2521C28.8503 27.8019 29.3852 28.3523 29.92 28.9032L31.9221 30.9728C31.955 31.0057 31.9913 31.0351 32.038 31.0748C32.0708 31.0368 32.0933 31.0057 32.1192 30.978C33.9398 28.9232 35.053 26.3385 35.2954 23.6039C35.3212 23.4844 35.3176 23.3604 35.285 23.2426H28.5835C28.5358 23.2395 28.488 23.2473 28.4437 23.2652C28.3994 23.2832 28.3597 23.3109 28.3276 23.3463C28.2193 23.4599 28.089 23.5503 27.9447 23.612C27.8005 23.6738 27.6451 23.7057 27.4882 23.7057C27.3312 23.7057 27.1759 23.6738 27.0316 23.612C26.8874 23.5503 26.7571 23.4599 26.6488 23.3463C26.6186 23.3123 26.5812 23.2855 26.5393 23.2679C26.4974 23.2502 26.4521 23.2422 26.4067 23.2443C25.8137 23.2443 25.2189 23.2443 24.6259 23.2443L24.4599 23.2495ZM23.6231 35.2278C26.3558 35.0026 28.9436 33.9042 31.0041 32.0949C30.966 32.05 30.9435 32.0206 30.9176 31.9929L27.9887 28.962C27.4389 28.3949 26.8874 27.8296 26.341 27.2607C26.3149 27.2305 26.2825 27.2063 26.246 27.1899C26.2096 27.1735 26.17 27.1652 26.1301 27.1656C25.9661 27.1721 25.8027 27.144 25.6504 27.083C25.498 27.022 25.3603 26.9296 25.2461 26.8119C25.1319 26.6941 25.0438 26.5535 24.9876 26.3994C24.9313 26.2452 24.9082 26.081 24.9198 25.9173C24.9229 25.8801 24.9177 25.8426 24.9045 25.8076C24.8914 25.7726 24.8706 25.741 24.8437 25.715C24.4772 25.3416 24.1158 24.9646 23.751 24.5895C23.7216 24.5618 23.6888 24.5376 23.6386 24.4944C23.6386 24.567 23.6265 24.6137 23.6265 24.6673C23.6265 25.1306 23.6265 25.594 23.6265 26.0504C23.6242 26.1064 23.6342 26.1621 23.6557 26.2138C23.6772 26.2654 23.7097 26.3118 23.751 26.3496C23.8597 26.4573 23.9461 26.5854 24.005 26.7267C24.0639 26.868 24.0942 27.0195 24.0942 27.1725C24.0942 27.3256 24.0639 27.4771 24.005 27.6184C23.9461 27.7596 23.8597 27.8878 23.751 27.9955C23.7094 28.0325 23.6763 28.0781 23.6542 28.1292C23.6321 28.1802 23.6215 28.2355 23.6231 28.2912C23.6231 28.9136 23.6231 29.5343 23.6231 30.155V35.2313V35.2278ZM32.5446 14.5009C32.4789 14.5614 32.4305 14.6046 32.3855 14.6496L30.2139 16.7537C29.3298 17.609 28.4452 18.4649 27.5599 19.3213C27.4884 19.3879 27.4436 19.4782 27.4337 19.5754C27.4006 19.8346 27.2795 20.0746 27.0907 20.2552C26.9018 20.4359 26.6568 20.5462 26.3963 20.5679C26.3043 20.5745 26.218 20.6152 26.1543 20.682L25.1169 21.6969C25.0892 21.7245 25.0668 21.7591 25.0253 21.8093C25.1031 21.8093 25.1567 21.8179 25.2085 21.8179C25.6062 21.8179 26.0056 21.8179 26.4033 21.8179C26.4514 21.819 26.4991 21.8097 26.5433 21.7906C26.5875 21.7715 26.627 21.7431 26.6591 21.7073C26.7674 21.5932 26.8977 21.5024 27.0422 21.4403C27.1866 21.3783 27.3422 21.3462 27.4994 21.3462C27.6567 21.3462 27.8122 21.3783 27.9567 21.4403C28.1012 21.5024 28.2315 21.5932 28.3397 21.7073C28.3719 21.7425 28.4117 21.7699 28.456 21.7876C28.5003 21.8052 28.548 21.8127 28.5956 21.8093H35.1501C35.2037 21.8093 35.2556 21.8093 35.3351 21.7989C35.1843 19.1354 34.2084 16.5848 32.5428 14.5009H32.5446Z" fill="white"/>
<path fill-rule="evenodd" clip-rule="evenodd" d="M10.5033 11.0516C10.3532 11.2313 10.1852 11.3953 10.0019 11.5409C9.75138 11.7296 9.43911 11.8172 9.12702 11.7864C8.76734 11.786 8.41546 11.6815 8.11384 11.4856C8.10245 11.5063 8.09374 11.5284 8.0879 11.5513C8.05889 11.8521 7.93212 12.1352 7.72698 12.3572C7.52184 12.5792 7.24962 12.7279 6.95197 12.7806C6.78746 12.8239 6.6153 12.8296 6.44827 12.7973C6.28125 12.765 6.12366 12.6954 5.9872 12.5938C5.8143 12.4607 5.6172 12.3449 5.43393 12.2238C5.19319 12.5194 4.99904 12.85 4.85818 13.2042L7.99281 14.838C7.95309 14.8601 7.9121 14.8797 7.87005 14.8968C7.65912 14.966 7.44472 15.03 7.23552 15.1043C7.19299 15.1213 7.14708 15.1281 7.10145 15.1242C7.05583 15.1203 7.01174 15.1058 6.97271 15.0818C6.41426 14.7862 5.85407 14.4957 5.29388 14.2035L4.6265 13.8577C4.59883 13.8439 4.56771 13.8335 4.52967 13.818C4.50437 13.8834 4.47128 13.9455 4.43112 14.0029C4.33825 14.1016 4.26855 14.2197 4.2271 14.3487C4.18042 14.4767 4.12855 14.6012 4.08014 14.7291L3.90724 15.1752C4.02308 15.1596 4.11645 15.1458 4.21154 15.1354C4.46021 15.1018 4.7131 15.1189 4.955 15.1856C5.05514 15.2084 5.14977 15.2508 5.23348 15.3103C5.31719 15.3698 5.38832 15.4453 5.44278 15.5323C5.49724 15.6194 5.53396 15.7164 5.55084 15.8177C5.56772 15.919 5.56442 16.0226 5.54112 16.1227C5.53922 16.1555 5.53922 16.1884 5.54112 16.2212C5.68469 16.2429 5.83132 16.2317 5.96991 16.1884C6.40907 16.0846 6.8465 15.9723 7.28566 15.8633C7.40496 15.8339 7.52599 15.8115 7.65912 15.7821C7.64528 15.8754 7.58477 15.8962 7.53463 15.9187C7.32715 16.0137 7.11968 16.1088 6.90701 16.1953C6.36611 16.4238 5.80369 16.5975 5.22818 16.714C5.06215 16.7417 4.89479 16.7607 4.72678 16.771C4.6687 16.774 4.61049 16.7688 4.55388 16.7555C4.52225 16.7531 4.49147 16.7441 4.46355 16.729C4.43562 16.714 4.41117 16.6932 4.39177 16.6681C4.37237 16.643 4.35847 16.6141 4.35095 16.5833C4.34343 16.5525 4.34247 16.5204 4.34813 16.4892C4.34599 16.4562 4.35068 16.4231 4.3619 16.392C4.37313 16.361 4.39065 16.3325 4.41336 16.3085C4.43608 16.2845 4.46351 16.2654 4.49394 16.2525C4.52436 16.2395 4.55713 16.233 4.59019 16.2333C4.65935 16.2333 4.73023 16.2247 4.79766 16.2212C4.83688 16.1039 4.83458 15.9766 4.79114 15.8608C4.7477 15.745 4.66577 15.6476 4.55907 15.585C4.41019 15.4927 4.24105 15.4381 4.06631 15.4259C3.98165 15.4215 3.89681 15.4215 3.81215 15.4259C3.71014 15.6904 3.59949 15.9446 3.51131 16.2178C3.49127 16.293 3.45256 16.3619 3.39875 16.4181C3.34494 16.4743 3.2778 16.516 3.20355 16.5394C3.04449 16.5947 2.89579 16.6725 2.70215 16.7572C2.73154 16.6673 2.7471 16.6137 2.76785 16.5618C3.00645 15.9377 3.24678 15.3118 3.48364 14.6859C3.50958 14.6167 3.50785 14.5389 3.5286 14.4663C3.54569 14.4037 3.57007 14.3434 3.60121 14.2865C3.63752 14.2225 3.69631 14.1707 3.73089 14.1136C3.94528 13.709 4.15794 13.3044 4.36542 12.9033C4.43804 12.7598 4.48472 12.6025 4.55734 12.459C4.62995 12.3155 4.65935 12.1581 4.81841 12.0803C4.85299 12.063 4.87201 12.0112 4.89622 11.9749C5.13136 11.6291 5.36477 11.266 5.60164 10.915C5.68155 10.7987 5.73739 10.6676 5.76589 10.5294C5.77603 10.4764 5.79987 10.4269 5.83505 10.3859C6.27767 9.9122 6.72374 9.44192 7.16636 8.96818C7.44645 8.67079 7.7179 8.36477 8.00145 8.07257C8.15759 7.88369 8.33126 7.71001 8.52015 7.55388C8.71552 7.41556 8.89187 7.25304 9.07687 7.10262L9.44515 6.7914C9.05497 6.56543 8.60441 6.46577 8.15533 6.50612C8.12846 6.51082 8.10189 6.51717 8.0758 6.52514C7.98485 6.53899 7.89922 6.57678 7.82769 6.63464C7.75616 6.69249 7.7013 6.76833 7.66875 6.85438C7.6362 6.94043 7.62711 7.03359 7.64244 7.1243C7.65776 7.21502 7.69693 7.30002 7.75594 7.37061C7.84576 7.48155 7.94849 7.58139 8.06197 7.66799C8.10162 7.7007 8.14382 7.73019 8.18818 7.75617C8.1874 7.7671 8.1874 7.77808 8.18818 7.78902C8.15659 7.80047 8.12324 7.80632 8.08963 7.80631C7.81963 7.76441 7.56421 7.6563 7.34617 7.49163C7.24816 7.42737 7.16865 7.33861 7.1155 7.23415C7.06236 7.12969 7.03744 7.01316 7.0432 6.8961C7.04897 6.77904 7.08522 6.66552 7.14837 6.56679C7.21152 6.46806 7.29938 6.38754 7.40323 6.33322C7.66335 6.17908 7.97174 6.12789 8.26771 6.18972C8.50118 6.22906 8.73211 6.28218 8.9593 6.34878C9.1858 6.4214 9.40019 6.53205 9.63879 6.63406L10.1575 6.22775C10.2739 6.1241 10.3957 6.02656 10.5223 5.93556C11.0842 5.58976 11.6548 5.24397 12.2167 4.88434C12.7303 4.58952 13.2596 4.32286 13.8022 4.08556C13.9194 4.00433 14.0507 3.9457 14.1895 3.91266C14.3293 3.93035 14.4654 3.97064 14.5923 4.03196L14.9381 4.14953C14.703 4.30341 14.4574 4.37602 14.2344 4.50915L15.7352 7.7164C15.6931 7.71337 15.6514 7.70643 15.6107 7.69565C15.398 7.62477 15.1888 7.54869 14.9761 7.47953C14.9326 7.46746 14.8923 7.44561 14.8585 7.41565C14.8246 7.38569 14.798 7.34841 14.7808 7.30663C14.6978 7.11126 14.6079 6.9228 14.5041 6.71533C14.4799 6.75855 14.4644 6.78621 14.4505 6.81388C14.3545 7.01245 14.2083 7.18248 14.0263 7.30713C13.8444 7.43177 13.633 7.5067 13.4131 7.52448C12.9449 7.58142 12.472 7.4652 12.0836 7.19771C11.9937 7.13892 11.9107 7.06112 11.8138 6.97813L11.947 6.91589C12.0268 6.87975 12.0978 6.82672 12.1551 6.76045C12.2124 6.69418 12.2547 6.61625 12.2789 6.53205C12.3103 6.44376 12.312 6.34761 12.2836 6.25831C12.2551 6.16901 12.1983 6.09147 12.1216 6.03757C12.0124 5.97227 11.8965 5.91894 11.7758 5.8785C11.7456 5.87148 11.7142 5.87174 11.6841 5.87925C11.6541 5.88677 11.6262 5.90133 11.6029 5.92173C11.4404 6.02201 11.2675 6.10846 11.1136 6.21911C10.8473 6.41103 10.5949 6.6185 10.32 6.82598L12.4881 9.58023L12.4691 9.61309L12.0715 9.57159C11.9366 9.5543 11.8035 9.52837 11.6669 9.51799C11.6295 9.51529 11.5932 9.50407 11.5609 9.48519C11.5285 9.46631 11.5009 9.44027 11.4801 9.40907C10.9545 8.74168 10.4284 8.0743 9.9016 7.40691C9.86529 7.36023 9.82552 7.31528 9.78057 7.25995C9.64917 7.36023 9.52987 7.45878 9.40192 7.54869C9.32538 7.59828 9.24632 7.64387 9.16505 7.68528C9.13087 7.70028 9.09934 7.72071 9.07169 7.74579C8.89879 7.91869 8.73627 8.10196 8.553 8.29734L9.54024 9.21542C9.50047 9.2621 9.47108 9.30014 9.43996 9.33472C9.13566 9.66323 8.83309 9.99 8.52706 10.3168C8.46124 10.3844 8.41236 10.4667 8.38442 10.5568C8.35647 10.647 8.35025 10.7425 8.36627 10.8355C8.38344 10.9632 8.44309 11.0814 8.53561 11.1711C8.62813 11.2608 8.74813 11.3167 8.87631 11.33C9.24113 11.3749 9.51776 11.1986 9.77711 10.9842C9.90706 10.8709 10.0113 10.7311 10.0829 10.5743C10.1544 10.4174 10.1917 10.2471 10.1921 10.0747C10.1921 10.0056 10.1921 9.93467 10.1921 9.8707C10.4055 9.83996 10.6227 9.84757 10.8335 9.89318C10.8335 10.0107 10.8335 10.1352 10.8093 10.258C10.7642 10.5097 10.6778 10.7521 10.5534 10.9755L10.5033 11.0516ZM7.73692 11.0723C7.66506 10.8979 7.64691 10.706 7.6848 10.5212C7.72268 10.3363 7.81488 10.167 7.94958 10.035C8.02047 9.95369 8.09482 9.87416 8.16916 9.79463L8.62561 9.29841L8.08963 8.80393C7.85449 9.0529 7.63664 9.28804 7.41706 9.52145C7.24416 9.69435 7.07127 9.86725 6.91566 10.0592C6.7546 10.2404 6.60283 10.4297 6.46094 10.6263C6.26038 10.9098 6.07538 11.2037 5.88346 11.4908C5.88346 11.4908 5.88346 11.5063 5.89729 11.5253C6.44192 11.4199 6.99173 11.3351 7.53636 11.2228C7.52599 11.1398 7.51907 11.0758 7.5087 10.9997L7.73692 11.0723ZM12.6005 7.13374C13.1676 7.30663 13.6033 7.13374 13.8506 6.62542C13.9128 6.49747 13.9578 6.36261 14.0131 6.23294C14.0511 6.14649 14.0944 6.06004 14.148 5.95112C13.9751 5.59322 13.8022 5.20593 13.6154 4.82037L13.14 4.97771C13.1195 4.98591 13.1003 4.99697 13.0829 5.01056C12.7492 5.2163 12.4173 5.42378 12.0836 5.63299C12.0559 5.65028 12.0317 5.67448 11.9919 5.7056C12.3706 5.72117 12.6835 5.81107 12.8564 6.16378C13.0293 6.51649 12.8789 6.85191 12.6005 7.13374ZM5.94916 11.8141C5.97682 11.8469 5.98201 11.8573 5.99066 11.8625C6.13935 11.9628 6.28804 12.063 6.43846 12.1616C6.5422 12.2308 6.64421 12.3051 6.75486 12.3656C6.85119 12.4232 6.96308 12.4494 7.07496 12.4404C7.18684 12.4314 7.29313 12.3877 7.37902 12.3155C7.48151 12.2115 7.55284 12.081 7.58492 11.9386C7.61701 11.7962 7.60857 11.6476 7.56056 11.5098L5.94916 11.8141Z" fill="white"/>
<path fill-rule="evenodd" clip-rule="evenodd" d="M41.354 16.1676C41.2589 15.9394 41.1638 15.7112 41.0601 15.476L37.7871 16.8281C37.7944 16.7849 37.8043 16.7422 37.8165 16.7001C37.8943 16.503 37.9807 16.3077 38.0516 16.1071C38.068 16.056 38.0961 16.0093 38.1336 15.9709C38.1711 15.9325 38.217 15.9034 38.2678 15.8858C38.8522 15.6506 39.4365 15.4069 40.0192 15.1665L40.7869 14.8467C40.743 14.6904 40.6899 14.5368 40.6278 14.3868C40.5154 14.1464 40.384 13.9148 40.2526 13.6658L37.1405 15.355C37.1431 15.3062 37.1495 15.2576 37.1595 15.2098C37.2183 14.9954 37.284 14.781 37.341 14.5666C37.3518 14.5287 37.3707 14.4936 37.3963 14.4638C37.422 14.4339 37.4539 14.41 37.4897 14.3937C37.7681 14.2484 38.0447 14.0946 38.3231 13.9441L38.4804 13.8542C38.2695 13.5378 38.062 13.2284 37.8493 12.9137C37.7439 12.9742 37.654 13.0312 37.5571 13.0866C37.5282 13.106 37.4951 13.1187 37.4606 13.1235C37.426 13.1284 37.3908 13.1254 37.3575 13.1148C37.3243 13.1042 37.2938 13.0861 37.2685 13.0621C37.2432 13.038 37.2237 13.0086 37.2114 12.9759C37.1719 12.8924 37.1546 12.8001 37.1612 12.7079C37.1933 12.4991 37.2377 12.2925 37.2943 12.089C37.3398 11.949 37.4297 11.8276 37.5502 11.7432C37.7231 11.6135 37.8234 11.6273 37.9427 11.8037C38.183 12.1598 38.4216 12.5195 38.6602 12.8756C38.7778 13.0485 38.8954 13.2214 39.0164 13.4082L38.8954 13.6087C39.2412 13.4635 39.5731 13.2629 39.9155 13.09C39.8295 12.888 39.7307 12.6917 39.6198 12.5022C39.3103 12.0596 39.0216 11.6048 38.7173 11.1588C38.6366 11.0575 38.5488 10.9622 38.4545 10.8735C38.4222 10.8457 38.3967 10.8108 38.3801 10.7715C38.3283 10.5484 38.1398 10.4257 38.0222 10.2441L35.3008 12.5091C35.2942 12.4766 35.2901 12.4437 35.2887 12.4105C35.306 12.1771 35.3302 11.9437 35.3423 11.719C35.3432 11.676 35.3537 11.6338 35.3732 11.5954C35.3927 11.5571 35.4205 11.5237 35.4547 11.4977C35.8247 11.1934 36.193 10.8856 36.5613 10.5796L36.6875 10.4706L35.9457 9.77905C35.9181 9.84821 35.9008 9.89835 35.88 9.95195C35.8405 10.0588 35.7764 10.1549 35.6931 10.2326C35.6098 10.3103 35.5095 10.3675 35.4002 10.3996C35.2908 10.4317 35.1755 10.4378 35.0634 10.4174C34.9513 10.397 34.8455 10.3507 34.7545 10.2822C34.5828 10.1645 34.4484 10.0001 34.3672 9.80844C34.1907 9.3525 34.17 8.85096 34.3084 8.38204C34.426 8.40279 34.4312 8.47713 34.4346 8.56531C34.4355 8.75507 34.4493 8.94455 34.4761 9.13241C34.5007 9.24385 34.5465 9.34951 34.611 9.44363C34.6715 9.55834 34.7697 9.64866 34.8891 9.69937C35.0085 9.75008 35.1417 9.75807 35.2663 9.72199C35.3918 9.68186 35.5013 9.6027 35.5787 9.49603C35.6561 9.38937 35.6975 9.26076 35.6968 9.12896C35.6905 9.04236 35.6784 8.95629 35.6605 8.87134C35.6605 8.83676 35.6518 8.80218 35.6432 8.73821C35.6833 8.75489 35.7215 8.77576 35.7573 8.80045C36.1394 9.15662 36.518 9.51625 36.9001 9.87414C36.924 9.89247 36.9411 9.91826 36.9486 9.9474C36.9561 9.97653 36.9536 10.0073 36.9416 10.0349C36.9103 10.1242 36.8877 10.2162 36.8742 10.3098C37.1145 10.1369 37.3358 9.94503 37.5658 9.75139C37.516 9.69857 37.472 9.64061 37.4344 9.57849C37.2771 9.23269 36.9486 9.03386 36.6927 8.77625C36.3469 8.43045 35.9803 8.10195 35.6242 7.76307C35.4852 7.64432 35.3536 7.5173 35.23 7.38269C35.1378 7.29888 35.0356 7.22686 34.9257 7.1683L34.5695 6.8519C33.8658 7.79419 33.1863 8.75377 32.4809 9.68569H32.4463C32.4204 9.54564 32.3944 9.40559 32.3702 9.26382C32.3529 9.15662 32.346 9.04597 32.3184 8.94223C32.3059 8.89533 32.3051 8.84611 32.316 8.79882C32.3268 8.75153 32.349 8.70758 32.3806 8.67078C32.8958 7.97919 33.4093 7.28184 33.9211 6.57872C33.9471 6.54414 33.9713 6.50783 34.0007 6.46634C33.7033 6.15858 33.3298 5.97185 32.9512 5.74881C32.3512 6.76026 31.753 7.76825 31.1427 8.79353C31.1236 8.75955 31.1068 8.72431 31.0925 8.68807C31.0285 8.45811 30.9698 8.22643 30.9058 7.99648C30.8953 7.96318 30.8927 7.92791 30.8981 7.89342C30.9035 7.85892 30.9167 7.82615 30.9369 7.79765C31.0337 7.6455 31.1236 7.48989 31.2135 7.33428C31.2346 7.29731 31.2537 7.25922 31.2706 7.22017C31.2516 7.22017 31.2412 7.20807 31.2308 7.20979C30.9827 7.25885 30.7255 7.23293 30.4921 7.13532C30.2587 7.03771 30.0596 6.87284 29.9203 6.66171C29.6281 6.28874 29.4857 5.82015 29.5209 5.34769C29.523 5.30939 29.5276 5.27127 29.5347 5.23358C29.5347 5.20937 29.5537 5.18517 29.5676 5.1454C29.6348 5.20268 29.7131 5.24558 29.7975 5.27145C29.882 5.29732 29.9708 5.30561 30.0586 5.29582C30.1188 5.29381 30.178 5.27996 30.2328 5.25506C30.2876 5.23016 30.337 5.19469 30.3781 5.1507C30.4192 5.1067 30.4512 5.05503 30.4724 4.99864C30.4935 4.94226 30.5033 4.88226 30.5012 4.82208C30.5018 4.77869 30.4989 4.73533 30.4926 4.69241C30.4925 4.61041 30.4656 4.53069 30.416 4.46543C30.3663 4.40017 30.2967 4.35297 30.2177 4.33105C30.1092 4.29501 30.0044 4.24869 29.9047 4.19274C29.8601 4.17438 29.8226 4.14227 29.7975 4.1011C29.7145 3.89017 29.6419 3.67577 29.5537 3.43372C29.6212 3.45619 29.6609 3.46484 29.6972 3.4804C30.3335 3.76568 30.9663 4.05788 31.5991 4.33278C32.0468 4.55443 32.4831 4.79852 32.9062 5.06414C33.1379 5.19208 33.3765 5.31311 33.5978 5.46007C33.9021 5.66063 34.1908 5.88367 34.4882 6.09634L34.6179 6.1897C34.6317 6.17933 34.6456 6.17414 34.6456 6.16722C34.6525 5.69795 34.5642 5.23213 34.3862 4.79788C34.3151 4.60185 34.1806 4.43514 34.0041 4.32414C33.9887 4.31458 33.9755 4.30171 33.9657 4.28646C33.9558 4.27121 33.9494 4.25396 33.9471 4.23596C33.9471 4.06306 33.9471 3.87979 33.9471 3.68615C33.9866 3.69268 34.0254 3.7031 34.0629 3.71727C34.2838 3.8291 34.461 4.01171 34.566 4.23596C34.6971 4.52433 34.7739 4.83439 34.7925 5.15059C34.8236 5.49638 34.8444 5.84218 34.8651 6.18797C34.8613 6.24701 34.874 6.30595 34.9018 6.35818C34.9295 6.41041 34.9714 6.45385 35.0225 6.48363C35.5412 6.77755 35.9302 7.22363 36.3624 7.61956C36.6978 7.92905 37.0333 8.24026 37.3635 8.55667C37.4766 8.67428 37.5833 8.79778 37.6834 8.92667C37.8995 9.18601 38.1139 9.44536 38.3335 9.7047C38.4061 9.79115 38.4977 9.86204 38.5703 9.94849C38.6933 10.0868 38.8087 10.2317 38.9161 10.3825C39.2515 10.8769 39.5801 11.3766 39.912 11.8763C39.976 11.9748 40.04 12.0751 40.097 12.1789C40.3322 12.6094 40.5535 13.0434 40.8007 13.4704C41.1465 14.0773 41.3609 14.7464 41.6462 15.3827C41.6636 15.4217 41.6679 15.4654 41.6583 15.5071C41.5736 15.7302 41.4854 15.948 41.3937 16.1676H41.354ZM29.8615 5.8733C29.9051 6.02502 29.9773 6.16703 30.0742 6.29171C30.1467 6.38763 30.2391 6.46678 30.345 6.52377C30.4509 6.58076 30.5679 6.61424 30.6879 6.62194C30.8237 6.62244 30.9595 6.61436 31.0942 6.59774C31.2879 6.58218 31.4712 6.45596 31.6769 6.54933L32.3529 5.4082C31.8471 5.05297 31.295 4.76851 30.7121 4.56274C31.2412 5.37362 30.6413 6.02891 29.8615 5.8733Z" fill="white"/>
<path fill-rule="evenodd" clip-rule="evenodd" d="M19.6035 6.49575C19.5707 6.47846 19.5343 6.46463 19.5032 6.44561C18.8747 6.06931 18.2942 5.61822 17.7743 5.1022C17.6671 4.98636 17.5668 4.8636 17.47 4.73912C17.4318 4.6864 17.402 4.62808 17.3818 4.56622C17.366 4.52823 17.3595 4.487 17.3629 4.446C17.3663 4.40499 17.3794 4.36539 17.4013 4.33051C17.4231 4.29564 17.453 4.2665 17.4884 4.24555C17.5238 4.22459 17.5637 4.21242 17.6048 4.21005C17.6391 4.20912 17.673 4.21707 17.7033 4.23313C17.7336 4.24918 17.7592 4.2728 17.7777 4.30169C17.8348 4.3743 17.8849 4.45038 17.9385 4.52472C18.0554 4.49146 18.1556 4.41576 18.2196 4.31246C18.2835 4.20916 18.3066 4.0857 18.2843 3.96627C18.2505 3.70676 18.1518 3.45998 17.9973 3.24874L17.5443 3.34729C17.4388 3.36977 17.3334 3.40262 17.2262 3.41818C17.1684 3.43156 17.1078 3.4261 17.0533 3.40262C16.8804 3.29369 16.7075 3.17267 16.5346 3.05683C16.5242 3.05683 16.519 3.03262 16.5 3.00323L17.0585 2.87183C17.648 2.74042 18.2359 2.59865 18.8272 2.48108C19.1557 2.41538 19.4929 2.38598 19.8265 2.34276C19.9649 2.32374 20.1066 2.31164 20.245 2.29608C20.245 2.28052 20.245 2.26668 20.245 2.2615C19.9456 1.92147 19.5819 1.64411 19.1747 1.44542C19.0493 1.39334 18.9197 1.3517 18.7874 1.32094C18.7351 1.30459 18.679 1.30459 18.6266 1.32094C18.4918 1.37453 18.414 1.31056 18.3362 1.2172C18.2584 1.12383 18.146 1.00972 18.0405 0.895608C18.1572 0.840597 18.2839 0.809786 18.4129 0.805031C18.5418 0.800277 18.6704 0.821678 18.7909 0.867945C18.9708 0.930004 19.1403 1.01858 19.294 1.13075C19.5741 1.34687 19.8317 1.59066 20.0963 1.82234C20.206 1.91136 20.3078 2.0097 20.4006 2.11626C20.4519 2.17584 20.5194 2.21917 20.5949 2.24098C20.6705 2.26278 20.7507 2.2621 20.8259 2.23902C20.9976 2.21055 21.1708 2.19208 21.3446 2.18369C21.8633 2.18369 22.382 2.20098 22.9007 2.18369C23.4388 2.18526 23.9761 2.22513 24.5086 2.30299C24.7311 2.33272 24.955 2.35061 25.1794 2.35659C25.6186 2.35659 26.0284 2.5122 26.4537 2.5779C26.6473 2.60729 26.8375 2.65743 27.0294 2.69374C27.0749 2.70027 27.1184 2.71685 27.1567 2.74227C27.195 2.76769 27.2271 2.80131 27.2508 2.8407C27.3695 3.01883 27.478 3.20355 27.5758 3.39398L26.8358 3.25047C26.5955 4.40543 26.3569 5.54655 26.1131 6.70842C26.0809 6.67773 26.0503 6.64541 26.0215 6.6116C25.8987 6.4387 25.7829 6.24678 25.6549 6.07043C25.6254 6.03218 25.6052 5.98758 25.5959 5.94016C25.5866 5.89275 25.5884 5.84382 25.6013 5.79725C25.693 5.36673 25.7829 4.93276 25.8728 4.50398C25.9627 4.07519 26.0543 3.63949 26.1442 3.20898C26.1442 3.18304 26.1442 3.15538 26.1442 3.11561C25.7394 2.99773 25.3222 2.92752 24.9011 2.9064C24.7818 4.08556 24.6608 5.24398 24.5259 6.44389C24.4619 6.37473 24.4256 6.33669 24.391 6.29692C24.2596 6.13613 24.1317 5.9736 23.9951 5.818C23.9675 5.7881 23.9472 5.75233 23.9355 5.71339C23.9238 5.67444 23.9211 5.63336 23.9277 5.59323C23.9484 5.44281 23.9623 5.29066 23.9778 5.14024C23.9778 5.08145 23.9899 5.02267 23.9986 4.93795C23.7828 5.08315 23.5251 5.15305 23.2655 5.13678C23.0771 5.13284 22.8915 5.09118 22.7196 5.01426C22.5476 4.93735 22.3929 4.82674 22.2644 4.68898C22.1797 4.60426 22.114 4.49879 22.0241 4.42271C21.8149 4.24982 21.7716 3.75187 21.9445 3.47697C22.0014 3.39071 22.0783 3.31944 22.1686 3.26918C22.2589 3.21891 22.3599 3.19115 22.4632 3.18823C22.7095 3.17955 22.9537 3.23496 23.1721 3.34902C23.1827 3.35185 23.1926 3.35653 23.2015 3.36285L23.6424 3.8072C23.568 3.85907 23.5231 3.81757 23.4695 3.8072C23.2827 3.73153 23.0832 3.69222 22.8816 3.69136C22.7175 3.70569 22.5642 3.77981 22.4511 3.89965C22.3379 4.0195 22.2727 4.17671 22.2679 4.34145C22.2633 4.39359 22.2766 4.44572 22.3055 4.48936C22.3344 4.533 22.3772 4.56557 22.4269 4.58178C22.5758 4.63813 22.7371 4.65307 22.8937 4.625C23.0908 4.60017 23.2805 4.5342 23.4505 4.43136L24.0885 4.05444C24.13 3.67061 24.1749 3.26776 24.2199 2.84416C24.0193 2.82514 23.8447 2.7629 23.651 2.7629C23.0736 2.7629 22.4961 2.74907 21.9221 2.75253C21.5361 2.74499 21.1501 2.76522 20.7671 2.81304C20.7315 2.81912 20.6963 2.8272 20.6616 2.83725C20.7844 4.0043 20.9072 5.16444 21.0316 6.35398C20.9763 6.32113 20.9435 6.30557 20.9158 6.28482C20.7429 6.14823 20.57 6.00473 20.3885 5.87159C20.3493 5.84288 20.3173 5.80543 20.2951 5.76221C20.2729 5.719 20.2611 5.67121 20.2605 5.62262C20.2329 5.30449 20.1965 4.98809 20.162 4.64921L20.0824 4.70799C19.8989 4.8638 19.6803 4.97261 19.4453 5.02502C19.2103 5.07743 18.9662 5.07188 18.7338 5.00884C18.6823 4.98636 18.6258 4.97742 18.5699 4.98286C18.5139 4.98831 18.4602 5.00796 18.414 5.03996C18.3721 5.06475 18.3274 5.08448 18.2808 5.09874C18.3659 5.23422 18.4675 5.35852 18.5834 5.46874C18.8877 5.7644 19.1972 6.0566 19.505 6.34879L19.6294 6.47328L19.6035 6.49575ZM20.1222 4.29996C20.0703 3.81412 20.0219 3.36458 19.9735 2.91678L19.581 2.9358C19.5014 2.93317 19.4216 2.93664 19.3424 2.94617C19.045 3.01014 18.7494 3.0793 18.452 3.14846C18.3915 3.16229 18.331 3.18131 18.2549 3.20379L18.3759 3.35767C18.5251 3.53924 18.6463 3.74203 18.7356 3.95935C18.7995 4.08616 18.8329 4.22621 18.8329 4.36825C18.8329 4.51029 18.7995 4.65034 18.7356 4.77715C18.7356 4.77715 18.7356 4.79617 18.7356 4.81346C18.9678 4.78517 19.1894 4.69961 19.3805 4.56449C19.5741 4.4279 19.7522 4.26884 19.9407 4.11669L20.1222 4.29996Z" fill="white"/>
<path fill-rule="evenodd" clip-rule="evenodd" d="M38.7796 27.5287L41.7777 28.6145L41.6048 29.0018L39.122 28.0751C39.8136 28.7235 40.4809 29.3511 41.157 29.977C41.112 30.0824 41.0705 30.1758 41.0221 30.2865L38.2851 30.0375L40.6504 31.2305C40.5951 31.3567 40.5466 31.4725 40.4879 31.6074L37.6523 30.136C37.6887 30.0461 37.7215 29.9631 37.7544 29.8888C37.7872 29.8145 37.8252 29.7315 37.8667 29.6398C38.3163 29.6727 38.7589 29.7021 39.2032 29.7384C39.6476 29.7747 40.0919 29.8179 40.5657 29.8369C40.5326 29.8241 40.5013 29.8073 40.4723 29.7868L39.0891 28.5298C38.937 28.3898 38.7935 28.2411 38.6396 28.1028C38.6248 28.0935 38.6121 28.0813 38.602 28.067C38.592 28.0527 38.585 28.0365 38.5813 28.0195C38.5776 28.0024 38.5773 27.9848 38.5805 27.9676C38.5837 27.9504 38.5902 27.9341 38.5998 27.9195C38.6655 27.7967 38.7157 27.6705 38.7796 27.5287Z" fill="white"/>
<path fill-rule="evenodd" clip-rule="evenodd" d="M6.25561 25.2759C6.29365 25.4228 6.32477 25.5473 6.35935 25.6718C6.37837 25.7462 6.31958 25.7807 6.28155 25.8222C5.98762 26.1438 5.6937 26.4654 5.39458 26.7818C5.04879 27.1535 4.6857 27.5201 4.34682 27.8711L6.73627 27.2089C6.83136 27.323 6.8158 27.4578 6.8815 27.5892C6.36281 27.75 5.84412 27.8711 5.32542 28.0111C4.80673 28.1512 4.30879 28.2808 3.78318 28.4192C3.74687 28.2912 3.71402 28.1771 3.6829 28.0647C3.66388 27.9921 3.71921 27.9541 3.75897 27.9108C3.99584 27.6567 4.23271 27.3921 4.47304 27.1466L5.74384 25.817L3.28869 26.4896C3.22418 26.3673 3.1848 26.2332 3.17285 26.0954L6.25561 25.2759Z" fill="white"/>
<path fill-rule="evenodd" clip-rule="evenodd" d="M11.0478 37.5326C11.5907 36.8669 12.1198 36.2186 12.6627 35.5564L12.9773 35.8192C12.2857 36.637 11.6218 37.4479 10.9354 38.2709C10.8334 38.1879 10.7418 38.1135 10.6519 38.0375C10.562 37.9614 10.6173 37.9043 10.6242 37.8369C10.6657 37.5188 10.7089 37.2006 10.7539 36.8825C10.8161 36.4416 10.8784 35.999 10.9475 35.5598C10.9752 35.3714 11.0184 35.1864 11.0599 34.9789C10.5032 35.6567 9.95681 36.3206 9.40354 36.9966L9.08887 36.7355L11.1308 34.2804C11.2371 34.3622 11.3392 34.4494 11.4368 34.5415C11.4676 34.5845 11.4806 34.6378 11.4731 34.6902C11.4264 35.0619 11.3746 35.4336 11.3244 35.8054C11.2674 36.2099 11.2138 36.6145 11.1515 37.0156C11.1273 37.1833 11.0858 37.3476 11.0478 37.5326Z" fill="white"/>
<path fill-rule="evenodd" clip-rule="evenodd" d="M8.76582 35.814C7.93245 35.8433 6.99535 34.8941 7.4518 33.8447C7.57063 33.552 7.76118 33.2939 8.00592 33.0942C8.25066 32.8945 8.5417 32.7595 8.85227 32.7018C9.06142 32.66 9.27728 32.6655 9.48403 32.718C9.69078 32.7704 9.88317 32.8684 10.0471 33.0048C10.2111 33.1413 10.3424 33.3127 10.4316 33.5064C10.5207 33.7002 10.5653 33.9115 10.5622 34.1248C10.5543 34.3487 10.4914 34.5672 10.379 34.761C10.2389 35.0178 10.0457 35.2417 9.81225 35.4179C9.57881 35.5941 9.31048 35.7185 9.02517 35.7828C8.93929 35.7976 8.85274 35.8079 8.76582 35.814ZM7.74918 34.4792C7.74656 34.6149 7.77456 34.7494 7.83111 34.8728C7.88767 34.9961 7.97131 35.1052 8.07582 35.1917C8.18034 35.2783 8.30303 35.3402 8.43476 35.3728C8.5665 35.4054 8.70389 35.4078 8.83671 35.38C9.10005 35.3274 9.34712 35.213 9.55754 35.0461C9.76797 34.8793 9.93573 34.6648 10.047 34.4204C10.1618 34.2008 10.1848 33.9446 10.111 33.7081C10.0395 33.4791 9.88087 33.2875 9.66928 33.1746C9.45769 33.0616 9.21017 33.0365 8.98021 33.1047C8.7492 33.165 8.5331 33.2723 8.3454 33.4198C8.15769 33.5674 8.00241 33.752 7.88923 33.9622C7.79521 34.1181 7.7467 34.2972 7.74918 34.4792Z" fill="white"/>
<path fill-rule="evenodd" clip-rule="evenodd" d="M36.1688 32.3526L36.4437 32.0223L38.885 34.0712L38.7501 34.2441L38.6118 34.4066L37.4707 33.4539L36.4955 34.6141L37.628 35.5702L37.36 35.8987L34.9395 33.8602C35.011 33.7354 35.0969 33.6193 35.1953 33.5144L36.2154 34.3668C36.5422 33.9778 36.8638 33.5974 37.1906 33.2067L36.1688 32.3526Z" fill="white"/>
<path fill-rule="evenodd" clip-rule="evenodd" d="M21.6292 38.9658C21.9309 38.9113 22.238 38.8939 22.5439 38.914C22.6904 38.9245 22.8356 38.9482 22.9778 38.9849C23.1359 39.0196 23.2791 39.103 23.3873 39.2234C23.4955 39.3437 23.5634 39.4949 23.5813 39.6557C23.6109 39.832 23.5834 40.0131 23.5029 40.1727C23.4223 40.3322 23.2929 40.4619 23.1335 40.5427C23.0971 40.5634 23.0574 40.5807 23.002 40.6084C23.296 40.7692 23.3876 41.0354 23.4516 41.3224C23.5052 41.5662 23.5726 41.8083 23.6331 42.0503C23.6387 42.0789 23.6428 42.1078 23.6452 42.1368H23.2303C23.2026 42.0607 23.168 41.9812 23.1473 41.8999C23.1006 41.7149 23.0608 41.5299 23.0176 41.3432C23.0072 41.2965 22.9951 41.2481 22.9813 41.2014C22.959 41.0792 22.8953 40.9684 22.8008 40.8878C22.7063 40.8071 22.5868 40.7616 22.4626 40.7588C22.3277 40.7588 22.1929 40.7588 22.0425 40.7588C22.0027 41.2014 22.02 41.6458 22.0044 42.0987C21.8638 42.1239 21.7198 42.1239 21.5791 42.0987C21.5981 41.0614 21.6137 40.024 21.6292 38.9658ZM22.0528 40.4061C22.2452 40.4381 22.4415 40.4381 22.6338 40.4061C22.7141 40.3921 22.792 40.3671 22.8655 40.3317C22.9608 40.2844 23.04 40.2099 23.0929 40.1175C23.1458 40.0252 23.1702 39.9192 23.1628 39.813C23.1683 39.7058 23.1386 39.5997 23.0784 39.5108C23.0182 39.422 22.9307 39.3551 22.8292 39.3203C22.5799 39.2298 22.3088 39.2183 22.0528 39.2874V40.4061Z" fill="white"/>
<path fill-rule="evenodd" clip-rule="evenodd" d="M4.99638 31.3186C4.92895 31.163 4.87363 31.0402 4.81484 30.9037L5.59288 30.1896L5.15372 29.1764C5.02924 29.1764 4.91166 29.192 4.79237 29.2023L4.27367 29.2542C4.10078 29.2715 4.10078 29.2715 4.04199 29.1211C4.00741 29.0433 3.97456 28.9637 3.93652 28.8704C4.04545 28.8548 4.13536 28.8393 4.22699 28.8306L6.03377 28.6888C6.37956 28.6594 6.72536 28.6249 7.07115 28.5989C7.3184 28.5816 7.2769 28.5678 7.37027 28.7718C7.4083 28.8566 7.44288 28.9447 7.48611 29.045L4.99638 31.3186ZM5.50124 29.1245L5.86779 29.9683L6.9726 28.9828L5.50124 29.1245Z" fill="white"/>
<path fill-rule="evenodd" clip-rule="evenodd" d="M11.3037 38.5492L13.8816 36.3776L14.319 36.6387C14.0804 37.7297 13.8436 38.8155 13.6067 39.903C13.4605 39.8616 13.326 39.7864 13.2142 39.6834C13.2851 39.3549 13.356 39.0212 13.4321 38.6702L12.4829 38.0945L11.6824 38.774L11.3037 38.5492ZM12.7388 37.8576L13.5272 38.3348L13.8574 36.8929L12.7388 37.8576Z" fill="white"/>
<path fill-rule="evenodd" clip-rule="evenodd" d="M36.5898 31.7837L37.5062 30.3297L37.8105 30.5198C37.5788 30.8916 37.3523 31.2495 37.1189 31.6247L37.9505 32.1433C38.1719 31.7976 38.3862 31.4518 38.611 31.106L38.9101 31.2927C38.6888 31.6489 38.4744 31.9843 38.2566 32.3301L39.2075 32.93L39.9423 31.7733L40.2484 31.9618C39.925 32.4805 39.6138 32.9681 39.3026 33.4608C39.1677 33.4349 36.9045 32.024 36.5898 31.7837Z" fill="white"/>
<path fill-rule="evenodd" clip-rule="evenodd" d="M40.6032 27.2158L41.6872 27.5045C41.8083 27.0567 41.9241 26.6245 42.0434 26.1767L42.3892 26.2683L41.9293 28.0094L38.8379 27.195L39.2805 25.5197L39.6263 25.6113C39.5156 26.0297 39.4102 26.4377 39.2978 26.8648C39.6021 26.9651 39.915 27.0377 40.2401 27.1224C40.3663 26.7351 40.4406 26.3357 40.5721 25.9363L40.9057 26.0262C40.8089 26.4256 40.7069 26.8129 40.6032 27.2158Z" fill="white"/>
<path fill-rule="evenodd" clip-rule="evenodd" d="M30.7117 36.9827C30.7653 37.0968 30.812 37.1919 30.8673 37.3078L29.6865 37.861L30.0997 38.7515L31.2183 38.2328L31.367 38.5526L30.2518 39.0713C30.4092 39.4171 30.5648 39.7439 30.7238 40.0914L31.9687 39.5174L32.1243 39.8407L30.4904 40.6015C30.0392 39.6332 29.5965 38.6788 29.1436 37.7054L30.7117 36.9827Z" fill="white"/>
<path fill-rule="evenodd" clip-rule="evenodd" d="M21.1298 40.5824L19.9351 40.4216C19.8419 40.7852 19.784 41.1569 19.7622 41.5316L21.0849 41.7201C21.1076 41.8401 21.0937 41.9642 21.0451 42.0763L19.2764 41.8307C19.4233 40.7743 19.5668 39.7335 19.7138 38.6685L21.4047 38.9019C21.421 39.022 21.4104 39.1442 21.3736 39.2598L20.089 39.0869C20.044 39.4206 20.0008 39.7318 19.9559 40.0551L21.1661 40.228C21.1575 40.3542 21.1454 40.4545 21.1298 40.5824Z" fill="white"/>
<path fill-rule="evenodd" clip-rule="evenodd" d="M23.4775 38.9763L23.9409 38.921L25.0855 41.4885C25.1149 41.3312 25.1374 41.1877 25.1667 41.0424C25.3206 40.3024 25.4762 39.5642 25.6284 38.8242C25.6293 38.8066 25.6336 38.7894 25.6413 38.7735C25.6489 38.7577 25.6597 38.7435 25.6729 38.7319C25.6861 38.7203 25.7016 38.7115 25.7183 38.7059C25.735 38.7004 25.7526 38.6983 25.7702 38.6997C25.8722 38.6997 25.9724 38.6807 26.0745 38.6703C26.0848 38.8034 25.4019 41.8153 25.3275 41.9709L24.8901 42.0228L23.4775 38.9763Z" fill="white"/>
<path fill-rule="evenodd" clip-rule="evenodd" d="M5.53838 20.7373L5.56431 20.803H5.89109C5.86362 20.8365 5.83418 20.8682 5.80291 20.8981C5.71393 20.9787 5.61916 21.0527 5.51936 21.1194C5.38943 21.2235 5.27782 21.3486 5.18912 21.4894C5.17429 21.5291 5.16845 21.5715 5.17204 21.6137C5.17563 21.6558 5.18855 21.6967 5.20987 21.7332C5.27384 21.8145 5.38277 21.8715 5.343 22.0064C5.40357 22.1007 5.47119 22.1903 5.54529 22.2744C5.59543 22.3245 5.6473 22.3608 5.62137 22.4352C5.60922 22.4658 5.58703 22.4914 5.55844 22.5077C5.52985 22.524 5.49656 22.5302 5.46403 22.5251C5.41349 22.5342 5.36144 22.5301 5.31296 22.5131C5.26448 22.4962 5.22122 22.4669 5.1874 22.4283C5.15109 22.3816 5.0802 22.3643 5.0266 22.3297C4.973 22.2951 4.93842 22.2779 4.93497 22.2485C4.91768 22.1015 4.80011 22.0635 4.68254 22.0012C4.55113 22.0877 4.41109 22.1741 4.28487 22.2692C4.22038 22.3265 4.16602 22.3944 4.12408 22.4698C4.05319 22.5804 3.95118 22.6427 3.87338 22.596C3.79557 22.5493 3.76272 22.4421 3.82496 22.3211C3.87203 22.2231 3.89344 22.1149 3.88721 22.0064C3.88209 21.9634 3.89055 21.9199 3.91141 21.8819C3.94657 21.8297 3.97068 21.7709 3.98228 21.7091C3.99387 21.6472 3.99271 21.5837 3.97884 21.5223L3.2959 21.1506V21.1125L4.30043 21.0105C4.39553 20.6785 4.48889 20.35 4.59263 19.9904C4.66336 20.1233 4.71737 20.2644 4.75342 20.4106C4.80183 20.542 4.84333 20.6768 4.88483 20.8048C5.12342 20.8566 5.32398 20.7477 5.53838 20.7373Z" fill="white"/>
<path fill-rule="evenodd" clip-rule="evenodd" d="M41.9998 20.9552C41.9047 21.033 41.8113 21.1142 41.711 21.1868C41.5552 21.2927 41.4238 21.4307 41.3255 21.5914C41.3074 21.6326 41.2989 21.6773 41.3007 21.7223C41.3025 21.7672 41.3145 21.8112 41.3358 21.8508C41.414 21.9235 41.4657 22.0202 41.4828 22.1257C41.4966 22.2225 41.6004 22.3107 41.6765 22.3919C41.718 22.4369 41.7715 22.468 41.7543 22.5389C41.737 22.6098 41.673 22.6357 41.6038 22.6392C41.551 22.652 41.4956 22.6492 41.4443 22.6311C41.393 22.613 41.3481 22.5804 41.3151 22.5372C41.3053 22.5241 41.2922 22.5139 41.2771 22.5078C41.1578 22.4473 41.0419 22.3937 41.0091 22.2363C40.9987 22.1896 40.8967 22.162 40.8362 22.1257C40.6681 22.1907 40.5138 22.2869 40.3815 22.4092C40.3386 22.4506 40.3008 22.4971 40.2691 22.5475C40.257 22.5631 40.2518 22.5873 40.2397 22.6046C40.2191 22.6464 40.185 22.68 40.143 22.7001C40.101 22.7201 40.0534 22.7255 40.008 22.7152C39.9865 22.7031 39.9677 22.6868 39.9527 22.6671C39.9377 22.6475 39.9269 22.625 39.9209 22.6011C39.9149 22.5771 39.9139 22.5522 39.9179 22.5278C39.9218 22.5035 39.9307 22.4802 39.944 22.4594C40.0036 22.3425 40.0294 22.2114 40.0184 22.0807C40.0146 22.0485 40.0226 22.0159 40.0408 21.9891C40.1429 21.8905 40.1014 21.7678 40.1135 21.6433L39.4219 21.2716C39.4219 21.2594 39.4219 21.2473 39.4219 21.2352C39.7487 21.1799 40.0823 21.1765 40.4264 21.1246C40.518 20.8013 40.6131 20.4728 40.7151 20.1149C40.7889 20.2465 40.8436 20.388 40.8777 20.535C40.9226 20.6681 40.9676 20.8013 41.0125 20.9309C41.168 20.9407 41.3241 20.9244 41.4742 20.8825C41.5485 20.8739 41.6384 20.803 41.6989 20.9137H41.9738L41.9998 20.9552Z" fill="white"/>
<path fill-rule="evenodd" clip-rule="evenodd" d="M33.06 35.603C33.0946 35.7223 33.1222 35.8261 33.1551 35.9488L32.9632 36.0007C32.7388 36.0515 32.5365 36.1727 32.3857 36.3465C32.3123 36.4288 32.2717 36.5353 32.2717 36.6456C32.2717 36.7559 32.3123 36.8624 32.3857 36.9447C32.4227 36.9926 32.4705 37.0312 32.5251 37.0574C32.5798 37.0835 32.6398 37.0964 32.7004 37.0951C32.8574 37.0864 33.0138 37.0691 33.1689 37.0433C33.3918 36.9933 33.6203 36.9735 33.8484 36.9845C33.9795 37.0097 34.1032 37.0645 34.21 37.1445C34.3168 37.2246 34.404 37.328 34.465 37.4468C34.526 37.5656 34.5591 37.6966 34.5619 37.8301C34.5647 37.9636 34.5371 38.096 34.4812 38.2172C34.429 38.3254 34.3608 38.425 34.2789 38.5129C34.0358 38.7762 33.7167 38.9575 33.366 39.0316C33.3145 39.0395 33.2625 39.0441 33.2104 39.0454L33.1032 38.6996L33.2398 38.6702C33.5233 38.6323 33.7867 38.503 33.9902 38.302C34.089 38.2133 34.1492 38.0895 34.1579 37.957C34.1666 37.8246 34.1232 37.6939 34.0369 37.5931C33.9964 37.5343 33.9421 37.4864 33.8788 37.4536C33.8155 37.4207 33.7451 37.4039 33.6738 37.4046C33.5166 37.4135 33.3601 37.4319 33.2052 37.4599C32.9896 37.5178 32.7651 37.5354 32.543 37.5118C32.4259 37.4922 32.3146 37.447 32.217 37.3794C32.1194 37.3118 32.038 37.2235 31.9785 37.1207C31.919 37.018 31.883 36.9033 31.873 36.785C31.863 36.6667 31.8792 36.5477 31.9206 36.4364C31.9768 36.2763 32.0726 36.133 32.199 36.0197C32.4351 35.7939 32.7364 35.6481 33.06 35.603Z" fill="white"/>
<path fill-rule="evenodd" clip-rule="evenodd" d="M19.387 38.7273L19.1986 39.0109L19.0568 38.914C18.8802 38.7845 18.6702 38.7083 18.4516 38.6945C18.3912 38.6852 18.3295 38.6884 18.2702 38.7036C18.211 38.7189 18.1555 38.746 18.107 38.7834C18.0585 38.8207 18.0181 38.8674 17.9882 38.9208C17.9583 38.9742 17.9395 39.033 17.933 39.0939C17.9216 39.15 17.9232 39.2079 17.9375 39.2634C17.9519 39.3188 17.9787 39.3702 18.0159 39.4137C18.1084 39.5172 18.2084 39.6137 18.3151 39.7024C18.4136 39.7889 18.5208 39.8632 18.6228 39.9445C18.6609 39.9756 18.6954 40.0119 18.73 40.0465C18.8502 40.166 18.9334 40.3176 18.9695 40.4832C19.0056 40.6487 18.9932 40.8212 18.9337 40.9799C18.8742 41.1386 18.7701 41.2767 18.634 41.3776C18.4979 41.4786 18.3355 41.5381 18.1664 41.549C17.9481 41.5654 17.7288 41.5384 17.5211 41.4696C17.3133 41.4007 17.1213 41.2914 16.9561 41.1479C16.9473 41.1411 16.9397 41.1329 16.9336 41.1237C16.9336 41.115 16.9336 41.1046 16.9111 41.0787L17.084 40.7865L17.2172 40.8885C17.4437 41.0813 17.7306 41.1884 18.028 41.1911C18.1241 41.1955 18.2192 41.1705 18.3007 41.1196C18.3823 41.0686 18.4464 40.9941 18.4845 40.9058C18.5324 40.819 18.5526 40.7197 18.5424 40.6211C18.5322 40.5225 18.4921 40.4294 18.4274 40.3543C18.326 40.249 18.218 40.1503 18.1041 40.0586C17.9713 39.955 17.8438 39.8448 17.722 39.7284C17.6117 39.6214 17.5362 39.4837 17.5054 39.3332C17.4745 39.1827 17.4898 39.0264 17.5491 38.8846C17.6 38.738 17.6926 38.6094 17.8154 38.5146C17.9382 38.4197 18.086 38.3626 18.2407 38.3504C18.4388 38.3262 18.6397 38.3427 18.8311 38.3989C19.0226 38.4551 19.2006 38.5498 19.3542 38.6772C19.3661 38.6932 19.377 38.71 19.387 38.7273Z" fill="white"/>
<path fill-rule="evenodd" clip-rule="evenodd" d="M34.9586 33.9484C35.0053 34.0452 35.0537 34.1403 35.1056 34.2492C35.0554 34.2752 35.0139 34.2994 34.9724 34.3184C34.7257 34.4242 34.5103 34.5915 34.3466 34.8042C34.2188 34.9554 34.1359 35.1394 34.1075 35.3353C34.0791 35.5313 34.1062 35.7312 34.1858 35.9125C34.2619 36.1046 34.3752 36.2798 34.519 36.4281C34.6629 36.5765 34.8346 36.695 35.0243 36.777C35.1515 36.8342 35.2894 36.8639 35.4289 36.8639C35.5684 36.8639 35.7063 36.8342 35.8335 36.777C36.1436 36.6365 36.4032 36.4041 36.5769 36.1113C36.6011 36.075 36.6202 36.037 36.6513 35.9851C36.6997 36.0145 36.7464 36.0387 36.7896 36.0681C36.8328 36.0975 36.8778 36.1303 36.9244 36.1632C36.9231 36.191 36.9173 36.2185 36.9072 36.2445C36.6593 36.6989 36.2532 37.0465 35.766 37.2213C35.5683 37.287 35.3579 37.3055 35.1517 37.2755C34.9454 37.2455 34.7491 37.1677 34.5782 37.0484C34.2379 36.8361 33.972 36.5231 33.8175 36.1528C33.7211 35.9348 33.6789 35.6967 33.6946 35.4588C33.7103 35.221 33.7833 34.9904 33.9074 34.7869C34.1098 34.4474 34.4066 34.1741 34.7615 34.0002C34.801 33.9815 34.8414 33.9647 34.8825 33.9501C34.9078 33.9475 34.9332 33.9469 34.9586 33.9484Z" fill="white"/>
<path fill-rule="evenodd" clip-rule="evenodd" d="M29.093 37.8697C29.093 37.9302 29.1016 37.9838 29.1016 38.0426C29.1016 38.1014 29.1016 38.1481 29.1016 38.2155C29.0083 38.2155 28.9287 38.2155 28.8371 38.2155C28.4741 38.2292 28.1301 38.3814 27.8758 38.6409C27.7127 38.8121 27.6159 39.0358 27.6026 39.2719C27.578 39.5938 27.6477 39.9158 27.8032 40.1987C27.9157 40.435 28.1096 40.6229 28.3493 40.728C28.589 40.833 28.8585 40.8483 29.1086 40.771C29.3678 40.7058 29.6097 40.5848 29.8174 40.4165C29.8814 40.5116 29.9402 40.5998 30.0214 40.7243C29.9865 40.7415 29.9524 40.7606 29.9194 40.7813C29.5517 41.0497 29.1091 41.196 28.6538 41.1997C28.4322 41.2017 28.2135 41.1489 28.0172 41.046C27.8208 40.9432 27.6529 40.7935 27.5283 40.6102C27.238 40.2114 27.114 39.7154 27.1825 39.227C27.2069 39.0314 27.2716 38.843 27.3725 38.6737C27.4734 38.5044 27.6082 38.3578 27.7686 38.2432C28.1034 37.9952 28.507 37.8575 28.9236 37.849C28.9615 37.8464 28.9997 37.8464 29.0377 37.849C29.0565 37.8547 29.075 37.8617 29.093 37.8697Z" fill="white"/>
<path fill-rule="evenodd" clip-rule="evenodd" d="M8.83138 31.533L8.51325 31.7059L8.02568 30.8847L5.57918 32.2869L5.36133 31.9151L7.80956 30.506L7.33409 29.6692L7.64876 29.4842L8.83138 31.533Z" fill="white"/>
<path fill-rule="evenodd" clip-rule="evenodd" d="M15.7923 40.5012L15.6488 40.8262C15.1041 40.5963 14.5733 40.3525 14.0166 40.1104L15.303 37.1885L15.6954 37.3614C15.3151 38.2259 14.9381 39.0782 14.5543 39.9548L15.7923 40.5012Z" fill="white"/>
<path fill-rule="evenodd" clip-rule="evenodd" d="M6.51962 33.7374L6.2793 33.3917L8.89523 31.571L9.14421 31.9168L6.51962 33.7374Z" fill="white"/>
<path fill-rule="evenodd" clip-rule="evenodd" d="M26.123 38.6045L26.5415 38.5198C26.768 39.5572 26.9893 40.5945 27.214 41.6319L26.8008 41.7253C26.5622 40.6879 26.3495 39.6592 26.123 38.6045Z" fill="white"/>
<path fill-rule="evenodd" clip-rule="evenodd" d="M10.5036 11.0516L10.5555 10.979C10.5764 10.9731 10.5978 10.9691 10.6194 10.9669L11.9905 11.0049C12.0217 11.0083 12.0525 11.0153 12.0822 11.0256C12.0631 11.1674 12.0631 11.1691 11.9421 11.1761L11.0448 11.2176C10.8563 11.2176 10.8563 11.2176 10.8269 11.4043C10.7906 11.6187 10.756 11.8331 10.718 12.0665L10.2979 12.0388C10.3402 11.7048 10.409 11.3747 10.5036 11.0516Z" fill="white"/>
<path fill-rule="evenodd" clip-rule="evenodd" d="M13.2236 31.2183C11.1892 29.0436 9.97937 26.2258 9.80371 23.253C9.8335 23.2404 9.86495 23.2323 9.89708 23.2288C10.8826 23.2288 11.8681 23.2409 12.8554 23.2426C14.2558 23.2426 15.6557 23.2426 17.055 23.2426C17.1028 23.2401 17.1506 23.2483 17.1948 23.2666C17.2391 23.2848 17.2787 23.3126 17.3109 23.3481C17.419 23.4602 17.5486 23.5494 17.6919 23.6104C17.8352 23.6713 17.9894 23.7027 18.1451 23.7027C18.3009 23.7027 18.4551 23.6713 18.5984 23.6104C18.7417 23.5494 18.8713 23.4602 18.9794 23.3481C19.0118 23.3127 19.0514 23.2846 19.0955 23.2658C19.1396 23.247 19.1873 23.2379 19.2353 23.2391C19.9269 23.2391 20.6081 23.2391 21.2945 23.2391C21.3308 23.2391 21.3688 23.2391 21.4276 23.2391C21.4054 23.2728 21.3811 23.3052 21.355 23.336C20.8778 23.7976 20.3989 24.2592 19.9234 24.7191C19.8962 24.7485 19.8624 24.771 19.8249 24.7848C19.7873 24.7986 19.747 24.8034 19.7073 24.7987C19.5491 24.7888 19.3906 24.8113 19.2415 24.8649C19.0924 24.9185 18.9559 25.0021 18.8402 25.1104C18.7246 25.2188 18.6324 25.3496 18.5692 25.4949C18.506 25.6402 18.4732 25.7969 18.4728 25.9554C18.4746 26.0114 18.4638 26.0672 18.4414 26.1186C18.419 26.1701 18.3854 26.2159 18.3431 26.2527C17.3783 27.1841 16.4147 28.116 15.4523 29.0485L13.3516 31.099C13.3135 31.1371 13.2738 31.1734 13.2236 31.2183Z" fill="#E94100"/>
<path fill-rule="evenodd" clip-rule="evenodd" d="M9.80176 21.8162C9.86237 20.5272 10.1237 19.2555 10.5763 18.047C11.1666 16.4492 12.0721 14.9863 13.239 13.7454C13.3081 13.8041 13.3686 13.8474 13.4119 13.901C14.2072 14.7257 14.9973 15.5521 15.7927 16.3751C16.6122 17.2258 17.4346 18.0747 18.2599 18.9219C18.3245 18.9868 18.3637 19.0727 18.3706 19.164C18.3904 19.4416 18.5091 19.703 18.7051 19.9006C18.9012 20.0983 19.1616 20.2191 19.4391 20.2411C19.4974 20.2473 19.5524 20.2715 19.5964 20.3103C20.058 20.7806 20.5162 21.256 20.9796 21.7298C20.9987 21.7544 21.016 21.7804 21.0314 21.8076C20.9709 21.8076 20.9294 21.8179 20.8879 21.8179C20.3433 21.8179 19.7987 21.8179 19.2523 21.8179C19.2017 21.8205 19.1512 21.8119 19.1043 21.7928C19.0574 21.7737 19.0153 21.7445 18.9809 21.7073C18.8722 21.5936 18.7417 21.5032 18.5971 21.4414C18.4526 21.3796 18.297 21.3477 18.1397 21.3477C17.9825 21.3477 17.8269 21.3796 17.6823 21.4414C17.5378 21.5032 17.4072 21.5936 17.2986 21.7073C17.2683 21.7411 17.2308 21.7678 17.189 21.7854C17.1471 21.803 17.1019 21.8112 17.0565 21.8093H11.2731C10.8201 21.8093 10.3671 21.8093 9.91587 21.8179C9.87783 21.8193 9.83974 21.8188 9.80176 21.8162Z" fill="#E94100"/>
<path fill-rule="evenodd" clip-rule="evenodd" d="M23.6234 21.1177C23.6234 21.0434 23.613 20.9915 23.613 20.9448C23.613 20.2532 23.613 19.5616 23.613 18.87C23.6095 18.8115 23.6191 18.753 23.6409 18.6986C23.6627 18.6442 23.6963 18.5953 23.7392 18.5554C23.9559 18.3392 24.0783 18.0462 24.0799 17.7402C24.0816 17.4342 23.9622 17.1399 23.7479 16.9215C23.7029 16.8799 23.6676 16.8289 23.6446 16.7721C23.6216 16.7153 23.6114 16.6542 23.6147 16.593C23.6147 14.5182 23.6147 12.4434 23.6147 10.3687V9.78082C23.6873 9.78082 23.7461 9.78082 23.8015 9.78082C24.4531 9.84222 25.0985 9.95789 25.731 10.1266C27.4737 10.5705 29.1017 11.381 30.5064 12.504C30.8384 12.7685 31.1461 13.0624 31.4643 13.3442C31.5015 13.3803 31.5367 13.4184 31.5697 13.4584C31.4988 13.531 31.4366 13.5967 31.3709 13.6606L27.8853 17.0391C27.4824 17.4298 27.0744 17.8154 26.675 18.2078C26.6471 18.2366 26.6121 18.2575 26.5736 18.2684C26.535 18.2793 26.4943 18.2799 26.4554 18.2701C26.1595 18.2186 25.8551 18.2847 25.6071 18.4542C25.3591 18.6238 25.1871 18.8834 25.1276 19.1778C25.1048 19.3172 25.1002 19.459 25.1137 19.5997C25.1196 19.6307 25.1177 19.6626 25.1084 19.6928C25.099 19.7229 25.0825 19.7503 25.0601 19.7726C24.6118 20.2037 24.1651 20.6353 23.7202 21.0676C23.7029 21.071 23.6752 21.0849 23.6234 21.1177Z" fill="#E94100"/>
<path fill-rule="evenodd" clip-rule="evenodd" d="M22.1847 20.9033C22.1294 20.8531 22.0913 20.8186 22.055 20.7823C21.6297 20.3448 21.2061 19.9039 20.7773 19.47C20.7457 19.4373 20.7228 19.3972 20.7108 19.3534C20.6987 19.3096 20.6978 19.2635 20.7081 19.2193C20.7392 19.0074 20.71 18.791 20.6238 18.595C20.5375 18.399 20.3978 18.2312 20.2206 18.111C19.9886 17.9425 19.7008 17.8694 19.4166 17.907C19.3745 17.9146 19.3312 17.9112 19.2908 17.8969C19.2505 17.8827 19.2146 17.8581 19.1867 17.8257C18.2957 16.9036 17.4024 15.9815 16.5067 15.0593C15.9074 14.4427 15.3068 13.8266 14.7052 13.2111C14.5651 13.0676 14.4268 12.9223 14.2764 12.7633C16.4926 10.876 19.287 9.80237 22.1968 9.72028C22.1968 9.805 22.1968 9.86724 22.1968 9.93121V14.551C22.1968 15.2426 22.1968 15.9463 22.1968 16.6431C22.1985 16.6884 22.1902 16.7336 22.1726 16.7754C22.155 16.8172 22.1284 16.8547 22.0948 16.8851C21.9803 16.9946 21.8893 17.1263 21.8274 17.2722C21.7655 17.418 21.734 17.5749 21.7348 17.7333C21.7357 17.8918 21.7688 18.0484 21.8321 18.1935C21.8955 18.3387 21.9878 18.4695 22.1034 18.5778C22.1326 18.6017 22.1562 18.6317 22.1723 18.6658C22.1885 18.6999 22.1968 18.7372 22.1968 18.7749C22.1968 19.4492 22.1968 20.1252 22.1968 20.8013C22.1946 20.8355 22.1906 20.8695 22.1847 20.9033Z" fill="#E94100"/>
<path fill-rule="evenodd" clip-rule="evenodd" d="M22.1962 35.2728C19.2914 35.1828 16.503 34.1107 14.2861 32.2315C14.4711 32.0362 14.6319 31.8494 14.8169 31.6765L18.5377 28.0699C18.8039 27.8123 19.0702 27.5512 19.333 27.2936C19.3754 27.2493 19.4264 27.2141 19.4829 27.1903C19.5394 27.1665 19.6002 27.1546 19.6615 27.1553C19.8132 27.1559 19.9636 27.1266 20.1039 27.0689C20.2442 27.0112 20.3717 26.9263 20.4791 26.8191C20.5865 26.7119 20.6715 26.5845 20.7294 26.4443C20.7874 26.3041 20.8169 26.1538 20.8165 26.002C20.8141 25.9563 20.8224 25.9106 20.8407 25.8686C20.859 25.8266 20.8868 25.7894 20.9219 25.76C21.3127 25.3865 21.6965 25.0096 22.0855 24.6344C22.1149 24.6068 22.1478 24.5826 22.1962 24.5428C22.1962 24.6016 22.1962 24.6362 22.1962 24.6725C22.1962 25.1358 22.1962 25.5992 22.1962 26.0556C22.199 26.1062 22.1904 26.1567 22.1709 26.2034C22.1514 26.2501 22.1217 26.2918 22.0838 26.3254C21.9743 26.4321 21.8871 26.5595 21.8272 26.7002C21.7673 26.8409 21.7358 26.992 21.7347 27.145C21.7336 27.2979 21.7628 27.4495 21.8206 27.591C21.8785 27.7326 21.9638 27.8613 22.0717 27.9696C22.1142 28.0099 22.1474 28.0588 22.1692 28.1132C22.191 28.1675 22.2008 28.2258 22.1979 28.2843C22.1979 29.9579 22.1979 31.6298 22.1979 33.2983C22.1979 33.8585 22.1979 34.4204 22.1979 34.9823L22.1962 35.2728Z" fill="#E94100"/>
<path fill-rule="evenodd" clip-rule="evenodd" d="M24.4561 23.2426H24.629C25.222 23.2426 25.8168 23.2426 26.4098 23.2426C26.4552 23.2405 26.5005 23.2485 26.5424 23.2662C26.5843 23.2838 26.6217 23.3106 26.6519 23.3446C26.7602 23.4582 26.8904 23.5486 27.0347 23.6103C27.179 23.6721 27.3343 23.7039 27.4913 23.7039C27.6482 23.7039 27.8035 23.6721 27.9478 23.6103C28.0921 23.5486 28.2223 23.4582 28.3307 23.3446C28.3628 23.3092 28.4025 23.2815 28.4468 23.2635C28.4911 23.2456 28.5389 23.2378 28.5866 23.2409H35.2898C35.3224 23.3587 35.326 23.4827 35.3002 23.6022C35.0578 26.3368 33.9446 28.9215 32.1241 30.9763C32.0981 31.004 32.0756 31.0351 32.0428 31.0731C31.9961 31.0334 31.9598 31.004 31.9269 30.9711L29.9265 28.905C29.3905 28.3552 28.8557 27.8048 28.322 27.2538L27.3313 26.2337C27.3048 26.21 27.284 26.1805 27.2706 26.1476C27.2571 26.1146 27.2513 26.0791 27.2535 26.0435C27.2628 25.8839 27.2391 25.7241 27.1841 25.5739C27.1291 25.4238 27.0438 25.2865 26.9336 25.1706C26.8234 25.0547 26.6906 24.9627 26.5434 24.9002C26.3962 24.8377 26.2377 24.8061 26.0778 24.8073C26.0378 24.8096 25.9977 24.8029 25.9606 24.7876C25.9235 24.7724 25.8903 24.749 25.8634 24.7192C25.426 24.2627 24.9868 23.8097 24.5477 23.355C24.5252 23.3325 24.5045 23.3031 24.4561 23.2426Z" fill="#E94100"/>
<path fill-rule="evenodd" clip-rule="evenodd" d="M23.6227 35.2278V30.1515C23.6227 29.5308 23.6227 28.9101 23.6227 28.2877C23.6195 28.2317 23.6286 28.1758 23.6496 28.1237C23.6705 28.0717 23.7026 28.025 23.7437 27.9869C23.8525 27.8792 23.9388 27.751 23.9977 27.6097C24.0566 27.4685 24.0869 27.3169 24.0869 27.1639C24.0869 27.0108 24.0566 26.8593 23.9977 26.718C23.9388 26.5768 23.8525 26.4486 23.7437 26.3409C23.7033 26.303 23.6715 26.2568 23.6506 26.2055C23.6297 26.1541 23.6202 26.0989 23.6227 26.0435C23.6227 25.5801 23.6227 25.1168 23.6227 24.6603C23.6227 24.6136 23.6227 24.567 23.6348 24.4874C23.685 24.5307 23.7178 24.5549 23.7472 24.5825C24.112 24.9577 24.4734 25.3346 24.8399 25.7081C24.8668 25.7341 24.8875 25.7657 24.9007 25.8007C24.9138 25.8357 24.9191 25.8731 24.916 25.9104C24.9044 26.074 24.9275 26.2383 24.9837 26.3924C25.0399 26.5466 25.128 26.6871 25.2422 26.8049C25.3564 26.9227 25.4942 27.0151 25.6465 27.0761C25.7989 27.137 25.9623 27.1652 26.1263 27.1587C26.1662 27.1583 26.2058 27.1665 26.2422 27.183C26.2786 27.1994 26.3111 27.2236 26.3372 27.2538C26.8836 27.8226 27.4351 28.388 27.9849 28.9551L30.9138 31.986C30.9397 32.0136 30.9622 32.043 31.0002 32.088C28.9416 33.8991 26.3551 34.9999 23.6227 35.2278Z" fill="#E94100"/>
<path fill-rule="evenodd" clip-rule="evenodd" d="M32.543 14.5009C34.2078 16.5881 35.1813 19.1418 35.3284 21.8076C35.2489 21.8076 35.197 21.8179 35.1434 21.8179H28.5889C28.5413 21.8213 28.4936 21.8139 28.4493 21.7962C28.4049 21.7786 28.3652 21.7511 28.333 21.7159C28.2248 21.6019 28.0945 21.5111 27.95 21.449C27.8055 21.3869 27.6499 21.3549 27.4927 21.3549C27.3355 21.3549 27.1799 21.3869 27.0354 21.449C26.891 21.5111 26.7607 21.6019 26.6524 21.7159C26.6203 21.7517 26.5808 21.7802 26.5366 21.7993C26.4924 21.8184 26.4447 21.8277 26.3965 21.8266C25.9989 21.8266 25.5995 21.8266 25.2018 21.8266C25.15 21.8266 25.0964 21.8266 25.0186 21.8179C25.0601 21.7678 25.0825 21.7332 25.1102 21.7056L26.1476 20.6906C26.2113 20.6239 26.2976 20.5832 26.3896 20.5765C26.65 20.5549 26.8951 20.4445 27.0839 20.2639C27.2728 20.0833 27.3939 19.8433 27.427 19.5841C27.4369 19.4869 27.4817 19.3965 27.5532 19.3299C28.4385 18.4758 29.3231 17.62 30.2072 16.7624L32.384 14.6496C32.4289 14.6047 32.4773 14.5614 32.543 14.5009Z" fill="#E94100"/>
<path fill-rule="evenodd" clip-rule="evenodd" d="M7.74031 11.0723L7.51209 11.0015C7.52246 11.0775 7.52938 11.1415 7.53975 11.2245C6.99513 11.3369 6.44531 11.4216 5.90068 11.5271C5.90068 11.5081 5.88512 11.4959 5.88685 11.4925C6.07877 11.2003 6.26377 10.9064 6.46433 10.628C6.60622 10.4314 6.75799 10.2421 6.91905 10.0609C7.07985 9.8759 7.25274 9.70127 7.42045 9.52319C7.64003 9.28978 7.85788 9.05464 8.09302 8.80566L8.62901 9.30015L8.17256 9.79118C8.09821 9.87071 8.02386 9.95024 7.95298 10.0315C7.81758 10.1639 7.72495 10.3338 7.68705 10.5193C7.64914 10.7048 7.66769 10.8975 7.74031 11.0723Z" fill="#36306E"/>
<path fill-rule="evenodd" clip-rule="evenodd" d="M12.6003 7.13372C12.8787 6.8519 13.0222 6.53722 12.8528 6.16031C12.6833 5.78339 12.3704 5.71769 11.9883 5.70213C12.028 5.67101 12.0523 5.6468 12.0799 5.62951C12.4136 5.42031 12.7456 5.21283 13.0793 5.00708C13.0966 4.99349 13.1158 4.98243 13.1363 4.97423L13.6118 4.81689C13.7847 5.20246 13.9749 5.58975 14.1443 5.94764C14.0907 6.0583 14.0475 6.14302 14.0095 6.22947C13.9541 6.35914 13.9092 6.494 13.8469 6.62194C13.6031 7.1268 13.1674 7.30835 12.6003 7.13372Z" fill="#453F7A"/>
<path fill-rule="evenodd" clip-rule="evenodd" d="M5.94922 11.8141L7.56062 11.5098C7.60863 11.6476 7.61707 11.7962 7.58498 11.9386C7.55289 12.081 7.48157 12.2115 7.37908 12.3155C7.29319 12.3877 7.1869 12.4314 7.07502 12.4404C6.96314 12.4494 6.85124 12.4232 6.75492 12.3656C6.64427 12.3051 6.54226 12.2307 6.43852 12.1616C6.2881 12.063 6.13941 11.9628 5.99071 11.8625C5.98726 11.8659 5.97688 11.8469 5.94922 11.8141Z" fill="#36306E"/>
<path fill-rule="evenodd" clip-rule="evenodd" d="M29.8613 5.87331C30.6411 6.02891 31.2445 5.37363 30.712 4.56274C31.2949 4.76852 31.8469 5.05298 32.3528 5.40821L31.6768 6.54934C31.471 6.45597 31.2877 6.58219 31.0941 6.59775C30.9593 6.61437 30.8236 6.62245 30.6878 6.62195C30.5677 6.61425 30.4508 6.58077 30.3449 6.52378C30.2389 6.46679 30.1466 6.38764 30.074 6.29172C29.9771 6.16704 29.905 6.02503 29.8613 5.87331Z" fill="#36306E"/>
<path fill-rule="evenodd" clip-rule="evenodd" d="M20.1301 4.29995L19.9572 4.10976C19.7688 4.26191 19.5907 4.42097 19.397 4.55756C19.206 4.69269 18.9844 4.77824 18.7521 4.80653C18.7521 4.78925 18.74 4.77714 18.7521 4.77023C18.8161 4.64342 18.8495 4.50336 18.8495 4.36132C18.8495 4.21929 18.8161 4.07923 18.7521 3.95242C18.6628 3.7351 18.5416 3.53231 18.3925 3.35074L18.2715 3.19686C18.3476 3.17438 18.4081 3.15537 18.4686 3.14153C18.766 3.07237 19.0616 3.00322 19.359 2.93924C19.4382 2.92971 19.5179 2.92624 19.5976 2.92887L19.9901 2.90985C20.0298 3.36457 20.0783 3.8141 20.1301 4.29995Z" fill="#36306E"/>
<path fill-rule="evenodd" clip-rule="evenodd" d="M7.74921 34.4792C7.74693 34.2964 7.79605 34.1167 7.89099 33.9605C8.00396 33.7515 8.1586 33.5678 8.34536 33.4209C8.53211 33.274 8.74702 33.1669 8.97678 33.1064C9.20674 33.0383 9.45427 33.0634 9.66586 33.1763C9.87745 33.2892 10.0361 33.4808 10.1075 33.7098C10.1814 33.9463 10.1584 34.2025 10.0436 34.4221C9.9323 34.6665 9.76454 34.881 9.55412 35.0478C9.34369 35.2147 9.09662 35.3291 8.83328 35.3817C8.70056 35.409 8.5634 35.406 8.43197 35.3731C8.30054 35.3401 8.17823 35.278 8.07409 35.1913C7.96996 35.1046 7.88668 34.9956 7.83044 34.8723C7.7742 34.749 7.74644 34.6147 7.74921 34.4792Z" fill="#36306E"/>
<path fill-rule="evenodd" clip-rule="evenodd" d="M22.0527 40.4062V39.2841C22.3087 39.215 22.5798 39.2264 22.829 39.3169C22.9306 39.3517 23.0181 39.4186 23.0783 39.5075C23.1385 39.5964 23.1681 39.7025 23.1627 39.8097C23.1701 39.9159 23.1457 40.0218 23.0928 40.1142C23.0398 40.2065 22.9607 40.2811 22.8654 40.3284C22.7919 40.3637 22.714 40.3887 22.6337 40.4027C22.4415 40.4359 22.2452 40.437 22.0527 40.4062Z" fill="#36306E"/>
<path fill-rule="evenodd" clip-rule="evenodd" d="M5.50195 29.1246L6.97331 28.9828L5.8685 29.9666L5.50195 29.1246Z" fill="#37316F"/>
<path fill-rule="evenodd" clip-rule="evenodd" d="M12.7393 37.8524L13.8579 36.8876L13.5277 38.3296L12.7393 37.8524Z" fill="#36306E"/>
</g>
<defs>
<clipPath id="clip0_374_272">
<rect width="45" height="45" fill="white"/>
</clipPath>
</defs>
</svg>
