<svg width="36" height="45" viewBox="0 0 36 45" fill="none" xmlns="http://www.w3.org/2000/svg">
<path d="M11.7169 43.8555L9.76815 40.1809C9.5631 39.7943 9.11249 39.6076 8.69404 39.736L4.7177 40.9562C3.97969 41.1827 3.31128 40.4476 3.60668 39.7344L10.6192 22.8052L20.3789 26.8479L13.3664 43.7771C13.0711 44.4903 12.0786 44.5375 11.7169 43.8555Z" fill="#FFE07D"/>
<path d="M15.2468 24.7222L9.04248 39.7002C9.34271 39.727 9.61983 39.9012 9.76819 40.1809L11.717 43.8555C12.0787 44.5375 13.0711 44.4904 13.3665 43.7772L20.379 26.848L15.2468 24.7222Z" fill="#FFD064"/>
<path d="M23.9539 43.8555L25.9027 40.1809C26.1078 39.7943 26.5584 39.6076 26.9768 39.736L30.9532 40.9562C31.6912 41.1827 32.3596 40.4476 32.0642 39.7344L25.0517 22.8052L15.292 26.8479L22.3045 43.7771C22.5999 44.4903 23.5923 44.5375 23.9539 43.8555Z" fill="#FFE07D"/>
<path d="M32.0644 39.7344L25.0518 22.8052L19.9375 24.9237L26.1395 39.8963C26.3694 39.7126 26.681 39.6452 26.9769 39.7359L30.9532 40.9562C31.6913 41.1827 32.3598 40.4476 32.0644 39.7344Z" fill="#FFD064"/>
<path d="M19.5963 1.27678C20.3298 1.8587 21.3033 2.04064 22.1974 1.76299C23.4546 1.37258 24.8152 1.89966 25.4812 3.0352C25.9549 3.84274 26.7969 4.36411 27.7309 4.42818C29.0443 4.51827 30.1226 5.50123 30.3335 6.80069C30.4835 7.72477 31.0803 8.51517 31.9281 8.91235C33.1202 9.4708 33.7706 10.7769 33.4978 12.0648C33.3038 12.9807 33.5749 13.9333 34.2219 14.6098C35.1318 15.5613 35.2664 17.0141 34.5468 18.1165C34.0351 18.9005 33.9437 19.8866 34.3027 20.7513C34.8074 21.9671 34.4082 23.3705 33.339 24.1385C32.5786 24.6846 32.1372 25.5712 32.1595 26.5071C32.1909 27.8232 31.3117 28.9876 30.0372 29.3175C29.1309 29.5521 28.3989 30.2194 28.0817 31.1002C27.6356 32.3387 26.3951 33.1069 25.0876 32.9542C24.1577 32.8455 23.2341 33.2033 22.6201 33.91C21.7567 34.9038 20.3225 35.172 19.1584 34.5572C18.3305 34.12 17.3401 34.12 16.5123 34.5572C15.3482 35.172 13.914 34.9039 13.0505 33.91C12.4365 33.2033 11.513 32.8455 10.5831 32.9542C9.27554 33.1069 8.03497 32.3388 7.58893 31.1002C7.27164 30.2194 6.53978 29.5522 5.63345 29.3175C4.35896 28.9876 3.4797 27.8233 3.51117 26.5071C3.53358 25.5712 3.0921 24.6846 2.33168 24.1385C1.26249 23.3705 0.863203 21.9671 1.36796 20.7513C1.7269 19.8866 1.6355 18.9005 1.1238 18.1165C0.40424 17.0141 0.5388 15.5613 1.44873 14.6098C2.09578 13.9333 2.36683 12.9806 2.17286 12.0648C1.90013 10.7769 2.55044 9.4708 3.74258 8.91235C4.59037 8.51517 5.18723 7.72486 5.33718 6.80069C5.54811 5.50123 6.62635 4.51827 7.9397 4.42818C8.87371 4.36411 9.71579 3.84274 10.1894 3.0352C10.8556 1.89966 12.2161 1.37258 13.4733 1.76299C14.3674 2.04064 15.3409 1.85862 16.0743 1.27678C17.106 0.458521 18.565 0.458521 19.5963 1.27678Z" fill="#E8AE4D"/>
<path d="M17.8354 30.2725C24.7381 30.2725 30.3338 24.6768 30.3338 17.7741C30.3338 10.8714 24.7381 5.27563 17.8354 5.27563C10.9327 5.27563 5.33691 10.8714 5.33691 17.7741C5.33691 24.6768 10.9327 30.2725 17.8354 30.2725Z" fill="#FFE07D"/>
<path d="M17.8353 5.27563C16.8785 5.27563 15.9469 5.38356 15.0518 5.58721C20.6145 6.85256 24.7666 11.8282 24.7666 17.7741C24.7666 23.72 20.6145 28.6957 15.0518 29.961C15.9469 30.1646 16.8786 30.2725 17.8353 30.2725C24.7381 30.2725 30.3338 24.6768 30.3338 17.7741C30.3338 10.8714 24.7381 5.27563 17.8353 5.27563Z" fill="#FFD064"/>
<path d="M18.4145 9.35588L20.1977 14.2406C20.2837 14.4763 20.504 14.6363 20.7548 14.6454L25.9514 14.8318C26.5262 14.8525 26.7623 15.5791 26.3094 15.9337L22.2148 19.139C22.0173 19.2937 21.9331 19.5528 22.002 19.794L23.4306 24.7939C23.5886 25.3469 22.9704 25.796 22.4934 25.4749L18.1796 22.5713C17.9714 22.4312 17.6991 22.4312 17.4909 22.5713L13.1771 25.4749C12.7 25.796 12.0819 25.3469 12.2399 24.7939L13.6685 19.794C13.7374 19.5528 13.6532 19.2937 13.4557 19.139L9.36112 15.9337C8.90822 15.5791 9.14438 14.8525 9.7191 14.8318L14.9157 14.6454C15.1665 14.6364 15.3868 14.4763 15.4728 14.2406L17.256 9.35588C17.4532 8.81562 18.2173 8.81562 18.4145 9.35588Z" fill="#E8AE4D"/>
<path d="M22.4934 25.4748C22.9705 25.7959 23.5887 25.3468 23.4306 24.7938L23.1716 23.8872C22.8936 24.3819 22.5826 24.8556 22.2422 25.3057L22.4934 25.4748Z" fill="#E5A32E"/>
<path d="M25.9514 14.8319L24.4043 14.7764C24.5932 15.5434 24.7109 16.3384 24.7508 17.1539L26.3094 15.9337C26.7623 15.5792 26.5262 14.8525 25.9514 14.8319Z" fill="#E5A32E"/>
<path d="M35.0987 18.4768C35.9904 17.1107 35.8257 15.3333 34.6982 14.1543C34.2013 13.6347 33.9936 12.9047 34.1425 12.2014C34.4806 10.6054 33.6849 9.00745 32.2075 8.31549C31.5565 8.01051 31.0991 7.40477 30.9838 6.69514C30.7225 5.08481 29.4033 3.88221 27.7758 3.77059C27.0586 3.72137 26.4132 3.32182 26.0494 2.70166C25.224 1.29463 23.5598 0.649774 22.0015 1.13352C21.3149 1.34674 20.5689 1.20717 20.0056 0.760428C18.7276 -0.253476 16.9427 -0.253476 15.6647 0.760428C15.1015 1.20735 14.3553 1.34674 13.6688 1.13352C12.1109 0.649686 10.4463 1.29454 9.62094 2.70166C9.25716 3.32182 8.61187 3.72137 7.8946 3.77059C6.26704 3.88221 4.9479 5.0849 4.68651 6.69514C4.57137 7.40477 4.1139 8.01051 3.4629 8.31549C1.98564 9.00754 1.18997 10.6055 1.5279 12.2014C1.67688 12.9047 1.46911 13.6348 0.972262 14.1544C-0.155196 15.3334 -0.319991 17.1109 0.571745 18.4769C0.964703 19.0789 1.03475 19.8348 0.75904 20.4988C0.133524 22.0054 0.622106 23.7223 1.94697 24.674C2.53091 25.0935 2.8692 25.773 2.85197 26.4917C2.81304 28.1225 3.88882 29.547 5.46803 29.9559C5.9342 30.0765 6.3392 30.3463 6.62942 30.7142L2.99743 39.4824C2.48846 40.7112 3.64044 41.9765 4.91072 41.5866L8.88706 40.3663C9.00325 40.3309 9.12858 40.3828 9.18544 40.49L11.1342 44.1645C11.7576 45.3399 13.4667 45.257 13.975 44.0296L17.7606 34.8906C17.8102 34.889 17.8599 34.889 17.9095 34.8906L21.6951 44.0296C22.2044 45.2589 23.9133 45.3383 24.5359 44.1646L26.4847 40.49C26.5415 40.3827 26.6669 40.3308 26.7831 40.3664L30.7594 41.5867C32.0304 41.9768 33.1815 40.7106 32.6727 39.4825L29.0407 30.7143C29.3309 30.3464 29.7359 30.0766 30.2021 29.9559C31.7813 29.5472 32.857 28.1226 32.8181 26.4917C32.8009 25.7731 33.1393 25.0936 33.7232 24.6742C35.0482 23.7224 35.5366 22.0055 34.9111 20.4989C34.6358 19.8346 34.7058 19.0787 35.0987 18.4768ZM12.7573 43.5249C12.6746 43.7246 12.3999 43.7368 12.2991 43.5467L10.3503 39.8722C9.99773 39.2075 9.21981 38.8854 8.5006 39.106L4.52427 40.3263C4.31799 40.3894 4.13298 40.1862 4.21559 39.9868L7.43783 32.2074C8.16486 33.2032 9.38021 33.7583 10.6596 33.6088C11.3737 33.5256 12.0814 33.7997 12.553 34.3423C13.237 35.1298 14.2009 35.5478 15.1843 35.5477C15.4954 35.5477 15.8083 35.5042 16.115 35.419L12.7573 43.5249ZM31.1464 40.3262L27.1701 39.106C26.4509 38.8853 25.6728 39.2075 25.3204 39.8721L23.3716 43.5466C23.2709 43.7365 22.9958 43.7242 22.9132 43.5248L19.5562 35.4205C20.8323 35.7747 22.2174 35.3783 23.1177 34.3421C23.5891 33.7994 24.2966 33.5252 25.011 33.6087C26.2916 33.7584 27.5062 33.2031 28.2328 32.2073L31.4552 39.9864C31.538 40.1867 31.3519 40.3891 31.1464 40.3262ZM33.9949 17.7562C33.3637 18.7233 33.2512 19.9374 33.694 21.004C34.0833 21.9419 33.7793 23.0107 32.9544 23.6032C32.0165 24.277 31.473 25.3685 31.5006 26.5229C31.5248 27.5383 30.8551 28.4251 29.8719 28.6795C28.9523 28.9176 28.1801 29.5161 27.7171 30.3255C27.7158 30.3279 27.7145 30.3302 27.7133 30.3325C27.6151 30.505 27.53 30.6866 27.4616 30.8769C27.1175 31.8323 26.1733 32.4178 25.164 32.2995C24.0171 32.1654 22.8799 32.606 22.1226 33.4778C21.4566 34.2444 20.3642 34.4486 19.4662 33.9744C19.1607 33.813 18.8373 33.701 18.507 33.6363C18.5043 33.6357 18.5016 33.635 18.4988 33.6345C18.0601 33.5495 17.6092 33.5496 17.1705 33.6349C17.1689 33.6352 17.1674 33.6356 17.1658 33.6358C16.8347 33.7006 16.5107 33.8128 16.2045 33.9744C15.3065 34.4486 14.2142 34.2444 13.5482 33.4778C12.8804 32.7092 11.9178 32.2759 10.9131 32.2759C10.7783 32.2759 10.6425 32.2837 10.5067 32.2996C9.49842 32.4177 8.55316 31.8325 8.20907 30.877C8.1406 30.6868 8.0557 30.5055 7.95762 30.3331C7.95612 30.3303 7.95463 30.3276 7.95313 30.3248C7.48995 29.5158 6.71801 28.9175 5.79868 28.6795C4.81553 28.425 4.1459 27.5383 4.17016 26.523C4.19775 25.3685 3.65424 24.2771 2.71627 23.6032C1.89151 23.0108 1.58732 21.9419 1.97676 21.004C2.41955 19.9373 2.30705 18.7232 1.67582 17.7561C1.1208 16.9058 1.22328 15.7993 1.92526 15.0654C2.72339 14.2308 3.05711 13.058 2.81787 11.9282C2.60746 10.9347 3.10281 9.93997 4.02241 9.50913C5.06822 9.01923 5.80298 8.04619 5.98808 6.90625C6.15076 5.90377 6.97201 5.15512 7.98513 5.08569C9.13728 5.00668 10.174 4.36481 10.7583 3.36858C11.2722 2.49266 12.3086 2.09135 13.2781 2.39246C14.3811 2.73497 15.5796 2.51094 16.4844 1.79314C17.2798 1.16191 18.3911 1.16191 19.1868 1.79314C20.0914 2.51085 21.2898 2.73506 22.3929 2.39246C23.3628 2.09126 24.399 2.49275 24.9127 3.36858C25.497 4.36473 26.5338 5.00659 27.6859 5.08569C28.6991 5.15521 29.5203 5.90386 29.683 6.90625C29.8681 8.04619 30.6029 9.01923 31.6486 9.50921C32.5683 9.93997 33.0636 10.9347 32.8532 11.9282C32.614 13.058 32.9476 14.2308 33.7458 15.0654C34.4474 15.7993 34.5499 16.9058 33.9949 17.7562Z" fill="black"/>
<path d="M5.35071 16.8861C5.71167 16.9305 6.041 16.6737 6.08538 16.3125C6.81329 10.3961 11.8648 5.93472 17.8355 5.93472C23.809 5.93472 28.8607 10.3985 29.5862 16.318C29.6272 16.6521 29.9114 16.897 30.2396 16.897C30.2664 16.897 30.2934 16.8954 30.3206 16.892C30.682 16.8477 30.9389 16.5189 30.8947 16.1576C30.0883 9.57804 24.474 4.61646 17.8355 4.61646C11.2 4.61646 5.58608 9.57541 4.77696 16.1515C4.73258 16.5128 4.98939 16.8417 5.35071 16.8861Z" fill="black"/>
<path d="M30.3204 18.6555C29.9602 18.6116 29.6303 18.8683 29.586 19.2296C28.8607 25.1494 23.809 29.6134 17.8352 29.6134C11.8641 29.6134 6.81256 25.1516 6.08491 19.2348C6.04053 18.8736 5.71182 18.6169 5.35024 18.6611C4.98901 18.7055 4.73201 19.0344 4.77649 19.3957C5.58525 25.9723 11.1992 30.9316 17.8351 30.9316C24.474 30.9316 30.0882 25.9698 30.8944 19.3899C30.9387 19.0286 30.6817 18.6998 30.3204 18.6555Z" fill="black"/>
<path d="M27.1428 15.0538C26.9752 14.5382 26.517 14.1925 25.9751 14.173L20.8071 13.9877L19.0337 9.1298C18.8478 8.62057 18.3774 8.2915 17.8353 8.2915C17.2932 8.2915 16.8228 8.62057 16.637 9.1298L14.8636 13.9877L9.69555 14.173C9.15379 14.1925 8.69544 14.5382 8.52792 15.0538C8.3604 15.5694 8.52792 16.1185 8.95481 16.4527L13.0269 19.6404L11.6062 24.6128C11.4572 25.1341 11.6444 25.6768 12.0831 25.9955C12.5212 26.3139 13.0952 26.3248 13.5453 26.0217L17.8353 23.1339L22.1253 26.0215C22.5748 26.3242 23.1488 26.314 23.5875 25.9954C24.0262 25.6768 24.2133 25.134 24.0643 24.6127L22.6437 19.6403L26.7157 16.4526C27.1427 16.1184 27.3103 15.5694 27.1428 15.0538ZM21.8087 18.6199C21.3978 18.9415 21.2249 19.4735 21.3684 19.975L22.7649 24.8631L18.5478 22.0245C18.3313 21.8787 18.0833 21.8059 17.8353 21.8059C17.5872 21.8059 17.3392 21.8787 17.1228 22.0244L12.9056 24.863L14.3021 19.975C14.4455 19.4734 14.2727 18.9415 13.8619 18.6199L9.85885 15.4862L14.9394 15.3039C15.4607 15.2852 15.9132 14.9564 16.092 14.4664L17.8353 9.69098L19.5786 14.4664C19.7576 14.9564 20.21 15.2852 20.7313 15.3038L25.8117 15.4861L21.8087 18.6199Z" fill="black"/>
</svg>
