<svg width="45" height="45" viewBox="0 0 45 45" fill="none" xmlns="http://www.w3.org/2000/svg">
<g clip-path="url(#clip0_142_1041)">
<path d="M31.9355 17.4203C31.9355 26.6376 22.5002 34.1135 22.5002 34.1135C22.5002 34.1135 13.0649 26.6376 13.0649 17.4203C13.0649 8.20257 22.5002 0.727051 22.5002 0.727051C22.5002 0.727051 31.9355 8.20257 31.9355 17.4203Z" fill="#91CC04"/>
<path d="M17.4196 44.2744H6.53271V39.1938H17.4196V44.2744Z" fill="#91CC04"/>
<path d="M9.00747 24.9755C8.44222 24.4102 7.52576 24.4102 6.96087 24.9755L6.1043 25.832C5.53905 26.3973 5.53905 27.3138 6.1043 27.8787L6.53241 28.3071L5.50609 27.2808C5.23392 27.0086 5.08082 26.6393 5.08082 26.2545V17.4202C5.08082 16.8149 4.82921 16.2369 4.38551 15.8251C3.94217 15.413 3.3475 15.2042 2.74397 15.2485C1.57803 15.3743 0.701973 16.3705 0.726071 17.5429V27.9105C0.726071 28.6328 0.995408 29.3288 1.48092 29.8632L7.98399 37.0166V39.194H15.9677V33.1385C15.9677 32.3684 15.6619 31.6299 15.1172 31.0852L9.00747 24.9755Z" fill="#FFEB99"/>
<path d="M6.53271 28.3071L9.43588 31.2103L6.53271 28.3071Z" fill="#C6C5CA"/>
<path d="M27.5806 44.2744H38.4674V39.1938H27.5806V44.2744Z" fill="#91CC04"/>
<path d="M35.9928 24.9755C36.5577 24.4102 37.4742 24.4102 38.0394 24.9755L38.896 25.832C39.4609 26.3973 39.4609 27.3138 38.896 27.8787L38.4675 28.3071L39.4938 27.2808C39.766 27.0086 39.9191 26.6393 39.9191 26.2545V17.4202C39.9191 16.8149 40.1711 16.2369 40.6144 15.8251C41.0578 15.413 41.6528 15.2042 42.2563 15.2485C43.4219 15.3743 44.298 16.3705 44.2739 17.5429V27.9105C44.2739 28.6328 44.0049 29.3288 43.519 29.8632L37.0159 37.0166V39.194H29.0322V33.1385C29.0322 32.3684 29.3384 31.6299 29.8831 31.0852L35.9928 24.9755Z" fill="#FFEB99"/>
<path d="M38.4676 28.3071L35.5645 31.2103L38.4676 28.3071Z" fill="#C6C5CA"/>
<path d="M32.661 17.4202C32.661 7.95864 23.3469 0.472139 22.9507 0.157794C22.6867 -0.051296 22.3135 -0.051296 22.0492 0.157794C21.653 0.472139 12.3389 7.95864 12.3389 17.4202C12.3389 26.1013 20.1776 33.1147 21.7742 34.4557V42.0971C21.7742 42.4979 22.0991 42.8229 22.5 42.8229C22.9008 42.8229 23.2257 42.4979 23.2257 42.0971V34.4557C24.8226 33.1147 32.661 26.1013 32.661 17.4202ZM23.2257 32.502V24.2883L27.3193 20.8815C27.6276 20.6249 27.6695 20.167 27.4129 19.8587C27.1563 19.5504 26.6984 19.5086 26.3905 19.7652L23.2257 22.3997V19.9321L27.3193 16.525C27.6276 16.2687 27.6695 15.8109 27.4129 15.5026C27.1563 15.1942 26.6984 15.1524 26.3905 15.409L23.2257 18.045V14.8515L27.3193 11.4444C27.6276 11.1882 27.6695 10.7303 27.4129 10.422C27.1563 10.1137 26.6984 10.0719 26.3905 10.3285L23.2257 12.9644V7.25907C23.2257 6.85826 22.9008 6.53328 22.5 6.53328C22.0991 6.53328 21.7742 6.85826 21.7742 7.25907V12.9644L18.6098 10.3299C18.3015 10.0733 17.8436 10.1151 17.587 10.4234C17.3305 10.7317 17.3726 11.1896 17.681 11.4462L21.7742 14.853V18.0464L18.6098 15.4118C18.3015 15.1553 17.8436 15.1971 17.587 15.5054C17.3305 15.8137 17.3726 16.2716 17.681 16.5282L21.7742 19.9335V22.4011L18.6098 19.7666C18.3015 19.51 17.8436 19.5518 17.587 19.8601C17.3305 20.1685 17.3726 20.6263 17.681 20.8829L21.7742 24.2883V32.502C19.3065 30.1867 13.7905 24.2528 13.7905 17.4202C13.7905 9.8036 20.6557 3.28954 22.5 1.67778C24.3442 3.28954 31.2095 9.8036 31.2095 17.4202C31.2095 24.2528 25.6934 30.1867 23.2257 32.502Z" fill="#231F20"/>
<path d="M17.4195 38.468H16.6937V33.1384C16.6962 32.1755 16.3134 31.2516 15.6305 30.5729L9.52081 24.46C8.67133 23.6141 7.29736 23.6141 6.44788 24.46L5.80679 25.1033V17.4201C5.80608 16.6135 5.47012 15.8437 4.87935 15.2948C4.28894 14.7455 3.49687 14.4666 2.69241 14.524C1.14549 14.6746 -0.0264787 15.9883 0.00045498 17.5427V27.9104C0.000100589 28.8134 0.336417 29.6838 0.944197 30.3514L7.25838 37.2971V38.468H6.53258C6.13177 38.468 5.80679 38.793 5.80679 39.1938V44.2744C5.80679 44.6752 6.13177 45.0002 6.53258 45.0002H17.4195C17.8203 45.0002 18.1453 44.6752 18.1453 44.2744V39.1938C18.1453 38.793 17.8203 38.468 17.4195 38.468ZM2.01836 29.3744C1.65369 28.9743 1.45168 28.4519 1.45204 27.9104V17.5427C1.43255 16.7524 2.01233 16.0745 2.79624 15.972C3.21726 15.9419 3.63083 16.0961 3.92923 16.3945C4.20282 16.6656 4.35627 17.0349 4.35521 17.4201V26.2536C4.35344 26.8316 4.58308 27.3862 4.99311 27.7938L8.92259 31.7233C9.20752 31.9983 9.66008 31.9944 9.94005 31.7144C10.22 31.4345 10.2239 30.9815 9.94891 30.697L6.61764 27.3653C6.48191 27.2303 6.40571 27.0467 6.40571 26.8554C6.40571 26.6636 6.48191 26.4801 6.61764 26.345L7.4742 25.4892C7.75665 25.2099 8.21169 25.2099 8.49449 25.4892L14.6042 31.5996C15.0114 32.0086 15.2407 32.5614 15.2421 33.1384V38.468H8.70996V36.7354L2.01836 29.3744ZM16.6937 43.5486H7.25838V39.9196H16.6937V43.5486Z" fill="#231F20"/>
<path d="M42.3078 14.524C41.5037 14.4666 40.7113 14.7455 40.1209 15.2948C39.5305 15.8437 39.1945 16.6135 39.1934 17.4201V25.1033L38.5527 24.4622C37.7032 23.6162 36.3293 23.6162 35.4798 24.4622L29.3701 30.5729C28.6872 31.2516 28.3044 32.1755 28.3066 33.1384V38.468H27.5808C27.18 38.468 26.855 38.793 26.855 39.1938V44.2744C26.855 44.6752 27.18 45.0002 27.5808 45.0002H38.4677C38.8685 45.0002 39.1934 44.6752 39.1934 44.2744V39.1938C39.1934 38.793 38.8685 38.468 38.4677 38.468H37.7419V37.2971L44.0564 30.3514C44.6642 29.6838 45.0005 28.8134 44.9998 27.9104V17.5427C45.0267 15.9883 43.8551 14.6746 42.3078 14.524ZM37.7419 43.5486H28.3066V39.9196H37.7419V43.5486ZM43.5482 27.9104C43.5489 28.4519 43.3469 28.9743 42.9822 29.3744L36.2903 36.7354V38.468H29.7581V33.1384C29.7596 32.5614 29.9889 32.0079 30.3961 31.5989L36.5082 25.4892C36.7907 25.2099 37.2457 25.2099 37.5285 25.4892L38.3851 26.3458C38.6647 26.6268 38.6647 27.0808 38.3851 27.3618L35.052 30.6948C34.8635 30.877 34.7877 31.1467 34.8543 31.4004C34.9206 31.6542 35.119 31.8526 35.3728 31.9189C35.6265 31.9852 35.8962 31.9097 36.0784 31.7208L40.0078 27.7917C40.4168 27.3841 40.6461 26.8306 40.645 26.2536V17.4201C40.6443 17.0349 40.7978 16.6656 41.071 16.3945C41.3698 16.0961 41.783 15.9423 42.204 15.972C42.9879 16.0745 43.568 16.7524 43.5482 17.5427V27.9104Z" fill="#231F20"/>
<path d="M21.9849 43.7591C21.852 43.898 21.7769 44.082 21.7744 44.2744C21.7758 44.3229 21.7804 44.3715 21.7889 44.4193C21.7971 44.4651 21.8116 44.509 21.8325 44.5501C21.8485 44.5962 21.8705 44.6401 21.8977 44.6809C21.9247 44.7188 21.9537 44.755 21.9849 44.7897C22.2713 45.0704 22.7295 45.0704 23.0155 44.7897L23.1027 44.6809C23.13 44.6401 23.1519 44.5962 23.1679 44.5501C23.1891 44.509 23.2037 44.4651 23.2108 44.4193C23.22 44.3715 23.2249 44.3229 23.226 44.2744C23.2278 43.9795 23.0509 43.7127 22.7788 43.5996C22.5062 43.4866 22.1926 43.5497 21.9849 43.7591Z" fill="#231F20"/>
<path d="M8.71017 42.0971H11.6133C12.0142 42.0971 12.3391 41.7721 12.3391 41.3713C12.3391 40.9705 12.0142 40.6455 11.6133 40.6455H8.71017C8.30935 40.6455 7.98438 40.9705 7.98438 41.3713C7.98438 41.7721 8.30935 42.0971 8.71017 42.0971Z" fill="#231F20"/>
<path d="M13.5147 42.0391C13.6019 42.0763 13.6958 42.0958 13.7904 42.0972C14.0853 42.0986 14.3521 41.9218 14.4652 41.6496C14.5782 41.3774 14.5152 41.0634 14.3057 40.8561C14.097 40.6499 13.7851 40.59 13.5147 40.7034C13.4258 40.7385 13.3446 40.7902 13.2751 40.8561C13.1422 40.995 13.0671 41.179 13.0646 41.3714C13.0579 41.6666 13.2383 41.9345 13.5147 42.0391Z" fill="#231F20"/>
<path d="M29.7425 18.7265C29.7354 18.6811 29.7209 18.6368 29.6996 18.5957C29.6837 18.5496 29.6617 18.5057 29.6344 18.4653L29.5472 18.3565C29.2563 18.0879 28.8076 18.0879 28.5167 18.3565C28.4855 18.3909 28.4564 18.427 28.4295 18.4653C28.4022 18.5057 28.3802 18.5496 28.3643 18.5957C28.3434 18.6368 28.3288 18.6811 28.3207 18.7265C28.3125 18.7747 28.3079 18.8229 28.3062 18.8718C28.3086 19.0639 28.3838 19.2481 28.5167 19.3871C28.6549 19.521 28.8395 19.5962 29.0319 19.5976C29.2251 19.5993 29.4108 19.5235 29.5476 19.3871C29.684 19.2506 29.7599 19.0646 29.7577 18.8718C29.7563 18.8229 29.7514 18.7743 29.7425 18.7265Z" fill="#231F20"/>
</g>
<defs>
<clipPath id="clip0_142_1041">
<rect width="45" height="45" fill="white"/>
</clipPath>
</defs>
</svg>
