<svg width="46" height="46" viewBox="0 0 46 46" fill="none" xmlns="http://www.w3.org/2000/svg">
<g clip-path="url(#clip0_142_823)">
<path d="M28.464 40.2874C29.2514 40.2874 29.8896 39.6491 29.8896 38.8617V2.09947C29.8896 1.31208 29.2514 0.673828 28.464 0.673828H2.41539C1.628 0.673828 0.989746 1.31208 0.989746 2.09947V38.8616C0.989746 39.649 1.628 40.2873 2.41539 40.2873H30.4405H30.4406H28.464V40.2874Z" fill="#F2FBFF"/>
<path d="M30.4404 0.673828H28.1045C28.8919 0.673828 29.5301 1.31208 29.5301 2.09947V38.8616C29.5301 39.649 28.8919 40.2873 28.1045 40.2873H30.4404C31.2278 40.2873 31.8661 39.649 31.8661 38.8616V2.09947C31.8661 1.31208 31.2278 0.673828 30.4404 0.673828Z" fill="#DFF6FD"/>
<path d="M23.3843 12.5622H9.6955C9.35805 12.5622 9.08447 12.2887 9.08447 11.9512V6.39795H23.9952V11.9512C23.9953 12.2887 23.7217 12.5622 23.3843 12.5622Z" fill="#596C76"/>
<path d="M18.5196 28.294C18.1612 28.294 17.8706 28.5846 17.8706 28.9431V41.4739C17.8706 41.8324 18.1612 42.123 18.5196 42.123H42.3848C42.7432 42.1229 43.0337 41.8323 43.0337 41.4739V28.943C43.0337 28.5845 42.7431 28.2939 42.3847 28.2939H18.5196V28.294Z" fill="#0ED2B3"/>
<path d="M44.3613 28.2939H42.0254C42.3839 28.2939 42.6744 28.5845 42.6744 28.943V41.4738C42.6744 41.8323 42.3839 42.1229 42.0254 42.1229H44.3613C44.7198 42.1229 45.0104 41.8323 45.0104 41.4738V28.9429C45.0104 28.5845 44.7198 28.2939 44.3613 28.2939Z" fill="#0AB69F"/>
<path d="M15.443 31.4973C15.0845 31.4973 14.7939 31.7879 14.7939 32.1463V44.6772C14.7939 45.0357 15.0845 45.3262 15.443 45.3262H39.308C39.6665 45.3262 39.957 45.0357 39.957 44.6772V32.1463C39.957 31.7879 39.6665 31.4973 39.308 31.4973H15.443Z" fill="#86E8D0"/>
<path d="M41.2842 31.4973H38.9482C39.3067 31.4973 39.5973 31.7879 39.5973 32.1463V44.6772C39.5973 45.0357 39.3067 45.3262 38.9482 45.3262H41.2842C41.6427 45.3262 41.9332 45.0357 41.9332 44.6772V32.1463C41.9332 31.788 41.6426 31.4973 41.2842 31.4973Z" fill="#5DE1C4"/>
<path d="M28.3636 42.4946C30.6185 42.4946 32.4465 40.6666 32.4465 38.4117C32.4465 36.1568 30.6185 34.3289 28.3636 34.3289C26.1087 34.3289 24.2808 36.1568 24.2808 38.4117C24.2808 40.6666 26.1087 42.4946 28.3636 42.4946Z" fill="#FFF0AD"/>
<path d="M26.8763 7.4488H6.20389C5.44462 7.4488 4.8291 6.83328 4.8291 6.07401C4.8291 5.31474 5.44462 4.69922 6.20389 4.69922H26.8762C27.6355 4.69922 28.251 5.31474 28.251 6.07401C28.251 6.83328 27.6355 7.4488 26.8763 7.4488Z" fill="#7A8C98"/>
<path d="M28.3636 43.1684C30.9864 43.1684 33.1202 41.0345 33.1202 38.4117C33.1202 35.7889 30.9864 33.655 28.3636 33.655C25.7408 33.655 23.6069 35.7889 23.6069 38.4117C23.6069 41.0345 25.7408 43.1684 28.3636 43.1684ZM28.3636 35.0027C30.2433 35.0027 31.7726 36.5319 31.7726 38.4117C31.7726 40.2915 30.2433 41.8207 28.3636 41.8207C26.4838 41.8207 24.9546 40.2915 24.9546 38.4117C24.9546 36.5319 26.4838 35.0027 28.3636 35.0027Z" fill="black"/>
<path d="M27.2207 8.09297C28.1869 7.92865 28.9249 7.0861 28.9249 6.07392C28.9249 4.9444 28.0059 4.02539 26.8763 4.02539H6.20389C5.07429 4.02539 4.15527 4.9444 4.15527 6.07392C4.15527 7.20352 5.07429 8.12253 6.20389 8.12253H8.41081V11.9512C8.41081 12.6597 8.98716 13.2361 9.69567 13.2361H23.3844C24.093 13.2361 24.6693 12.6597 24.6693 11.9512V8.12244H25.8729V12.5622C25.8729 12.9344 26.1745 13.236 26.5468 13.236C26.919 13.236 27.2206 12.9344 27.2206 12.5622V8.09297H27.2207ZM23.3216 11.8883H9.75847V8.12253H23.3216V11.8883ZM5.50293 6.07383C5.50293 5.68732 5.81738 5.37296 6.20389 5.37296H26.8763C27.2628 5.37296 27.5773 5.68732 27.5773 6.07383C27.5773 6.46033 27.2628 6.77479 26.8763 6.77479H6.20389C5.81738 6.77479 5.50293 6.46033 5.50293 6.07383Z" fill="black"/>
<path d="M9.6343 37.3433C10.0065 37.3433 10.3081 37.0417 10.3081 36.6695V36.1834C13.029 35.6472 13.6978 32.0757 10.7734 31.1722C10.6204 31.1249 10.4643 31.0758 10.3081 31.0248V28.7975C10.7121 28.8946 10.9513 29.07 10.9747 29.0877C11.2645 29.3162 11.6846 29.2694 11.9166 28.9815C12.1502 28.6917 12.1046 28.2676 11.8149 28.0341C11.7808 28.0066 11.2213 27.5668 10.3081 27.4282V27.0488C10.3081 26.6766 10.0065 26.375 9.6343 26.375C9.26208 26.375 8.96047 26.6766 8.96047 27.0488V27.4713C7.82017 27.7109 7.14015 28.4866 6.98139 29.402C6.84492 30.189 7.14581 30.9421 7.76663 31.3677C8.07371 31.5781 8.45106 31.7713 8.96047 31.9733V34.8862C8.52671 34.851 8.20911 34.7467 7.70553 34.4589C7.38254 34.274 6.97079 34.3862 6.78625 34.7094C6.60153 35.0325 6.71366 35.4441 7.03683 35.6287C7.78882 36.0586 8.30955 36.1966 8.96047 36.2359V36.6694C8.96047 37.0417 9.26217 37.3433 9.6343 37.3433ZM8.30919 29.6323C8.3569 29.3573 8.55393 29.0275 8.96047 28.8683V30.5025C8.51332 30.2829 8.22465 30.1211 8.30919 29.6323ZM10.3756 32.4599C11.8709 32.9217 11.4345 34.3906 10.3081 34.7887V32.4388C10.3309 32.4459 10.3525 32.4528 10.3756 32.4599Z" fill="black"/>
<path d="M17.4105 16.3289H7.37109C6.99887 16.3289 6.69727 16.6305 6.69727 17.0027C6.69727 17.3749 6.99887 17.6765 7.37109 17.6765H17.4105C17.7827 17.6765 18.0843 17.3749 18.0843 17.0027C18.0843 16.6305 17.7827 16.3289 17.4105 16.3289Z" fill="black"/>
<path d="M17.4105 19.7913H7.37109C6.99887 19.7913 6.69727 20.0929 6.69727 20.4651C6.69727 20.8373 6.99887 21.1389 7.37109 21.1389H17.4105C17.7827 21.1389 18.0843 20.8373 18.0843 20.4651C18.0843 20.0929 17.7827 19.7913 17.4105 19.7913Z" fill="black"/>
<path d="M18.0843 23.9272C18.0843 23.555 17.7827 23.2534 17.4105 23.2534H7.37109C6.99887 23.2534 6.69727 23.555 6.69727 23.9272C6.69727 24.2995 6.99887 24.6011 7.37109 24.6011H17.4105C17.7827 24.6011 18.0843 24.2995 18.0843 23.9272Z" fill="black"/>
<path d="M26.5471 16.3289H22.5913C22.2191 16.3289 21.9175 16.6305 21.9175 17.0027C21.9175 17.3749 22.2191 17.6765 22.5913 17.6765H26.5471C26.9193 17.6765 27.2209 17.3749 27.2209 17.0027C27.2209 16.6305 26.9192 16.3289 26.5471 16.3289Z" fill="black"/>
<path d="M26.5471 19.7913H22.5913C22.2191 19.7913 21.9175 20.0929 21.9175 20.4651C21.9175 20.8373 22.2191 21.1389 22.5913 21.1389H26.5471C26.9193 21.1389 27.2209 20.8373 27.2209 20.4651C27.2209 20.0929 26.9192 19.7913 26.5471 19.7913Z" fill="black"/>
<path d="M26.5471 23.2534H22.5913C22.2191 23.2534 21.9175 23.555 21.9175 23.9272C21.9175 24.2995 22.2191 24.6011 22.5913 24.6011H26.5471C26.9193 24.6011 27.2209 24.2995 27.2209 23.9272C27.2209 23.555 26.9192 23.2534 26.5471 23.2534Z" fill="black"/>
<path d="M45.0103 34.6713C45.3825 34.6713 45.6841 34.3697 45.6841 33.9975V28.9429C45.6841 28.2135 45.0907 27.62 44.3612 27.62H32.5402V2.09947C32.5402 0.941832 31.5983 0 30.4405 0H8.08758C7.71536 0 7.41375 0.301605 7.41375 0.673828C7.41375 1.04605 7.71536 1.34766 8.08758 1.34766H30.4406C30.8552 1.34766 31.1925 1.68493 31.1925 2.09947V27.6201C29.6588 27.6201 19.8967 27.6201 18.5197 27.6201C17.7799 27.6201 17.1968 28.2278 17.1968 28.943V30.8235H15.4429C14.7134 30.8235 14.1201 31.417 14.1201 32.1464V39.6136H2.40928C2.40829 39.6136 2.40739 39.6136 2.4064 39.6135C1.99671 39.6089 1.66348 39.2717 1.66348 38.8618V2.09947C1.66348 1.68493 2.00076 1.34766 2.41539 1.34766H4.94296C5.31518 1.34766 5.61679 1.04605 5.61679 0.673828C5.61679 0.301605 5.31518 0 4.94305 0H2.41548C1.25775 0 0.315918 0.941832 0.315918 2.09947V38.8617C0.315918 40.0063 1.24688 40.9481 2.39122 40.9611C2.39445 40.9611 2.39805 40.961 2.40146 40.9611L14.1201 40.9612V44.6771C14.1201 45.4065 14.7136 46 15.443 46H41.2846C42.014 46 42.6074 45.4066 42.6074 44.6771V42.7966H44.3614C45.0908 42.7966 45.6843 42.2032 45.6843 41.4737V37.1419C45.6843 36.7697 45.3827 36.4681 45.0105 36.4681C44.6383 36.4681 44.3367 36.7697 44.3367 37.1419V41.4489H42.6075V32.1463C42.6075 31.4166 42.0138 30.8234 41.2846 30.8234H18.5445V28.9678H44.3365V33.9975C44.3365 34.3697 44.6382 34.6713 45.0103 34.6713ZM41.2596 32.1711V44.6523H15.4677C15.4677 44.6001 15.4677 32.5021 15.4677 32.1711H41.2596Z" fill="black"/>
</g>
<defs>
<clipPath id="clip0_142_823">
<rect width="46" height="46" fill="white"/>
</clipPath>
</defs>
</svg>
